<?xml version="1.0" encoding="UTF-8"?>
<!DOCTYPE svg PUBLIC "-//W3C//DTD SVG 1.1//EN" "http://www.w3.org/Graphics/SVG/1.1/DTD/svg11.dtd">
<svg version="1.1" xmlns="http://www.w3.org/2000/svg" xmlns:xlink="http://www.w3.org/1999/xlink" width="24" height="24"  xml:space="preserve" id="chosen_Days">
    <!-- Generated by PaintCode - http://www.paintcodeapp.com -->
    <g id="chosen_Days-group" transform="translate(1.5, 1) scale(2.1, 2.2)" >
        <path id="chosen_Days-rectangle" stroke="none" fill="rgb(34, 11, 91)" d="M 0.5,9.25 L 9.5,9.25 9.25,9.5 9.25,1 9.5,1.25 0.5,1.25 0.75,1 0.75,9.5 0.5,9.25 Z M 0.5,9.75 L 0.25,9.75 0.25,9.5 0.25,1 0.25,0.75 0.5,0.75 9.5,0.75 9.75,0.75 9.75,1 9.75,9.5 9.75,9.75 9.5,9.75 0.5,9.75 Z M 0.5,9.75" />
        <path id="chosen_Days-bezier" stroke="none" fill="rgb(34, 11, 91)" d="M 2.25,0.25 L 2.25,1.75 1.75,1.75 1.75,0.25 2.25,0.25 Z M 2.25,0.25" />
        <path id="chosen_Days-bezier2" stroke="none" fill="rgb(34, 11, 91)" d="M 4.25,0.25 L 4.25,1.75 3.75,1.75 3.75,0.25 4.25,0.25 Z M 4.25,0.25" />
        <path id="chosen_Days-bezier3" stroke="none" fill="rgb(34, 11, 91)" d="M 6.25,0.25 L 6.25,1.75 5.75,1.75 5.75,0.25 6.25,0.25 Z M 6.25,0.25" />
        <path id="chosen_Days-bezier4" stroke="none" fill="rgb(34, 11, 91)" d="M 8.25,0.25 L 8.25,1.75 7.75,1.75 7.75,0.25 8.25,0.25 Z M 8.25,0.25" />
        <path id="chosen_Days-bezier5" stroke="none" fill="rgb(34, 11, 91)" d="M 0.5,2.5 L 9.5,2.5 9.5,3 0.5,3 0.5,2.5 Z M 0.5,2.5" />
    </g>
    <g id="chosen_Days-group2" transform="translate(10.5, 12.5) scale(0.32, 0.32)" >
        <path id="chosen_Days-rectangle2" stroke="none" fill="rgb(90, 70, 128)" d="M 1.9,7.75 C 1.9,8.5 2.5,9.1 3.25,9.1 L 7.75,9.1 C 8.5,9.1 9.1,8.5 9.1,7.75 L 9.1,3.25 C 9.1,2.5 8.5,1.9 7.75,1.9 L 3.25,1.9 C 2.5,1.9 1.9,2.5 1.9,3.25 L 1.9,7.75 Z M 1,7.75 L 1,3.25 C 1,2.01 2.01,1 3.25,1 L 7.75,1 C 8.99,1 10,2.01 10,3.25 L 10,7.75 C 10,8.99 8.99,10 7.75,10 L 3.25,10 C 2.01,10 1,8.99 1,7.75 Z M 1,7.75" />
        <path id="chosen_Days-border" stroke="rgb(34, 11, 91)" stroke-width="0.25" stroke-miterlimit="10" fill="none" d="M 1,8 C 1,9.1 1.9,10 3,10 L 8,10 C 9.1,10 10,9.1 10,8 L 10,3 C 10,1.9 9.1,1 8,1 L 3,1 C 1.9,1 1,1.9 1,3 L 1,8 Z M 1,8" />
    </g>
    <g id="chosen_Days-group3" transform="translate(14, 8) scale(0.32, 0.32)" >
        <path id="chosen_Days-rectangle3" stroke="none" fill="rgb(90, 70, 128)" d="M 1.9,7.75 C 1.9,8.5 2.5,9.1 3.25,9.1 L 7.75,9.1 C 8.5,9.1 9.1,8.5 9.1,7.75 L 9.1,3.25 C 9.1,2.5 8.5,1.9 7.75,1.9 L 3.25,1.9 C 2.5,1.9 1.9,2.5 1.9,3.25 L 1.9,7.75 Z M 1,7.75 L 1,3.25 C 1,2.01 2.01,1 3.25,1 L 7.75,1 C 8.99,1 10,2.01 10,3.25 L 10,7.75 C 10,8.99 8.99,10 7.75,10 L 3.25,10 C 2.01,10 1,8.99 1,7.75 Z M 1,7.75" />
        <path id="chosen_Days-border2" stroke="rgb(34, 11, 91)" stroke-width="0.25" stroke-miterlimit="10" fill="none" d="M 1,8 C 1,9.1 1.9,10 3,10 L 8,10 C 9.1,10 10,9.1 10,8 L 10,3 C 10,1.9 9.1,1 8,1 L 3,1 C 1.9,1 1,1.9 1,3 L 1,8 Z M 1,8" />
    </g>
    <g id="chosen_Days-group4" transform="translate(10.5, 8) scale(0.32, 0.32)" >
        <path id="chosen_Days-rectangle4" stroke="none" fill="rgb(90, 70, 128)" d="M 1.9,7.75 C 1.9,8.5 2.5,9.1 3.25,9.1 L 7.75,9.1 C 8.5,9.1 9.1,8.5 9.1,7.75 L 9.1,3.25 C 9.1,2.5 8.5,1.9 7.75,1.9 L 3.25,1.9 C 2.5,1.9 1.9,2.5 1.9,3.25 L 1.9,7.75 Z M 1,7.75 L 1,3.25 C 1,2.01 2.01,1 3.25,1 L 7.75,1 C 8.99,1 10,2.01 10,3.25 L 10,7.75 C 10,8.99 8.99,10 7.75,10 L 3.25,10 C 2.01,10 1,8.99 1,7.75 Z M 1,7.75" />
        <path id="chosen_Days-border3" stroke="rgb(34, 11, 91)" stroke-width="0.25" stroke-miterlimit="10" fill="none" d="M 1,8 C 1,9.1 1.9,10 3,10 L 8,10 C 9.1,10 10,9.1 10,8 L 10,3 C 10,1.9 9.1,1 8,1 L 3,1 C 1.9,1 1,1.9 1,3 L 1,8 Z M 1,8" />
    </g>
    <g id="chosen_Days-group5" transform="translate(17.5, 12.5) scale(0.32, 0.32)" >
        <rect id="chosen_Days-rectangle5" stroke="none" fill="rgb(90, 70, 128)" x="1" y="1" width="9" height="9" rx="2" />
        <path id="chosen_Days-border4" stroke="rgb(34, 11, 91)" stroke-width="0.25" stroke-miterlimit="10" fill="none" d="M 1,8 C 1,9.1 1.9,10 3,10 L 8,10 C 9.1,10 10,9.1 10,8 L 10,3 C 10,1.9 9.1,1 8,1 L 3,1 C 1.9,1 1,1.9 1,3 L 1,8 Z M 1,8" />
    </g>
    <g id="chosen_Days-group6" transform="translate(14, 12.5) scale(0.32, 0.32)" >
        <rect id="chosen_Days-rectangle6" stroke="none" fill="rgb(90, 70, 128)" x="1" y="1" width="9" height="9" rx="2" />
        <path id="chosen_Days-border5" stroke="rgb(34, 11, 91)" stroke-width="0.25" stroke-miterlimit="10" fill="none" d="M 1,8 C 1,9.1 1.9,10 3,10 L 8,10 C 9.1,10 10,9.1 10,8 L 10,3 C 10,1.9 9.1,1 8,1 L 3,1 C 1.9,1 1,1.9 1,3 L 1,8 Z M 1,8" />
    </g>
    <g id="chosen_Days-group7" transform="translate(17.5, 8) scale(0.32, 0.32)" >
        <path id="chosen_Days-rectangle7" stroke="none" fill="rgb(90, 70, 128)" d="M 1.9,7.75 C 1.9,8.5 2.5,9.1 3.25,9.1 L 7.75,9.1 C 8.5,9.1 9.1,8.5 9.1,7.75 L 9.1,3.25 C 9.1,2.5 8.5,1.9 7.75,1.9 L 3.25,1.9 C 2.5,1.9 1.9,2.5 1.9,3.25 L 1.9,7.75 Z M 1,7.75 L 1,3.25 C 1,2.01 2.01,1 3.25,1 L 7.75,1 C 8.99,1 10,2.01 10,3.25 L 10,7.75 C 10,8.99 8.99,10 7.75,10 L 3.25,10 C 2.01,10 1,8.99 1,7.75 Z M 1,7.75" />
        <path id="chosen_Days-border6" stroke="rgb(34, 11, 91)" stroke-width="0.25" stroke-miterlimit="10" fill="none" d="M 1,8 C 1,9.1 1.9,10 3,10 L 8,10 C 9.1,10 10,9.1 10,8 L 10,3 C 10,1.9 9.1,1 8,1 L 3,1 C 1.9,1 1,1.9 1,3 L 1,8 Z M 1,8" />
    </g>
    <g id="chosen_Days-group8" transform="translate(7, 12.5) scale(0.32, 0.32)" >
        <path id="chosen_Days-rectangle8" stroke="none" fill="rgb(90, 70, 128)" d="M 1.9,7.75 C 1.9,8.5 2.5,9.1 3.25,9.1 L 7.75,9.1 C 8.5,9.1 9.1,8.5 9.1,7.75 L 9.1,3.25 C 9.1,2.5 8.5,1.9 7.75,1.9 L 3.25,1.9 C 2.5,1.9 1.9,2.5 1.9,3.25 L 1.9,7.75 Z M 1,7.75 L 1,3.25 C 1,2.01 2.01,1 3.25,1 L 7.75,1 C 8.99,1 10,2.01 10,3.25 L 10,7.75 C 10,8.99 8.99,10 7.75,10 L 3.25,10 C 2.01,10 1,8.99 1,7.75 Z M 1,7.75" />
        <path id="chosen_Days-border7" stroke="rgb(34, 11, 91)" stroke-width="0.25" stroke-miterlimit="10" fill="none" d="M 1,8 C 1,9.1 1.9,10 3,10 L 8,10 C 9.1,10 10,9.1 10,8 L 10,3 C 10,1.9 9.1,1 8,1 L 3,1 C 1.9,1 1,1.9 1,3 L 1,8 Z M 1,8" />
    </g>
    <g id="chosen_Days-group9" transform="translate(3.5, 12.5) scale(0.32, 0.32)" >
        <path id="chosen_Days-rectangle9" stroke="none" fill="rgb(90, 70, 128)" d="M 1.9,7.75 C 1.9,8.5 2.5,9.1 3.25,9.1 L 7.75,9.1 C 8.5,9.1 9.1,8.5 9.1,7.75 L 9.1,3.25 C 9.1,2.5 8.5,1.9 7.75,1.9 L 3.25,1.9 C 2.5,1.9 1.9,2.5 1.9,3.25 L 1.9,7.75 Z M 1,7.75 L 1,3.25 C 1,2.01 2.01,1 3.25,1 L 7.75,1 C 8.99,1 10,2.01 10,3.25 L 10,7.75 C 10,8.99 8.99,10 7.75,10 L 3.25,10 C 2.01,10 1,8.99 1,7.75 Z M 1,7.75" />
        <path id="chosen_Days-border8" stroke="rgb(34, 11, 91)" stroke-width="0.25" stroke-miterlimit="10" fill="none" d="M 1,8 C 1,9.1 1.9,10 3,10 L 8,10 C 9.1,10 10,9.1 10,8 L 10,3 C 10,1.9 9.1,1 8,1 L 3,1 C 1.9,1 1,1.9 1,3 L 1,8 Z M 1,8" />
    </g>
    <g id="chosen_Days-group10" transform="translate(10.5, 16.5) scale(0.32, 0.32)" >
        <path id="chosen_Days-rectangle10" stroke="none" fill="rgb(90, 70, 128)" d="M 1.9,7.75 C 1.9,8.5 2.5,9.1 3.25,9.1 L 7.75,9.1 C 8.5,9.1 9.1,8.5 9.1,7.75 L 9.1,3.25 C 9.1,2.5 8.5,1.9 7.75,1.9 L 3.25,1.9 C 2.5,1.9 1.9,2.5 1.9,3.25 L 1.9,7.75 Z M 1,7.75 L 1,3.25 C 1,2.01 2.01,1 3.25,1 L 7.75,1 C 8.99,1 10,2.01 10,3.25 L 10,7.75 C 10,8.99 8.99,10 7.75,10 L 3.25,10 C 2.01,10 1,8.99 1,7.75 Z M 1,7.75" />
        <path id="chosen_Days-border9" stroke="rgb(34, 11, 91)" stroke-width="0.25" stroke-miterlimit="10" fill="none" d="M 1,8 C 1,9.1 1.9,10 3,10 L 8,10 C 9.1,10 10,9.1 10,8 L 10,3 C 10,1.9 9.1,1 8,1 L 3,1 C 1.9,1 1,1.9 1,3 L 1,8 Z M 1,8" />
    </g>
    <g id="chosen_Days-group11" transform="translate(7, 16.5) scale(0.32, 0.32)" >
        <path id="chosen_Days-rectangle11" stroke="none" fill="rgb(90, 70, 128)" d="M 1.9,7.75 C 1.9,8.5 2.5,9.1 3.25,9.1 L 7.75,9.1 C 8.5,9.1 9.1,8.5 9.1,7.75 L 9.1,3.25 C 9.1,2.5 8.5,1.9 7.75,1.9 L 3.25,1.9 C 2.5,1.9 1.9,2.5 1.9,3.25 L 1.9,7.75 Z M 1,7.75 L 1,3.25 C 1,2.01 2.01,1 3.25,1 L 7.75,1 C 8.99,1 10,2.01 10,3.25 L 10,7.75 C 10,8.99 8.99,10 7.75,10 L 3.25,10 C 2.01,10 1,8.99 1,7.75 Z M 1,7.75" />
        <path id="chosen_Days-border10" stroke="rgb(34, 11, 91)" stroke-width="0.25" stroke-miterlimit="10" fill="none" d="M 1,8 C 1,9.1 1.9,10 3,10 L 8,10 C 9.1,10 10,9.1 10,8 L 10,3 C 10,1.9 9.1,1 8,1 L 3,1 C 1.9,1 1,1.9 1,3 L 1,8 Z M 1,8" />
    </g>
    <g id="chosen_Days-group12" transform="translate(3.5, 16.5) scale(0.32, 0.32)" >
        <rect id="chosen_Days-rectangle12" stroke="none" fill="rgb(90, 70, 128)" x="1" y="1" width="9" height="9" rx="2" />
        <path id="chosen_Days-border11" stroke="rgb(34, 11, 91)" stroke-width="0.25" stroke-miterlimit="10" fill="none" d="M 1,8 C 1,9.1 1.9,10 3,10 L 8,10 C 9.1,10 10,9.1 10,8 L 10,3 C 10,1.9 9.1,1 8,1 L 3,1 C 1.9,1 1,1.9 1,3 L 1,8 Z M 1,8" />
    </g>
</svg>
