<?xml version="1.0" encoding="UTF-8"?>
<!DOCTYPE svg PUBLIC "-//W3C//DTD SVG 1.1//EN" "http://www.w3.org/Graphics/SVG/1.1/DTD/svg11.dtd">
<svg version="1.1" xmlns="http://www.w3.org/2000/svg" xmlns:xlink="http://www.w3.org/1999/xlink" width="24" height="24"  xml:space="preserve" id="editTherapy">
    <!-- Generated by PaintCode - http://www.paintcodeapp.com -->
    <g id="editTherapy-group" clip-path="url(#editTherapy-rectangle)">
        <clipPath id="editTherapy-rectangle">
            <rect x="0" y="-24" width="24" height="24"  transform="translate(0, 24)" />
        </clipPath>
        <g id="editTherapy-group2" transform="translate(10.5, 12.5) rotate(45) scale(1, 0.94)" >
            <path id="editTherapy-bezier9" stroke="rgb(255, 255, 255)" stroke-width="2" stroke-miterlimit="10" fill="none" d="M -2.25,-11.25 L -2.25,4.5 C -2.25,4.64 -2.36,4.75 -2.5,4.75 -2.63,4.75 -2.75,4.64 -2.75,4.5 L -2.75,-11.25 C -2.75,-11.39 -2.63,-11.5 -2.5,-11.5 -2.36,-11.5 -2.25,-11.39 -2.25,-11.25 Z M -2.25,-11.25" />
            <path id="editTherapy-bezier10" stroke="rgb(255, 255, 255)" stroke-width="2" stroke-miterlimit="10" fill="none" d="M 4.75,-11.25 L 4.75,4.5 C 4.75,4.64 4.64,4.75 4.5,4.75 4.36,4.75 4.25,4.64 4.25,4.5 L 4.25,-11.25 C 4.25,-11.39 4.36,-11.5 4.5,-11.5 4.64,-11.5 4.75,-11.39 4.75,-11.25 Z M 4.75,-11.25" />
            <path id="editTherapy-bezier11" stroke="rgb(255, 255, 255)" stroke-width="2" stroke-miterlimit="10" fill="none" d="M -2.29,4.37 L 1.21,9.87 0.79,9.87 4.29,4.37 4.71,4.63 1.21,10.13 1,10.47 0.79,10.13 -2.71,4.63 -2.29,4.37 Z M -2.29,4.37" />
            <path id="editTherapy-bezier12" stroke="rgb(255, 255, 255)" stroke-width="2" stroke-miterlimit="10" fill="none" d="M -2.75,-11.75 L 4.75,-11.75 4.75,-11.25 -2.75,-11.25 -2.75,-11.75 Z M -2.75,-11.75" />
            <path id="editTherapy-editIconbezier5" stroke="rgb(34, 11, 91)" stroke-width="0.5" stroke-miterlimit="4" fill="none" d="M 6.72,5.3 C 6.69,5.27 6.65,5.26 6.62,5.23 6.28,4.88 6.11,4.44 6.06,3.99 5.9,4.01 5.76,4.03 5.62,4.03 4.85,4.03 4.14,3.73 3.6,3.18 3.06,2.64 2.77,1.91 2.77,1.13 2.77,1 2.78,0.85 2.8,0.72 2.35,0.65 1.93,0.45 1.59,0.12 1.55,0.08 1.54,0.04 1.52,0" transform="translate(-3.75, 5.25) rotate(-45)"  />
            <path id="editTherapy-bezier3" stroke="none" fill="rgb(34, 11, 91)" d="M -2.25,-11.25 L -2.25,4.5 C -2.25,4.64 -2.36,4.75 -2.5,4.75 -2.63,4.75 -2.75,4.64 -2.75,4.5 L -2.75,-11.25 C -2.75,-11.39 -2.63,-11.5 -2.5,-11.5 -2.36,-11.5 -2.25,-11.39 -2.25,-11.25 Z M -2.25,-11.25" />
            <path id="editTherapy-bezier4" stroke="none" fill="rgb(34, 11, 91)" d="M 4.75,-11.25 L 4.75,4.5 C 4.75,4.64 4.64,4.75 4.5,4.75 4.36,4.75 4.25,4.64 4.25,4.5 L 4.25,-11.25 C 4.25,-11.39 4.36,-11.5 4.5,-11.5 4.64,-11.5 4.75,-11.39 4.75,-11.25 Z M 4.75,-11.25" />
            <path id="editTherapy-bezier" stroke="rgb(34, 11, 91)" stroke-width="1.5" stroke-miterlimit="10" fill="none" d="M -2.75,-11 L 4.75,-11" />
            <path id="editTherapy-bezier2" stroke="rgb(34, 11, 91)" stroke-width="0.5" stroke-linecap="round" stroke-miterlimit="10" fill="none" d="M -1.25,-11.25 L -1.25,3.75 -1.25,3.75" />
            <path id="editTherapy-bezier5" stroke="rgb(34, 11, 91)" stroke-width="0.5" stroke-linecap="round" stroke-miterlimit="10" fill="none" d="M 3.25,-11.25 L 3.25,3.75 3.25,3.75" />
            <path id="editTherapy-bezier6" stroke="none" fill="rgb(34, 11, 91)" d="M -2.29,4.37 L 1.21,9.87 0.79,9.87 4.29,4.37 4.71,4.63 1.21,10.13 1,10.47 0.79,10.13 -2.71,4.63 -2.29,4.37 Z M -2.29,4.37" />
            <path id="editTherapy-bezier7" stroke="none" fill="rgb(34, 11, 91)" d="M -2.75,-11.75 L 4.75,-11.75 4.75,-11.25 -2.75,-11.25 -2.75,-11.75 Z M -2.75,-11.75" />
            <rect id="editTherapy-rectangle2" stroke="none" fill="rgb(34, 11, 91)" x="0.5" y="-11.5" width="1" height="15.5" rx="0.5" />
            <path id="editTherapy-bezier8" stroke="none" fill="rgb(34, 11, 91)" d="M -0.5,7.5 L 2.5,7.5 1,9.75 -0.5,7.5 Z M -0.5,7.5" />
        </g>
    </g>
</svg>
