<?xml version="1.0" encoding="UTF-8"?>
<!DOCTYPE svg PUBLIC "-//W3C//DTD SVG 1.1//EN" "http://www.w3.org/Graphics/SVG/1.1/DTD/svg11.dtd">
<svg version="1.1" xmlns="http://www.w3.org/2000/svg" xmlns:xlink="http://www.w3.org/1999/xlink" width="24" height="24"  xml:space="preserve" id="group_Icon">
    <!-- Generated by PaintCode - http://www.paintcodeapp.com -->
    <g id="group_Icon-group2" clip-path="url(#group_Icon-rectangle)" transform="translate(1, 1) scale(0.88, 0.88)" >
        <clipPath id="group_Icon-rectangle">
            <rect x="0" y="-25" width="25" height="25"  transform="translate(0, 25)" />
        </clipPath>
        <g id="group_Icon-group">
            <path id="group_Icon-bezier3" stroke="rgb(0, 0, 0)" stroke-width="1" stroke-linecap="round" stroke-miterlimit="10" fill="none" d="M 3.03,12.49 L 21.98,12.49" />
            <g id="group_Icon-group3" transform="translate(12.49, 5.66) rotate(45) scale(1.35, 1.35)" >
                <path id="group_Icon-bezier" stroke="none" fill="rgb(0, 0, 0)" d="M 5.04,-4.87 L 4.87,-5.04 C 4.56,-5.35 4.19,-5.59 3.78,-5.76 3.39,-5.92 2.98,-6 2.55,-6 2.12,-6 1.71,-5.92 1.31,-5.76 0.91,-5.59 0.54,-5.35 0.23,-5.04 L -5.04,0.23 C -5.35,0.54 -5.59,0.91 -5.76,1.31 -5.92,1.71 -6,2.12 -6,2.55 -6,2.98 -5.92,3.39 -5.76,3.78 -5.59,4.19 -5.35,4.56 -5.04,4.87 L -4.87,5.04 C -4.56,5.35 -4.19,5.59 -3.78,5.76 -3.39,5.92 -2.98,6 -2.55,6 -2.12,6 -1.71,5.92 -1.31,5.76 -0.91,5.59 -0.54,5.35 -0.23,5.04 L 5.04,-0.23 C 5.35,-0.54 5.59,-0.91 5.76,-1.31 5.92,-1.71 6,-2.12 6,-2.55 6,-2.98 5.92,-3.39 5.76,-3.78 5.59,-4.19 5.35,-4.56 5.04,-4.87 Z M -0.83,4.43 C -1.31,4.9 -1.93,5.14 -2.55,5.14 -3.17,5.14 -3.79,4.9 -4.26,4.43 L -4.43,4.26 C -5.38,3.32 -5.38,1.78 -4.43,0.83 L -2.1,-1.5 1.5,2.1 -0.83,4.43 Z M 4.43,-0.83 L 2.1,1.5 -1.5,-2.1 0.83,-4.43 C 1.31,-4.9 1.93,-5.14 2.55,-5.14 3.17,-5.14 3.79,-4.9 4.26,-4.43 L 4.43,-4.26 C 5.38,-3.32 5.38,-1.78 4.43,-0.83 Z M 4.43,-0.83" />
            </g>
            <g id="group_Icon-group4" transform="translate(12.49, 19.37) rotate(45) scale(1.35, 1.35)" >
                <path id="group_Icon-bezier2" stroke="none" fill="rgb(0, 0, 0)" d="M 5.04,-4.87 L 4.87,-5.04 C 4.56,-5.35 4.19,-5.59 3.78,-5.76 3.39,-5.92 2.98,-6 2.55,-6 2.12,-6 1.71,-5.92 1.31,-5.76 0.91,-5.59 0.54,-5.35 0.23,-5.04 L -5.04,0.23 C -5.35,0.54 -5.59,0.91 -5.76,1.31 -5.92,1.71 -6,2.12 -6,2.55 -6,2.98 -5.92,3.39 -5.76,3.78 -5.59,4.19 -5.35,4.56 -5.04,4.87 L -4.87,5.04 C -4.56,5.35 -4.19,5.59 -3.78,5.76 -3.39,5.92 -2.98,6 -2.55,6 -2.12,6 -1.71,5.92 -1.31,5.76 -0.91,5.59 -0.54,5.35 -0.23,5.04 L 5.04,-0.23 C 5.35,-0.54 5.59,-0.91 5.76,-1.31 5.92,-1.71 6,-2.12 6,-2.55 6,-2.98 5.92,-3.39 5.76,-3.78 5.59,-4.19 5.35,-4.56 5.04,-4.87 Z M -0.83,4.43 C -1.31,4.9 -1.93,5.14 -2.55,5.14 -3.17,5.14 -3.79,4.9 -4.26,4.43 L -4.43,4.26 C -5.38,3.32 -5.38,1.78 -4.43,0.83 L -2.1,-1.5 1.5,2.1 -0.83,4.43 Z M 4.43,-0.83 L 2.1,1.5 -1.5,-2.1 0.83,-4.43 C 1.31,-4.9 1.93,-5.14 2.55,-5.14 3.17,-5.14 3.79,-4.9 4.26,-4.43 L 4.43,-4.26 C 5.38,-3.32 5.38,-1.78 4.43,-0.83 Z M 4.43,-0.83" />
            </g>
        </g>
    </g>
</svg>
