<?xml version="1.0" encoding="UTF-8"?>
<!DOCTYPE svg PUBLIC "-//W3C//DTD SVG 1.1//EN" "http://www.w3.org/Graphics/SVG/1.1/DTD/svg11.dtd">
<svg version="1.1" xmlns="http://www.w3.org/2000/svg" xmlns:xlink="http://www.w3.org/1999/xlink" width="24" height="24"  xml:space="preserve" id="prepareMeds">
    <!-- Generated by PaintCode - http://www.paintcodeapp.com -->
    <g id="prepareMeds-group">
        <g id="prepareMeds-group2" transform="" >
            <path id="prepareMeds-bezier" stroke="none" fill="rgb(90, 70, 128)" d="M 4.83,18.61 C 4.83,19.45 5.5,20.14 6.31,20.14 L 17.69,20.14 C 18.5,20.14 19.17,19.45 19.17,18.61 L 19.17,4.89 C 19.17,4.05 18.5,3.36 17.69,3.36 L 6.31,3.36 C 5.5,3.36 4.83,4.05 4.83,4.89 L 4.83,18.61 Z M 4,18.61 L 4,4.89 C 4,3.57 5.04,2.5 6.31,2.5 L 17.69,2.5 C 18.96,2.5 20,3.57 20,4.89 L 20,18.61 C 20,19.93 18.96,21 17.69,21 L 6.31,21 C 5.04,21 4,19.93 4,18.61 Z M 6.26,9.3 C 6.26,10.14 6.92,10.83 7.73,10.83 L 15.79,10.83 C 16.61,10.83 17.27,10.14 17.27,9.3 L 17.27,6.36 C 17.27,5.52 16.61,4.83 15.79,4.83 L 7.73,4.83 C 6.92,4.83 6.26,5.52 6.26,6.36 L 6.26,9.3 Z M 5.42,9.3 L 5.42,6.36 C 5.42,5.04 6.46,3.97 7.73,3.97 L 15.79,3.97 C 17.07,3.97 18.1,5.04 18.1,6.36 L 18.1,9.3 C 18.1,10.62 17.07,11.69 15.79,11.69 L 7.73,11.69 C 6.46,11.69 5.42,10.62 5.42,9.3 Z M 11,13.95 C 11,14.12 11.13,14.26 11.29,14.26 L 12.24,14.26 C 12.4,14.26 12.53,14.12 12.53,13.95 12.53,13.79 12.4,13.65 12.24,13.65 L 11.29,13.65 C 11.13,13.65 11,13.79 11,13.95 Z M 10.16,13.95 C 10.16,13.31 10.67,12.79 11.29,12.79 L 12.24,12.79 C 12.86,12.79 13.36,13.31 13.36,13.95 13.36,14.6 12.86,15.12 12.24,15.12 L 11.29,15.12 C 10.67,15.12 10.16,14.6 10.16,13.95 Z M 15.73,13.95 C 15.73,14.12 15.87,14.26 16.03,14.26 L 16.98,14.26 C 17.14,14.26 17.27,14.12 17.27,13.95 17.27,13.79 17.14,13.65 16.98,13.65 L 16.03,13.65 C 15.87,13.65 15.73,13.79 15.73,13.95 Z M 14.9,13.95 C 14.9,13.31 15.41,12.79 16.03,12.79 L 16.98,12.79 C 17.6,12.79 18.1,13.31 18.1,13.95 18.1,14.6 17.6,15.12 16.98,15.12 L 16.03,15.12 C 15.41,15.12 14.9,14.6 14.9,13.95 Z M 6.26,13.95 C 6.26,14.12 6.39,14.26 6.55,14.26 L 7.5,14.26 C 7.66,14.26 7.79,14.12 7.79,13.95 7.79,13.79 7.66,13.65 7.5,13.65 L 6.55,13.65 C 6.39,13.65 6.26,13.79 6.26,13.95 Z M 5.42,13.95 C 5.42,13.31 5.93,12.79 6.55,12.79 L 7.5,12.79 C 8.12,12.79 8.63,13.31 8.63,13.95 8.63,14.6 8.12,15.12 7.5,15.12 L 6.55,15.12 C 5.93,15.12 5.42,14.6 5.42,13.95 Z M 11,17.87 C 11,18.04 11.13,18.18 11.29,18.18 L 12.24,18.18 C 12.4,18.18 12.53,18.04 12.53,17.87 12.53,17.71 12.4,17.57 12.24,17.57 L 11.29,17.57 C 11.13,17.57 11,17.71 11,17.87 Z M 10.16,17.87 C 10.16,17.23 10.67,16.71 11.29,16.71 L 12.24,16.71 C 12.86,16.71 13.36,17.23 13.36,17.87 13.36,18.52 12.86,19.04 12.24,19.04 L 11.29,19.04 C 10.67,19.04 10.16,18.52 10.16,17.87 Z M 15.73,17.87 C 15.73,18.04 15.87,18.18 16.03,18.18 L 16.98,18.18 C 17.14,18.18 17.27,18.04 17.27,17.87 17.27,17.71 17.14,17.57 16.98,17.57 L 16.03,17.57 C 15.87,17.57 15.73,17.71 15.73,17.87 Z M 14.9,17.87 C 14.9,17.23 15.41,16.71 16.03,16.71 L 16.98,16.71 C 17.6,16.71 18.1,17.23 18.1,17.87 18.1,18.52 17.6,19.04 16.98,19.04 L 16.03,19.04 C 15.41,19.04 14.9,18.52 14.9,17.87 Z M 6.26,17.87 C 6.26,18.04 6.39,18.18 6.55,18.18 L 7.5,18.18 C 7.66,18.18 7.79,18.04 7.79,17.87 7.79,17.71 7.66,17.57 7.5,17.57 L 6.55,17.57 C 6.39,17.57 6.26,17.71 6.26,17.87 Z M 5.42,17.87 C 5.42,17.23 5.93,16.71 6.55,16.71 L 7.5,16.71 C 8.12,16.71 8.63,17.23 8.63,17.87 8.63,18.52 8.12,19.04 7.5,19.04 L 6.55,19.04 C 5.93,19.04 5.42,18.52 5.42,17.87 Z M 5.42,17.87" />
        </g>
        <g id="prepareMeds-group3" clip-path="url(#prepareMeds-rectangle)" transform="translate(4, 4) scale(0.83, 0.83)" >
            <clipPath id="prepareMeds-rectangle">
                <rect x="0" y="0" width="24" height="24" />
            </clipPath>
            <g id="prepareMeds-group4" transform="translate(12, 12) rotate(-45)" >
                <rect id="prepareMeds-fourth" stroke="none" fill="rgb(255, 255, 255)" x="1.41" y="-3.18" width="6.36" height="6.36" />
                <rect id="prepareMeds-third" stroke="none" fill="rgb(255, 255, 255)" x="-0" y="-3.18" width="4.24" height="6.36" />
                <rect id="prepareMeds-second" stroke="none" fill="rgb(255, 255, 255)" x="-3.54" y="-3.18" width="3.89" height="6.36" />
                <rect id="prepareMeds-first" stroke="none" fill="rgb(255, 255, 255)" x="-6.36" y="-2.12" width="2.12" height="4.24" />
                <path id="prepareMeds-bezier2" stroke="rgb(255, 255, 255)" stroke-width="1.5" stroke-miterlimit="10" fill="none" d="M 15.75,0.19 C 15.78,0.22 18.6,3.05 18.6,3.05 18.9,3.34 18.9,3.82 18.6,4.11 18.31,4.4 17.84,4.4 17.54,4.11 17.47,4.04 17.47,4.04 17.18,3.74 16.93,3.49 16.88,3.44 16.66,3.22 16.39,3.5 15.87,4.01 15.6,4.29 15.54,4.23 15.52,4.43 15.45,4.37 15.45,4.37 15.49,4.39 15.6,4.29 16.51,5.19 16.52,5.21 16.84,5.52 17.52,6.21 17.52,7.31 16.84,8 L 9.77,15.07 C 9.28,15.55 8.57,15.7 7.94,15.48 7.73,15.7 7.29,16.13 7.29,16.13 6.61,16.81 5.5,16.81 4.82,16.13 4.68,15.99 4.66,15.97 4.29,15.6 3.62,16.27 1.28,18.6 1.28,18.6 0.99,18.9 0.51,18.9 0.22,18.6 -0.07,18.31 -0.07,17.84 0.22,17.54 0.22,17.54 2.56,15.21 3.22,14.54 3.28,14.59 3.34,14.65 3.4,14.72 3.4,14.72 3.34,14.43 3.22,14.54 2.85,14.16 2.83,14.15 2.69,14.01 2.21,13.52 2.05,12.8 2.29,12.16 2.38,11.93 2.51,11.71 2.69,11.53 2.69,11.53 3.13,11.1 3.34,10.88 3.36,10.94 3.43,10.81 3.45,10.87 3.45,10.87 3.43,10.97 3.44,10.9 3.46,10.77 3.41,10.81 3.34,10.88 3.12,10.26 3.27,9.54 3.76,9.06 L 10.83,1.99 C 11.01,1.8 11.23,1.66 11.47,1.58 12.08,1.36 12.8,1.49 13.3,1.99 13.61,2.3 13.63,2.32 14.54,3.22 14.81,2.95 15.33,2.44 15.6,2.16 15.65,2.22 15.95,2.37 15.95,2.37 15.95,2.37 15.71,2.06 15.6,2.16 14.96,1.52 14.94,1.51 14.72,1.28 14.42,0.99 14.42,0.51 14.72,0.22 15.01,-0.07 15.48,-0.07 15.78,0.22 L 15.75,0.19 Z M 16.66,3.22 C 16.77,3.12 16.45,2.87 16.45,2.87 16.45,2.87 16.75,3.05 16.66,3.05 16.66,3.05 16.61,3.18 16.66,3.22 Z M 14.54,3.22 C 14.43,3.33 14.95,3.37 14.95,3.37 15.25,3.31 14.59,3.28 14.54,3.22 Z M 14.95,0.37 C 14.84,0.48 14.97,0.83 15.07,0.93 15.31,1.17 15.31,1.17 16.13,1.99 L 16.31,2.16 16.13,2.34 14.72,3.76 14.54,3.93 C 14.54,3.93 13.28,2.67 12.95,2.34 12.65,2.04 12.23,1.92 11.84,2 11.6,2.04 11.37,2.15 11.18,2.34 L 4.11,9.41 C 3.73,9.79 3.64,10.36 3.86,10.83 L 3.94,10.99 3.82,11.12 3.05,11.89 C 2.92,12.02 2.82,12.17 2.76,12.33 2.59,12.79 2.7,13.31 3.05,13.65 3.21,13.81 3.21,13.81 3.76,14.36 L 3.93,14.54 3.76,14.72 0.57,17.9 C 0.48,17.99 0.48,18.15 0.57,18.25 0.67,18.35 0.83,18.35 0.93,18.25 L 4.11,15.07 4.29,14.89 4.46,15.07 C 5.01,15.62 5.01,15.62 5.17,15.78 5.66,16.26 6.45,16.26 6.94,15.78 L 7.7,15.01 7.83,14.88 7.99,14.96 C 8.46,15.19 9.03,15.09 9.41,14.72 L 16.48,7.64 C 16.97,7.16 16.97,6.36 16.48,5.88 16.15,5.55 16.15,5.55 15.07,4.46 L 14.89,4.29 15.07,4.11 16.48,2.69 16.66,2.52 16.84,2.69 C 17.22,3.08 17.22,3.08 17.53,3.39 17.83,3.68 17.83,3.68 17.9,3.76 17.99,3.85 18.15,3.85 18.25,3.76 18.35,3.66 18.35,3.5 18.25,3.4 L 15.42,0.57 C 15.32,0.48 15.17,0.48 15.07,0.57 L 14.95,0.37 Z M 8.06,15.36 C 7.85,15.4 7.95,15.37 7.95,15.37 8.01,15.4 7.88,15.46 7.94,15.48 8.01,15.41 8.06,15.36 8.06,15.36 Z M 4.11,15.42 C 4.18,15.49 4.23,15.55 4.29,15.6 4.4,15.49 4.11,15.42 4.11,15.42 Z M 4.11,15.42" transform="translate(1, -13.31) rotate(45)"  />
                <path id="prepareMeds-bezier3" stroke="none" fill="rgb(90, 70, 128)" d="M 7.25,-3 L 4.75,-3 C 4.75,-3 4.75,-2.45 4.75,-1.92 4.75,-1.45 4.75,-1 4.75,-1 4.75,-0.72 4.53,-0.5 4.25,-0.5 3.97,-0.5 3.75,-0.72 3.75,-1 3.75,-1 3.75,-1.89 3.75,-2.49 3.75,-2.78 3.75,-3 3.75,-3 L 2.75,-3 2.75,-1 C 2.75,-0.72 2.53,-0.5 2.25,-0.5 1.97,-0.5 1.75,-0.72 1.75,-1 L 1.75,-3 0.75,-3 0.75,-1 C 0.75,-0.72 0.53,-0.5 0.25,-0.5 -0.03,-0.5 -0.25,-0.72 -0.25,-1 L -0.25,-3 -1.25,-3 -1.25,-1 C -1.25,-0.72 -1.47,-0.5 -1.75,-0.5 -2.03,-0.5 -2.25,-0.72 -2.25,-1 L -2.25,-3 -2.75,-3 C -3.03,-3 -3.25,-2.78 -3.25,-2.5 -3.25,-2 -3.25,-2 -3.25,-1.5 -3.25,0.61 -3.25,0.61 -3.25,2.5 -3.25,2.78 -3.03,3 -2.75,3 L 7.25,3 C 7.53,3 7.75,2.78 7.75,2.5 L 7.75,-2.5 C 7.75,-2.78 7.53,-3 7.25,-3 Z M -4.25,-2 L -5.25,-2 C -5.53,-2 -5.75,-1.78 -5.75,-1.5 -5.75,-1.5 -5.75,-0.75 -5.75,-0 -5.75,0.75 -5.75,1.5 -5.75,1.5 -5.75,1.78 -5.53,2 -5.25,2 L -4.25,2 C -4.25,1.53 -4.25,1.19 -4.25,0.89 -4.25,0.28 -4.25,-0.23 -4.25,-1.5 -4.25,-1.75 -4.25,-1.88 -4.25,-2 Z M 8.75,-2.5 C 8.75,-2.5 8.75,-1.56 8.75,-0.5 L 10.75,-0.5 C 10.75,-1.31 10.75,-2 10.75,-2 10.75,-2.28 10.97,-2.5 11.25,-2.5 11.53,-2.5 11.75,-2.28 11.75,-2 L 11.75,2 C 11.75,2.28 11.53,2.5 11.25,2.5 10.97,2.5 10.75,2.28 10.75,2 10.75,2 10.75,1.8 10.75,1.49 10.75,1.22 10.75,0.87 10.75,0.5 L 8.75,0.5 C 8.75,1.56 8.75,2.5 8.75,2.5 8.75,3.33 8.08,4 7.25,4 L -2.75,4 C -3.4,4 -3.96,3.58 -4.16,3 L -5.25,3 C -6.08,3 -6.75,2.33 -6.75,1.5 -6.75,1.5 -6.75,1.05 -6.75,0.5 L -11.25,0.5 C -11.53,0.5 -11.75,0.28 -11.75,-0 -11.75,-0.28 -11.53,-0.5 -11.25,-0.5 L -6.75,-0.5 C -6.75,-1.05 -6.75,-1.5 -6.75,-1.5 -6.75,-2.11 -6.39,-2.63 -5.87,-2.86 -5.68,-2.95 -5.47,-3 -5.25,-3 L -4.16,-3 C -3.96,-3.58 -3.4,-4 -2.75,-4 L 7.25,-4 C 8.08,-4 8.75,-3.33 8.75,-2.5 Z M 8.75,-2.5" />
            </g>
        </g>
    </g>
</svg>
