<?xml version="1.0" encoding="UTF-8"?>
<!DOCTYPE svg PUBLIC "-//W3C//DTD SVG 1.1//EN" "http://www.w3.org/Graphics/SVG/1.1/DTD/svg11.dtd">
<svg version="1.1" xmlns="http://www.w3.org/2000/svg" xmlns:xlink="http://www.w3.org/1999/xlink" width="24" height="24"  xml:space="preserve" id="routes_Icon">
    <!-- Generated by PaintCode - http://www.paintcodeapp.com -->
    <g id="routes_Icon-group" transform="translate(1, 1) scale(1.05, 1.05)" >
        <path id="routes_Icon-path4829" stroke="none" fill="rgb(0, 0, 0)" d="M -6.19,8.25 C -7.3,8.25 -8.42,8.06 -9.5,7.68 -8.91,4.36 -6.51,1.65 -3.32,0.52 L -3.32,0.52 -3.32,0.51 C -3.9,-2.73 -2.67,-6.1 0,-8.25 2.67,-6.09 3.9,-2.72 3.32,0.52 6.51,1.65 8.91,4.36 9.5,7.68 6.24,8.84 2.61,8.19 0,6.08 L 0,6.08 -0,6.08 C -1.74,7.49 -3.95,8.25 -6.19,8.25 L -6.19,8.25 Z M -6.1,6.69 C -4.31,6.67 -2.56,6.08 -1.15,4.98 -1.52,4.55 -1.87,4.08 -2.17,3.58 -2.47,3.08 -2.71,2.56 -2.91,2.03 -5.04,2.83 -6.74,4.5 -7.54,6.58 -7.06,6.66 -6.58,6.7 -6.1,6.69 Z M 6.18,6.69 C 6.63,6.69 7.09,6.66 7.54,6.58 6.74,4.5 5.05,2.83 2.91,2.03 2.71,2.56 2.47,3.08 2.17,3.58 1.87,4.08 1.52,4.55 1.15,4.98 2.58,6.09 4.36,6.69 6.18,6.69 Z M -0,3.88 L 0,3.88 C 0.28,3.55 0.54,3.19 0.77,2.8 1,2.42 1.2,2.02 1.35,1.61 0.91,1.54 0.46,1.5 -0,1.5 -0.46,1.5 -0.91,1.54 -1.35,1.61 -1.2,2.02 -1,2.42 -0.77,2.8 -0.54,3.19 -0.28,3.55 -0,3.88 Z M -1.76,0.1 C -1.19,0 -0.6,-0.05 -0,-0.05 0.6,-0.05 1.19,0 1.76,0.1 2.11,-2.09 1.47,-4.34 0,-6.06 -1.47,-4.35 -2.11,-2.09 -1.76,0.1 L -1.76,0.1 Z M -1.76,0.1" transform="translate(10.5, 10)"  />
    </g>
</svg>
