<?xml version="1.0" encoding="UTF-8"?>
<!DOCTYPE svg PUBLIC "-//W3C//DTD SVG 1.1//EN" "http://www.w3.org/Graphics/SVG/1.1/DTD/svg11.dtd">
<svg version="1.1" xmlns="http://www.w3.org/2000/svg" xmlns:xlink="http://www.w3.org/1999/xlink" width="24" height="24"  xml:space="preserve" id="self_Administration_Or_Perfusion_Pump">
    <!-- Generated by PaintCode - http://www.paintcodeapp.com -->
    <path id="self_Administration_Or_Perfusion_Pump-bezier54" stroke="rgb(71, 51, 109)" stroke-width="1" stroke-miterlimit="10" fill="none" d="M 15.67,14.53 C 15.67,14.53 18.7,15.84 20.42,16.53 22.14,17.22 22.17,18.43 22.17,19.46 L 22.17,22.03 13.67,22.03 2.17,22.03 2.17,19.46 C 2.17,18.43 2.69,17.22 4.42,16.53 6.14,15.84 9.54,14.53 9.54,14.53 M 12.67,15.53 C 15.43,15.53 16.67,12.93 16.67,11.53 17.7,11.18 18.67,8.53 17.67,7.53 18.67,5.53 17.7,4.93 16.67,3.53 15.63,2.13 14.05,1.53 12.67,1.53 11.29,1.53 9.7,2.13 8.67,3.53 7.63,4.93 6.67,5.53 7.67,7.53 6.67,8.53 7.64,11.18 8.67,11.53 8.67,12.93 9.91,15.53 12.67,15.53 Z M 12.67,15.53" />
</svg>
