<?xml version="1.0" encoding="UTF-8"?>
<!DOCTYPE svg PUBLIC "-//W3C//DTD SVG 1.1//EN" "http://www.w3.org/Graphics/SVG/1.1/DTD/svg11.dtd">
<svg version="1.1" xmlns="http://www.w3.org/2000/svg" xmlns:xlink="http://www.w3.org/1999/xlink" width="24" height="24"  xml:space="preserve" id="zoom_Icon">
    <!-- Generated by PaintCode - http://www.paintcodeapp.com -->
    <g id="zoom_Icon-group2" transform="translate(2, 2) scale(0.8, 0.8)" >
        <circle id="zoom_Icon-oval" stroke="none" fill="rgb(255, 255, 255)" cx="9" cy="9" r="8" />
        <g id="zoom_Icon-group">
            <path id="zoom_Icon-bezier4" stroke="none" fill="rgb(34, 11, 91)" d="M 9.8,5 C 9.8,5 9.8,6.72 9.8,8.6 L 13.4,8.6 C 13.73,8.6 14,8.87 14,9.2 14,9.53 13.73,9.8 13.4,9.8 L 9.8,9.8 C 9.8,11.68 9.8,13.4 9.8,13.4 9.8,13.73 9.53,14 9.2,14 8.87,14 8.6,13.73 8.6,13.4 8.6,13.4 8.6,12.79 8.6,11.9 8.6,11.29 8.6,10.56 8.6,9.8 L 5,9.8 C 4.67,9.8 4.4,9.53 4.4,9.2 4.4,9.12 4.42,9.04 4.45,8.97 4.54,8.75 4.75,8.6 5,8.6 L 8.6,8.6 C 8.6,6.72 8.6,5 8.6,5 8.6,4.67 8.87,4.4 9.2,4.4 9.53,4.4 9.8,4.67 9.8,5 Z M 9.8,5" />
            <path id="zoom_Icon-bezier2" stroke="none" fill="rgb(34, 11, 91)" d="M 9.2,2.3 C 8.21,2.3 7.27,2.51 6.42,2.88 3.99,3.95 2.3,6.38 2.3,9.2 2.3,13.01 5.39,16.1 9.2,16.1 13.01,16.1 16.1,13.01 16.1,9.2 16.1,8.99 16.09,8.78 16.07,8.58 15.76,5.06 12.8,2.3 9.2,2.3 Z M 17.9,9.2 C 17.9,11.28 17.17,13.19 15.96,14.68 16.98,15.7 24.24,22.96 24.24,22.96 24.59,23.32 24.59,23.88 24.24,24.24 23.88,24.59 23.32,24.59 22.96,24.24 22.96,24.24 15.7,16.98 14.68,15.96 13.19,17.17 11.28,17.9 9.2,17.9 4.4,17.9 0.5,14 0.5,9.2 0.5,6.08 2.14,3.35 4.6,1.81 5.94,0.98 7.51,0.5 9.2,0.5 14,0.5 17.9,4.4 17.9,9.2 Z M 17.9,9.2" />
        </g>
    </g>
</svg>
