<?xml version="1.0" encoding="UTF-8"?>
<!DOCTYPE svg PUBLIC "-//W3C//DTD SVG 1.1//EN" "http://www.w3.org/Graphics/SVG/1.1/DTD/svg11.dtd">
<svg version="1.1" xmlns="http://www.w3.org/2000/svg" xmlns:xlink="http://www.w3.org/1999/xlink" width="24" height="24"  xml:space="preserve" id="adjusted_Decrease_Infusion_Rate_Done_Late">
    <!-- Generated by PaintCode - http://www.paintcodeapp.com -->
    <g id="adjusted_Decrease_Infusion_Rate_Done_Late-group">
        <g id="adjusted_Decrease_Infusion_Rate_Done_Late-group2">
            <g id="adjusted_Decrease_Infusion_Rate_Done_Late-group3" transform="scale(2.18, 2.18)" >
                <rect id="adjusted_Decrease_Infusion_Rate_Done_Late-rectangle" stroke="none" fill="rgb(149, 37, 39)" x="1" y="1" width="9" height="9" rx="2" />
                <path id="adjusted_Decrease_Infusion_Rate_Done_Late-border" stroke="rgb(34, 11, 91)" stroke-width="0.25" stroke-miterlimit="10" fill="none" d="M 1,8 C 1,9.1 1.9,10 3,10 L 8,10 C 9.1,10 10,9.1 10,8 L 10,3 C 10,1.9 9.1,1 8,1 L 3,1 C 1.9,1 1,1.9 1,3 L 1,8 Z M 1,8" />
            </g>
            <g id="adjusted_Decrease_Infusion_Rate_Done_Late-group4" transform="translate(2, 2) scale(1.82, 1.82)" >
                <path id="adjusted_Decrease_Infusion_Rate_Done_Late-bezier" stroke="none" fill="rgb(82, 176, 73)" d="M 10,3 L 10,8 C 10,9.1 9.1,10 8,10 L 3,10 3,1 8,1 C 9.1,1 10,1.9 10,3 Z M 10,3" />
                <path id="adjusted_Decrease_Infusion_Rate_Done_Late-border2" stroke="none" fill="rgb(34, 11, 91)" d="M 10.12,3 L 10.12,8 C 10.12,9.17 9.17,10.12 8,10.12 L 3,10.12 2.88,10 2.88,1 3,0.88 8,0.88 C 9.17,0.88 10.12,1.83 10.12,3 Z M 9.88,3 C 9.88,1.96 9.04,1.12 8,1.12 L 3,1.12 3.13,1 3.13,10 3,9.88 8,9.88 C 9.04,9.88 9.88,9.04 9.88,8 L 9.88,3 Z M 9.88,3" />
            </g>
        </g>
        <g id="adjusted_Decrease_Infusion_Rate_Done_Late-group5" transform="" >
            <g id="adjusted_Decrease_Infusion_Rate_Done_Late-group6" transform="translate(3.5, 6) scale(1.7, 1.18)" >
                <g id="adjusted_Decrease_Infusion_Rate_Done_Late-group7" transform="scale(0.71, 1.1)" >
                    <path id="adjusted_Decrease_Infusion_Rate_Done_Late-bezier2" stroke="none" fill="rgb(255, 255, 255)" d="M 8.92,5.78 C 8.92,5.83 8.91,5.88 8.9,5.93 L 10.01,5.92 8.15,9.15 6.29,5.92 7.43,5.92 C 7.42,5.88 7.42,5.83 7.42,5.78 7.42,3.89 5.89,2.36 4,2.36 3.59,2.36 3.25,2.03 3.25,1.61 3.25,1.2 3.59,0.86 4,0.86 6.72,0.86 8.92,3.06 8.92,5.78 Z M 8.92,5.78" />
                </g>
            </g>
        </g>
    </g>
    <g id="adjusted_Decrease_Infusion_Rate_Done_Late-group8" transform="" >
        <g id="adjusted_Decrease_Infusion_Rate_Done_Late-group9" transform="translate(7.5, 14)" >
            <path id="adjusted_Decrease_Infusion_Rate_Done_Late-bezier3" stroke="rgb(149, 37, 39)" stroke-width="0.7" stroke-linecap="round" stroke-linejoin="round" stroke-miterlimit="10" fill="none" d="M 3,1 L 5,5 1,5 3,1 Z M 3,1" />
        </g>
    </g>
</svg>
