<?xml version="1.0" encoding="UTF-8"?>
<!DOCTYPE svg PUBLIC "-//W3C//DTD SVG 1.1//EN" "http://www.w3.org/Graphics/SVG/1.1/DTD/svg11.dtd">
<svg version="1.1" xmlns="http://www.w3.org/2000/svg" xmlns:xlink="http://www.w3.org/1999/xlink" width="24" height="24"  xml:space="preserve" id="adjusted_Maintain_Infusion_Rate_Done_Kit_Change">
    <!-- Generated by PaintCode - http://www.paintcodeapp.com -->
    <g id="adjusted_Maintain_Infusion_Rate_Done_Kit_Change-group">
        <g id="adjusted_Maintain_Infusion_Rate_Done_Kit_Change-group2">
            <g id="adjusted_Maintain_Infusion_Rate_Done_Kit_Change-group3" transform="scale(2.18, 2.18)" >
                <rect id="adjusted_Maintain_Infusion_Rate_Done_Kit_Change-rectangle" stroke="none" fill="rgb(82, 176, 73)" x="1" y="1" width="9" height="9" rx="2" />
                <path id="adjusted_Maintain_Infusion_Rate_Done_Kit_Change-border" stroke="rgb(34, 11, 91)" stroke-width="0.25" stroke-miterlimit="10" fill="none" d="M 1,8 C 1,9.1 1.9,10 3,10 L 8,10 C 9.1,10 10,9.1 10,8 L 10,3 C 10,1.9 9.1,1 8,1 L 3,1 C 1.9,1 1,1.9 1,3 L 1,8 Z M 1,8" />
            </g>
        </g>
        <g id="adjusted_Maintain_Infusion_Rate_Done_Kit_Change-group4" transform="" >
            <g id="adjusted_Maintain_Infusion_Rate_Done_Kit_Change-group5" transform="translate(3.5, 6) scale(1.7, 1.18)" >
                <g id="adjusted_Maintain_Infusion_Rate_Done_Kit_Change-group6" transform="scale(0.71, 1.1)" >
                    <path id="adjusted_Maintain_Infusion_Rate_Done_Kit_Change-bezier2" stroke="none" fill="rgb(255, 255, 255)" d="M 8.93,3.14 C 8.93,3.14 12.15,5 12.15,5 L 8.93,6.86 C 8.93,6.86 8.93,6.37 8.93,5.75 L 3,5.75 C 2.59,5.75 2.25,5.42 2.25,5 2.25,4.59 2.59,4.25 3,4.25 L 8.93,4.25 C 8.93,3.63 8.93,3.14 8.93,3.14 L 8.93,3.14 Z M 8.93,3.14" />
                </g>
            </g>
        </g>
    </g>
    <g id="adjusted_Maintain_Infusion_Rate_Done_Kit_Change-group7" transform="" >
        <g id="adjusted_Maintain_Infusion_Rate_Done_Kit_Change-group8" transform="translate(13, 2) scale(0.38, 0.38)" >
            <path id="adjusted_Maintain_Infusion_Rate_Done_Kit_Change-bezier307" stroke="rgb(34, 11, 91)" stroke-width="1" stroke-linecap="round" stroke-miterlimit="10" fill="none" d="M 6.21,12.53 L 9.76,8.98 M 6.79,11.95 L 9.99,15.14 12.44,15.14 12.38,12.76 9.18,9.56 M 12.44,15.14 L 14.61,17.3 M 17.28,6.22 C 19.83,8.02 16.25,13.64 12.53,8.27 8.25,2.1 4.88,7.21 6.54,9.14 L 7.83,10.54" />
        </g>
    </g>
</svg>
