<?xml version="1.0" encoding="UTF-8"?>
<!DOCTYPE svg PUBLIC "-//W3C//DTD SVG 1.1//EN" "http://www.w3.org/Graphics/SVG/1.1/DTD/svg11.dtd">
<svg version="1.1" xmlns="http://www.w3.org/2000/svg" xmlns:xlink="http://www.w3.org/1999/xlink" width="24" height="24"  xml:space="preserve" id="adjusted_Decrease_Infusion_Rate_Done_Kit_Change">
    <!-- Generated by PaintCode - http://www.paintcodeapp.com -->
    <g id="adjusted_Decrease_Infusion_Rate_Done_Kit_Change-group">
        <g id="adjusted_Decrease_Infusion_Rate_Done_Kit_Change-group2">
            <g id="adjusted_Decrease_Infusion_Rate_Done_Kit_Change-group3" transform="scale(2.18, 2.18)" >
                <rect id="adjusted_Decrease_Infusion_Rate_Done_Kit_Change-rectangle" stroke="none" fill="rgb(82, 176, 73)" x="1" y="1" width="9" height="9" rx="2" />
                <path id="adjusted_Decrease_Infusion_Rate_Done_Kit_Change-border" stroke="rgb(34, 11, 91)" stroke-width="0.25" stroke-miterlimit="10" fill="none" d="M 1,8 C 1,9.1 1.9,10 3,10 L 8,10 C 9.1,10 10,9.1 10,8 L 10,3 C 10,1.9 9.1,1 8,1 L 3,1 C 1.9,1 1,1.9 1,3 L 1,8 Z M 1,8" />
            </g>
        </g>
        <g id="adjusted_Decrease_Infusion_Rate_Done_Kit_Change-group4" transform="" >
            <g id="adjusted_Decrease_Infusion_Rate_Done_Kit_Change-group5" transform="translate(3.5, 6) scale(1.7, 1.18)" >
                <g id="adjusted_Decrease_Infusion_Rate_Done_Kit_Change-group6" transform="scale(0.71, 1.1)" >
                    <path id="adjusted_Decrease_Infusion_Rate_Done_Kit_Change-bezier" stroke="none" fill="rgb(255, 255, 255)" d="M 8.92,5.78 C 8.92,5.83 8.91,5.88 8.9,5.93 L 10.01,5.92 8.15,9.15 6.29,5.92 7.43,5.92 C 7.42,5.88 7.42,5.83 7.42,5.78 7.42,3.89 5.89,2.36 4,2.36 3.59,2.36 3.25,2.03 3.25,1.61 3.25,1.2 3.59,0.86 4,0.86 6.72,0.86 8.92,3.06 8.92,5.78 Z M 8.92,5.78" />
                </g>
            </g>
        </g>
    </g>
    <g id="adjusted_Decrease_Infusion_Rate_Done_Kit_Change-group7" transform="" >
        <g id="adjusted_Decrease_Infusion_Rate_Done_Kit_Change-group8" transform="translate(13, 2) scale(0.38, 0.38)" >
            <path id="adjusted_Decrease_Infusion_Rate_Done_Kit_Change-bezier307" stroke="rgb(34, 11, 91)" stroke-width="1" stroke-linecap="round" stroke-miterlimit="10" fill="none" d="M 6.21,12.53 L 9.76,8.98 M 6.79,11.95 L 9.99,15.14 12.44,15.14 12.38,12.76 9.18,9.56 M 12.44,15.14 L 14.61,17.3 M 17.28,6.22 C 19.83,8.02 16.25,13.64 12.53,8.27 8.25,2.1 4.88,7.21 6.54,9.14 L 7.83,10.54" />
        </g>
    </g>
</svg>
