<?xml version="1.0" encoding="UTF-8"?>
<!DOCTYPE svg PUBLIC "-//W3C//DTD SVG 1.1//EN" "http://www.w3.org/Graphics/SVG/1.1/DTD/svg11.dtd">
<svg version="1.1" xmlns="http://www.w3.org/2000/svg" xmlns:xlink="http://www.w3.org/1999/xlink" width="24" height="24"  xml:space="preserve" id="continuous_Infusion_Syringe_Or_Bag_Changed">
    <!-- Generated by PaintCode - http://www.paintcodeapp.com -->
    <g id="continuous_Infusion_Syringe_Or_Bag_Changed-group">
        <g id="continuous_Infusion_Syringe_Or_Bag_Changed-group2" transform="scale(2.18, 2.18)" >
            <rect id="continuous_Infusion_Syringe_Or_Bag_Changed-rectangle" stroke="none" fill="rgb(82, 176, 73)" x="1" y="1" width="9" height="9" rx="2" />
            <path id="continuous_Infusion_Syringe_Or_Bag_Changed-border" stroke="rgb(34, 11, 91)" stroke-width="0.25" stroke-miterlimit="10" fill="none" d="M 1,8 C 1,9.1 1.9,10 3,10 L 8,10 C 9.1,10 10,9.1 10,8 L 10,3 C 10,1.9 9.1,1 8,1 L 3,1 C 1.9,1 1,1.9 1,3 L 1,8 Z M 1,8" />
        </g>
    </g>
    <g id="continuous_Infusion_Syringe_Or_Bag_Changed-group3" transform="" >
        <path id="continuous_Infusion_Syringe_Or_Bag_Changed-bezier309" stroke="rgb(34, 11, 91)" stroke-width="1" stroke-linecap="round" stroke-miterlimit="10" fill="none" d="M 7.5,10.91 L 11.68,6.75 M 8.19,10.23 L 11.94,13.97 14.83,13.97 14.75,11.18 10.99,7.44 M 14.83,13.97 L 17.37,16.5 M 9.59,8.83 L 7.7,6.95" />
    </g>
</svg>
