<?xml version="1.0" encoding="UTF-8"?>
<!DOCTYPE svg PUBLIC "-//W3C//DTD SVG 1.1//EN" "http://www.w3.org/Graphics/SVG/1.1/DTD/svg11.dtd">
<svg version="1.1" xmlns="http://www.w3.org/2000/svg" xmlns:xlink="http://www.w3.org/1999/xlink" width="24" height="24"  xml:space="preserve" id="increase_Infusion_Rate_Done">
    <!-- Generated by PaintCode - http://www.paintcodeapp.com -->
    <g id="increase_Infusion_Rate_Done-group">
        <g id="increase_Infusion_Rate_Done-group2" transform="scale(2.18, 2.18)" >
            <rect id="increase_Infusion_Rate_Done-rectangle" stroke="none" fill="rgb(82, 176, 73)" x="1" y="1" width="9" height="9" rx="2" />
            <path id="increase_Infusion_Rate_Done-border" stroke="rgb(34, 11, 91)" stroke-width="0.25" stroke-miterlimit="10" fill="none" d="M 1,8 C 1,9.1 1.9,10 3,10 L 8,10 C 9.1,10 10,9.1 10,8 L 10,3 C 10,1.9 9.1,1 8,1 L 3,1 C 1.9,1 1,1.9 1,3 L 1,8 Z M 1,8" />
        </g>
    </g>
    <g id="increase_Infusion_Rate_Done-group3" transform="" >
        <g id="increase_Infusion_Rate_Done-group4" transform="translate(3.5, 5) scale(1.7, 1.18)" >
            <g id="increase_Infusion_Rate_Done-group5" transform="scale(0.71, 1.1)" >
                <path id="increase_Infusion_Rate_Done-bezier" stroke="none" fill="rgb(255, 255, 255)" d="M 8.15,0.85 C 8.15,0.85 10.01,4.08 10.01,4.08 L 8.9,4.08 C 8.91,4.12 8.92,4.17 8.92,4.22 8.92,6.94 6.72,9.14 4,9.14 3.59,9.14 3.25,8.8 3.25,8.39 3.25,7.97 3.59,7.64 4,7.64 5.89,7.64 7.42,6.11 7.42,4.22 7.42,4.17 7.42,4.12 7.43,4.07 L 6.29,4.08 C 6.29,4.08 8.15,0.85 8.15,0.85 L 8.15,0.85 Z M 8.15,0.85" />
            </g>
        </g>
    </g>
</svg>
