<?xml version="1.0" encoding="UTF-8"?>
<!DOCTYPE svg PUBLIC "-//W3C//DTD SVG 1.1//EN" "http://www.w3.org/Graphics/SVG/1.1/DTD/svg11.dtd">
<svg version="1.1" xmlns="http://www.w3.org/2000/svg" xmlns:xlink="http://www.w3.org/1999/xlink" width="24" height="24"  xml:space="preserve" id="increase_Infusion_Rate_Done_Early">
    <!-- Generated by PaintCode - http://www.paintcodeapp.com -->
    <g id="increase_Infusion_Rate_Done_Early-group">
        <g id="increase_Infusion_Rate_Done_Early-group2" transform="scale(2.18, 2.18)" >
            <rect id="increase_Infusion_Rate_Done_Early-rectangle" stroke="none" fill="rgb(149, 37, 39)" x="1" y="1" width="9" height="9" rx="2" />
            <path id="increase_Infusion_Rate_Done_Early-border" stroke="rgb(34, 11, 91)" stroke-width="0.25" stroke-miterlimit="10" fill="none" d="M 1,8 C 1,9.1 1.9,10 3,10 L 8,10 C 9.1,10 10,9.1 10,8 L 10,3 C 10,1.9 9.1,1 8,1 L 3,1 C 1.9,1 1,1.9 1,3 L 1,8 Z M 1,8" />
        </g>
        <g id="increase_Infusion_Rate_Done_Early-group3" transform="translate(2, 2) scale(1.82, 1.82)" >
            <path id="increase_Infusion_Rate_Done_Early-bezier" stroke="none" fill="rgb(82, 176, 73)" d="M 8,1 C 8,1 8,10 8,10 L 3,10 C 1.9,10 1,9.1 1,8 L 1,3 C 1,1.9 1.9,1 3,1 L 8,1 8,1 Z M 8,1" />
            <path id="increase_Infusion_Rate_Done_Early-border2" stroke="none" fill="rgb(34, 11, 91)" d="M 7.88,1 L 8.12,1 8.12,1 8.12,1 C 8.12,1.01 8.12,1.01 8.12,1.01 8.12,1.02 8.12,1.02 8.12,1.03 8.12,1.06 8.12,1.06 8.12,1.1 8.12,1.22 8.12,1.22 8.12,1.39 8.12,1.81 8.12,1.81 8.12,2.41 8.12,3.81 8.12,3.81 8.12,5.5 8.12,8.88 8.12,8.88 8.12,10 L 8,10.12 3,10.12 C 1.83,10.12 0.87,9.17 0.88,8 L 0.88,3 C 0.88,1.83 1.83,0.87 3,0.88 L 8,0.88 8.12,1 8.12,1 8,1 7.88,1 Z M 8.12,1 L 7.88,1 7.88,1 8,1 8,1.12 3,1.12 C 1.96,1.12 1.13,1.96 1.12,3 L 1.12,8 C 1.12,9.04 1.96,9.88 3,9.88 L 8,9.88 7.88,10 C 7.88,8.88 7.88,8.88 7.88,5.5 7.88,3.81 7.88,3.81 7.88,2.41 7.88,1.81 7.88,1.81 7.88,1.39 7.88,1.22 7.88,1.22 7.88,1.1 7.88,1.06 7.88,1.06 7.88,1.03 7.88,1.02 7.88,1.02 7.88,1.01 7.88,1.01 7.88,1.01 7.88,1 L 7.88,1 7.88,1 7.88,1 8.12,1 Z M 8.12,1" />
        </g>
    </g>
    <g id="increase_Infusion_Rate_Done_Early-group4" transform="" >
        <g id="increase_Infusion_Rate_Done_Early-group5" transform="translate(3.5, 5) scale(1.7, 1.18)" >
            <g id="increase_Infusion_Rate_Done_Early-group6" transform="scale(0.71, 1.1)" >
                <path id="increase_Infusion_Rate_Done_Early-bezier2" stroke="none" fill="rgb(255, 255, 255)" d="M 8.15,0.85 C 8.15,0.85 10.01,4.08 10.01,4.08 L 8.9,4.08 C 8.91,4.12 8.92,4.17 8.92,4.22 8.92,6.94 6.72,9.14 4,9.14 3.59,9.14 3.25,8.8 3.25,8.39 3.25,7.97 3.59,7.64 4,7.64 5.89,7.64 7.42,6.11 7.42,4.22 7.42,4.17 7.42,4.12 7.43,4.07 L 6.29,4.08 C 6.29,4.08 8.15,0.85 8.15,0.85 L 8.15,0.85 Z M 8.15,0.85" />
            </g>
        </g>
    </g>
</svg>
