<?xml version="1.0" encoding="UTF-8"?>
<!DOCTYPE svg PUBLIC "-//W3C//DTD SVG 1.1//EN" "http://www.w3.org/Graphics/SVG/1.1/DTD/svg11.dtd">
<svg version="1.1" xmlns="http://www.w3.org/2000/svg" xmlns:xlink="http://www.w3.org/1999/xlink" width="24" height="24"  xml:space="preserve" id="infusion_Completed_Late">
    <!-- Generated by PaintCode - http://www.paintcodeapp.com -->
    <g id="infusion_Completed_Late-group" transform="scale(2.18, 2.18)" >
        <rect id="infusion_Completed_Late-rectangle" stroke="none" fill="rgb(149, 37, 39)" x="1" y="1" width="9" height="9" rx="2" />
        <path id="infusion_Completed_Late-border" stroke="rgb(34, 11, 91)" stroke-width="0.25" stroke-miterlimit="10" fill="none" d="M 1,8 C 1,9.1 1.9,10 3,10 L 8,10 C 9.1,10 10,9.1 10,8 L 10,3 C 10,1.9 9.1,1 8,1 L 3,1 C 1.9,1 1,1.9 1,3 L 1,8 Z M 1,8" />
    </g>
    <g id="infusion_Completed_Late-group2" transform="translate(2, 2) scale(1.82, 1.82)" >
        <path id="infusion_Completed_Late-bezier" stroke="none" fill="rgb(82, 176, 73)" d="M 10,3 L 10,8 C 10,9.1 9.1,10 8,10 L 3,10 3,1 8,1 C 9.1,1 10,1.9 10,3 Z M 10,3" />
        <path id="infusion_Completed_Late-border2" stroke="none" fill="rgb(34, 11, 91)" d="M 10.12,3 L 10.12,8 C 10.12,9.17 9.17,10.12 8,10.12 L 3,10.12 2.88,10 2.88,1 3,0.88 8,0.88 C 9.17,0.88 10.12,1.83 10.12,3 Z M 9.88,3 C 9.88,1.96 9.04,1.12 8,1.12 L 3,1.12 3.13,1 3.13,10 3,9.88 8,9.88 C 9.04,9.88 9.88,9.04 9.88,8 L 9.88,3 Z M 9.88,3" />
    </g>
</svg>
