<?xml version="1.0" encoding="UTF-8"?>
<!DOCTYPE svg PUBLIC "-//W3C//DTD SVG 1.1//EN" "http://www.w3.org/Graphics/SVG/1.1/DTD/svg11.dtd">
<svg version="1.1" xmlns="http://www.w3.org/2000/svg" xmlns:xlink="http://www.w3.org/1999/xlink" width="24" height="24"  xml:space="preserve" id="infusion_Rate_Paused">
    <!-- Generated by PaintCode - http://www.paintcodeapp.com -->
    <g id="infusion_Rate_Paused-group">
        <g id="infusion_Rate_Paused-group2" transform="scale(2.18, 2.18)" >
            <rect id="infusion_Rate_Paused-rectangle" stroke="none" fill="rgb(180, 200, 206)" x="1" y="1" width="9" height="9" rx="2" />
            <path id="infusion_Rate_Paused-border" stroke="rgb(34, 11, 91)" stroke-width="0.25" stroke-miterlimit="10" fill="none" d="M 1,8 C 1,9.1 1.9,10 3,10 L 8,10 C 9.1,10 10,9.1 10,8 L 10,3 C 10,1.9 9.1,1 8,1 L 3,1 C 1.9,1 1,1.9 1,3 L 1,8 Z M 1,8" />
        </g>
    </g>
    <g id="infusion_Rate_Paused-group3" transform="translate(3.5, 3.5) scale(1.55, 1.55)" >
        <path id="infusion_Rate_Paused-oval" stroke="none" fill="rgb(156, 173, 178)" d="M 10,5.5 C 10,7.99 7.99,10 5.5,10 3.01,10 1,7.99 1,5.5 1,3.01 3.01,1 5.5,1 7.99,1 10,3.01 10,5.5 Z M 10,5.5" />
    </g>
    <g id="infusion_Rate_Paused-group4" transform="translate(4, 4) scale(2.67, 2.67)" >
        <path id="infusion_Rate_Paused-bezier3" stroke="none" fill="rgb(255, 255, 255)" d="M 1.5,4.5 L 2.5,4.5 2.5,1.5 1.5,1.5 1.5,4.5 Z M 1.5,4.5" />
        <path id="infusion_Rate_Paused-bezier4" stroke="none" fill="rgb(255, 255, 255)" d="M 3.5,4.5 L 4.5,4.5 4.5,1.5 3.5,1.5 3.5,4.5 Z M 3.5,4.5" />
    </g>
</svg>
