<?xml version="1.0" encoding="UTF-8"?>
<!DOCTYPE svg PUBLIC "-//W3C//DTD SVG 1.1//EN" "http://www.w3.org/Graphics/SVG/1.1/DTD/svg11.dtd">
<svg version="1.1" xmlns="http://www.w3.org/2000/svg" xmlns:xlink="http://www.w3.org/1999/xlink" width="24" height="24"  xml:space="preserve" id="maintain_Infusion_Rate_Late">
    <!-- Generated by PaintCode - http://www.paintcodeapp.com -->
    <g id="maintain_Infusion_Rate_Late-group">
        <g id="maintain_Infusion_Rate_Late-group2" transform="scale(2.18, 2.18)" >
            <rect id="maintain_Infusion_Rate_Late-rectangle" stroke="none" fill="rgb(149, 37, 39)" x="1" y="1" width="9" height="9" rx="2" />
            <path id="maintain_Infusion_Rate_Late-border" stroke="rgb(34, 11, 91)" stroke-width="0.25" stroke-miterlimit="10" fill="none" d="M 1,8 C 1,9.1 1.9,10 3,10 L 8,10 C 9.1,10 10,9.1 10,8 L 10,3 C 10,1.9 9.1,1 8,1 L 3,1 C 1.9,1 1,1.9 1,3 L 1,8 Z M 1,8" />
        </g>
        <g id="maintain_Infusion_Rate_Late-group3" transform="" >
            <g id="maintain_Infusion_Rate_Late-group4" transform="translate(2, 2) scale(2, 2)" >
                <path id="maintain_Infusion_Rate_Late-bezier" stroke="none" fill="rgb(156, 173, 178)" d="M 6,8 C 6,8.55 5.55,9 5,9 4.45,9 4,8.55 4,8 4,7.45 4.45,7 5,7 5.55,7 6,7.45 6,8 Z M 4.25,6 L 5.75,6 6.5,1 3.5,1 4.25,6 Z M 4.25,6" />
            </g>
        </g>
    </g>
    <g id="maintain_Infusion_Rate_Late-group5" transform="" >
        <g id="maintain_Infusion_Rate_Late-group6" transform="translate(3.5, 6) scale(1.7, 1.18)" >
            <g id="maintain_Infusion_Rate_Late-group7" transform="scale(0.71, 1.1)" >
                <path id="maintain_Infusion_Rate_Late-bezier2" stroke="none" fill="rgb(255, 255, 255)" d="M 8.93,3.14 C 8.93,3.14 12.15,5 12.15,5 L 8.93,6.86 C 8.93,6.86 8.93,6.37 8.93,5.75 L 3,5.75 C 2.59,5.75 2.25,5.42 2.25,5 2.25,4.59 2.59,4.25 3,4.25 L 8.93,4.25 C 8.93,3.63 8.93,3.14 8.93,3.14 L 8.93,3.14 Z M 8.93,3.14" />
            </g>
        </g>
    </g>
</svg>
