<?xml version="1.0" encoding="UTF-8"?>
<!DOCTYPE svg PUBLIC "-//W3C//DTD SVG 1.1//EN" "http://www.w3.org/Graphics/SVG/1.1/DTD/svg11.dtd">
<svg version="1.1" xmlns="http://www.w3.org/2000/svg" xmlns:xlink="http://www.w3.org/1999/xlink" width="24" height="24"  xml:space="preserve" id="maintain_Infusion_Rate_Done_Early">
    <!-- Generated by PaintCode - http://www.paintcodeapp.com -->
    <g id="maintain_Infusion_Rate_Done_Early-group">
        <g id="maintain_Infusion_Rate_Done_Early-group2" transform="scale(2.18, 2.18)" >
            <rect id="maintain_Infusion_Rate_Done_Early-rectangle" stroke="none" fill="rgb(149, 37, 39)" x="1" y="1" width="9" height="9" rx="2" />
            <path id="maintain_Infusion_Rate_Done_Early-border" stroke="rgb(34, 11, 91)" stroke-width="0.25" stroke-miterlimit="10" fill="none" d="M 1,8 C 1,9.1 1.9,10 3,10 L 8,10 C 9.1,10 10,9.1 10,8 L 10,3 C 10,1.9 9.1,1 8,1 L 3,1 C 1.9,1 1,1.9 1,3 L 1,8 Z M 1,8" />
        </g>
        <g id="maintain_Infusion_Rate_Done_Early-group3" transform="translate(2, 2) scale(1.82, 1.82)" >
            <path id="maintain_Infusion_Rate_Done_Early-bezier" stroke="none" fill="rgb(82, 176, 73)" d="M 8,1 C 8,1 8,10 8,10 L 3,10 C 1.9,10 1,9.1 1,8 L 1,3 C 1,1.9 1.9,1 3,1 L 8,1 8,1 Z M 8,1" />
            <path id="maintain_Infusion_Rate_Done_Early-border2" stroke="none" fill="rgb(34, 11, 91)" d="M 7.88,1 L 8.12,1 8.12,1 8.12,1 C 8.12,1.01 8.12,1.01 8.12,1.01 8.12,1.02 8.12,1.02 8.12,1.03 8.12,1.06 8.12,1.06 8.12,1.1 8.12,1.22 8.12,1.22 8.12,1.39 8.12,1.81 8.12,1.81 8.12,2.41 8.12,3.81 8.12,3.81 8.12,5.5 8.12,8.88 8.12,8.88 8.12,10 L 8,10.12 3,10.12 C 1.83,10.12 0.87,9.17 0.88,8 L 0.88,3 C 0.88,1.83 1.83,0.87 3,0.88 L 8,0.88 8.12,1 8.12,1 8,1 7.88,1 Z M 8.12,1 L 7.88,1 7.88,1 8,1 8,1.12 3,1.12 C 1.96,1.12 1.13,1.96 1.12,3 L 1.12,8 C 1.12,9.04 1.96,9.88 3,9.88 L 8,9.88 7.88,10 C 7.88,8.88 7.88,8.88 7.88,5.5 7.88,3.81 7.88,3.81 7.88,2.41 7.88,1.81 7.88,1.81 7.88,1.39 7.88,1.22 7.88,1.22 7.88,1.1 7.88,1.06 7.88,1.06 7.88,1.03 7.88,1.02 7.88,1.02 7.88,1.01 7.88,1.01 7.88,1.01 7.88,1 L 7.88,1 7.88,1 7.88,1 8.12,1 Z M 8.12,1" />
        </g>
    </g>
    <g id="maintain_Infusion_Rate_Done_Early-group4" transform="" >
        <g id="maintain_Infusion_Rate_Done_Early-group5" transform="translate(3.5, 6) scale(1.7, 1.18)" >
            <g id="maintain_Infusion_Rate_Done_Early-group6" transform="scale(0.71, 1.1)" >
                <path id="maintain_Infusion_Rate_Done_Early-bezier2" stroke="none" fill="rgb(255, 255, 255)" d="M 8.93,3.14 C 8.93,3.14 12.15,5 12.15,5 L 8.93,6.86 C 8.93,6.86 8.93,6.37 8.93,5.75 L 3,5.75 C 2.59,5.75 2.25,5.42 2.25,5 2.25,4.59 2.59,4.25 3,4.25 L 8.93,4.25 C 8.93,3.63 8.93,3.14 8.93,3.14 L 8.93,3.14 Z M 8.93,3.14" />
            </g>
        </g>
    </g>
</svg>
