<?xml version="1.0" encoding="UTF-8"?>
<!DOCTYPE svg PUBLIC "-//W3C//DTD SVG 1.1//EN" "http://www.w3.org/Graphics/SVG/1.1/DTD/svg11.dtd">
<svg version="1.1" xmlns="http://www.w3.org/2000/svg" xmlns:xlink="http://www.w3.org/1999/xlink" width="25" height="25"  xml:space="preserve" id="dischargeIcon">
    <!-- Generated by PaintCode - http://www.paintcodeapp.com -->
    <g id="dischargeIcon-group" transform="translate(4, 3) scale(1.85, 2)" >
        <path id="dischargeIcon-bezier4" stroke="none" fill="rgb(34, 11, 91)" d="M 6.5,4.25 L 7.5,4.25 9.5,4.25 9.5,4.75 6.5,4.75 6.5,4.25 Z M 6.5,4.75 C 6.17,4.75 6.17,4.25 6.5,4.25 L 9.5,4.25 C 9.83,4.25 9.83,4.75 9.5,4.75 L 7.5,4.75 6.5,4.75 Z M 9.68,4.68 L 8.68,5.68 8.32,5.32 9.32,4.32 9.68,4.68 Z M 9.32,4.32 C 9.56,4.09 9.91,4.44 9.68,4.68 L 8.68,5.68 C 8.44,5.91 8.09,5.56 8.32,5.32 L 9.32,4.32 Z M 9.32,4.68 L 8.32,3.68 8.68,3.32 9.68,4.32 9.32,4.68 Z M 9.68,4.32 C 9.91,4.56 9.56,4.91 9.32,4.68 L 8.32,3.68 C 8.09,3.44 8.44,3.09 8.68,3.32 L 9.68,4.32 Z M 9.68,4.32" />
        <path id="dischargeIcon-bezier2" stroke="none" fill="rgb(34, 11, 91)" d="M 4.92,8.5 L 4.92,2 C 4.92,1.73 4.88,1.66 4.82,1.64 L 0.94,0.74 1.06,0.26 4.95,1.16 C 5.27,1.25 5.42,1.53 5.42,2 L 5.42,8.5 4.92,8.5 Z M 7.25,3.5 C 7.25,3.48 7.25,3.48 7.25,3.39 7.25,3.28 7.25,3.28 7.25,3.13 L 7.25,0.88 C 7.25,0.81 7.19,0.75 7.11,0.75 L 0.89,0.75 C 0.93,0.75 0.93,0.75 0.93,0.75 L 0.93,0.75 C 0.91,0.75 0.91,0.75 0.88,0.76 0.87,0.76 0.87,0.76 0.85,0.76 0.84,0.76 0.83,0.77 0.81,0.78 0.76,0.8 0.76,0.8 0.75,0.81 L 0.75,0.81 C 0.75,0.81 0.75,0.81 0.8,0.78 0.85,0.73 0.85,0.73 0.86,0.72 L 0.86,0.72 C 0.85,0.73 0.85,0.73 0.8,0.79 0.78,0.79 0.77,0.81 0.77,0.82 0.78,0.79 0.78,0.79 0.78,0.79 0.78,0.79 0.78,0.79 0.78,0.79 0.78,0.8 0.78,0.8 0.77,0.83 0.76,0.84 0.76,0.84 0.76,0.84 0.76,0.85 0.76,0.85 0.76,0.85 0.75,0.86 0.75,0.86 0.75,0.86 0.75,0.81 0.75,0.81 0.75,0.81 0.75,0.81 0.75,0.81 0.75,0.82 0.76,0.83 0.76,0.83 0.76,0.86 0.74,0.93 0.74,0.93 0.74,0.95 L 0.74,0.95 C 0.74,0.94 0.74,0.94 0.75,0.88 L 0.75,8.38 C 0.75,8.43 0.79,8.49 0.86,8.5 0.98,8.52 0.98,8.52 1.48,8.62 2.09,8.73 2.4,8.79 2.83,8.88 2.84,8.88 2.84,8.88 2.84,8.88 3.46,9 4.79,9.25 4.78,9.25 4.81,9.25 4.84,9.24 4.87,9.22 4.9,9.2 4.92,9.16 4.92,9.13 L 4.92,8.75 4.92,8.5 5.17,8.5 7.11,8.5 C 7.19,8.5 7.25,8.44 7.25,8.38 L 7.25,6.13 C 7.25,5.83 7.25,5.83 7.25,5.75 L 7.5,5.75 7.75,5.75 C 7.75,5.83 7.75,5.83 7.75,6.13 L 7.25,6.13 C 7.25,5.83 7.25,5.83 7.25,5.75 L 7.75,5.75 C 7.75,5.83 7.75,5.83 7.75,6.13 L 7.75,8.38 C 7.75,8.72 7.46,9 7.11,9 L 5.17,9 5.42,8.75 5.42,9.13 C 5.42,9.32 5.33,9.49 5.18,9.61 5.07,9.7 4.92,9.75 4.78,9.75 4.74,9.75 4.59,9.72 2.75,9.37 2.74,9.37 2.74,9.37 2.74,9.37 2.31,9.28 2,9.23 1.38,9.11 0.89,9.01 0.89,9.01 0.77,8.99 0.47,8.93 0.25,8.68 0.25,8.38 L 0.25,0.88 C 0.26,0.8 0.26,0.8 0.27,0.78 L 0.27,0.78 C 0.26,0.78 0.26,0.78 0.26,0.84 0.26,0.87 0.26,0.87 0.26,0.87 0.26,0.87 0.26,0.87 0.26,0.87 0.25,0.85 0.25,0.85 0.26,0.78 0.26,0.73 0.28,0.7 0.3,0.65 0.3,0.64 0.3,0.64 0.3,0.64 0.3,0.64 0.3,0.64 0.31,0.63 0.3,0.65 0.3,0.65 0.3,0.65 0.3,0.65 0.3,0.65 0.3,0.65 0.3,0.63 0.3,0.63 0.33,0.58 0.37,0.5 0.43,0.44 0.5,0.38 0.45,0.43 0.45,0.43 0.45,0.44 L 0.45,0.44 C 0.45,0.42 0.45,0.42 0.51,0.37 0.57,0.34 0.57,0.34 0.6,0.33 L 0.6,0.33 C 0.59,0.33 0.59,0.33 0.55,0.35 0.61,0.31 0.67,0.29 0.74,0.27 0.78,0.26 0.78,0.26 0.82,0.26 0.8,0.26 0.8,0.26 0.81,0.26 L 0.81,0.26 C 0.83,0.26 0.83,0.26 0.89,0.25 L 7.11,0.25 C 7.46,0.25 7.75,0.53 7.75,0.88 L 7.75,3.13 C 7.75,3.28 7.75,3.28 7.75,3.39 7.75,3.48 7.75,3.48 7.75,3.5 L 7.25,3.5 Z M 7.25,3.5" />
    </g>
</svg>
