<?xml version="1.0" encoding="UTF-8"?>
<!DOCTYPE svg PUBLIC "-//W3C//DTD SVG 1.1//EN" "http://www.w3.org/Graphics/SVG/1.1/DTD/svg11.dtd">
<svg version="1.1" xmlns="http://www.w3.org/2000/svg" xmlns:xlink="http://www.w3.org/1999/xlink" width="24" height="24"  xml:space="preserve" id="documentation">
    <!-- Generated by PaintCode - http://www.paintcodeapp.com -->
    <g id="documentation-group" transform="translate(4.5, 3.5)" >
        <rect id="documentation-rectangle" stroke="none" fill="rgb(255, 255, 255)" x="1" y="1" width="14" height="15" />
        <path id="documentation-bezier" stroke="none" fill="rgb(90, 70, 128)" d="M 3.01,3.02 L 13.01,3.02 13.01,4.02 3.01,4.02 3.01,3.02 Z M 3.01,5.02 L 11.01,5.02 11.01,6.02 3.01,6.02 3.01,5.02 Z M 3.01,7.02 L 8.5,7 8.5,8 3.01,8.02 3.01,7.02 Z M 3.01,9.02 L 12.5,9 12.5,10 3.01,10.02 3.01,9.02 Z M 3.01,11.02 L 11.5,11 11.5,12 3.01,12.02 3.01,11.02 Z M 3.01,13.02 L 13.5,13 13.5,14 3.01,14.02 3.01,13.02 Z M 1.5,15 L 14.5,15 14,15.5 14,1.5 14.5,2 1.5,2 2,1.5 2,15.5 1.5,15 Z M 1.5,16 L 1,16 1,15.5 1,1.5 1,1 1.5,1 14.5,1 15,1 15,1.5 15,15.5 15,16 14.5,16 1.5,16 Z M 1.5,16" />
    </g>
</svg>
