<?xml version="1.0" encoding="UTF-8"?>
<!DOCTYPE svg PUBLIC "-//W3C//DTD SVG 1.1//EN" "http://www.w3.org/Graphics/SVG/1.1/DTD/svg11.dtd">
<svg version="1.1" xmlns="http://www.w3.org/2000/svg" xmlns:xlink="http://www.w3.org/1999/xlink" width="24" height="24"  xml:space="preserve" id="high_alert_medication_with_response">
    <!-- Generated by PaintCode - http://www.paintcodeapp.com -->
    <g id="high_alert_medication_with_response-group" transform="" >
        <g id="high_alert_medication_with_response-group2" transform="translate(2, 2) scale(3.33, 3.33)" >
            <g id="high_alert_medication_with_response-group3" transform="" >
                <path id="high_alert_medication_with_response-bezier45" stroke="none" fill="rgb(149, 37, 39)" d="M 2.28,1.05 C 2.63,0.32 3.35,0.32 3.7,1.05 3.93,1.54 5.16,3.87 5.35,4.26 5.69,4.99 5.45,5.5 4.64,5.5 L 1.34,5.5 C 0.65,5.5 0.29,4.99 0.63,4.26 0.87,3.78 2.05,1.54 2.28,1.05 Z M 2.28,1.05" />
            </g>
            <g id="high_alert_medication_with_response-group4" transform="translate(1, 1.5) scale(0.4, 0.4)" >
                <path id="high_alert_medication_with_response-bezier" stroke="none" fill="rgb(255, 255, 255)" d="M 6,8 C 6,8.55 5.55,9 5,9 4.45,9 4,8.55 4,8 4,7.45 4.45,7 5,7 5.55,7 6,7.45 6,8 Z M 4.25,6 L 5.75,6 6.5,1 3.5,1 4.25,6 Z M 4.25,6" />
            </g>
        </g>
    </g>
    <g id="high_alert_medication_with_response-group5" transform="translate(11, -0) scale(0.5, 0.4)" >
        <g id="high_alert_medication_with_response-group6">
            <path id="high_alert_medication_with_response-bezier2" stroke="none" fill="rgb(237, 159, 51)" d="M 4.24,20.47 C 4.65,19.79 5.12,18.97 5.56,18.18 L 5.66,18 5.49,17.87 C 3.56,16.39 2.5,14.39 2.5,12.24 2.5,7.97 6.76,4.5 12,4.5 17.24,4.5 21.5,7.97 21.5,12.24 21.5,16.51 17.24,19.99 12,19.99 10.88,19.99 9.77,19.82 8.69,19.49 L 8.61,19.47 8.53,19.5 C 7.02,20.04 5.46,20.4 4.24,20.47 Z M 4.24,20.47" />
            <path id="high_alert_medication_with_response-bezier3" stroke="none" fill="rgb(135, 89, 25)" d="M 12,4.52 C 17.22,4.52 21.47,7.98 21.47,12.24 21.47,16.5 17.22,19.97 12,19.97 10.88,19.97 9.77,19.8 8.69,19.47 L 8.52,19.42 8.35,19.48 C 7.02,19.97 5.66,20.3 4.53,20.43 4.88,19.82 5.27,19.14 5.63,18.49 L 5.84,18.11 5.49,17.84 C 3.58,16.36 2.53,14.38 2.53,12.24 2.53,7.98 6.78,4.52 12,4.52 Z M 12,4 C 6.48,4 2,7.69 2,12.24 2,14.61 3.22,16.74 5.16,18.25 4.6,19.27 4.02,20.28 3.58,21 4.95,21 6.83,20.59 8.53,19.97 9.62,20.3 10.78,20.48 12,20.48 17.52,20.48 22,16.79 22,12.24 22,7.69 17.52,4 12,4 L 12,4 Z M 12,4" />
            <path id="high_alert_medication_with_response-bezier4" stroke="none" fill="rgb(255, 255, 254)" d="M 6,11.45 L 10.21,14.93 10.21,12.8 12.32,12.8 C 12.9,12.8 13.37,13.28 13.37,13.87 L 13.37,16 16,16 16,13.87 C 16,11.8 14.35,10.13 12.32,10.13 L 10.21,10.13 10.21,8 6,11.45 Z M 6,11.45" />
        </g>
    </g>
</svg>
