<?xml version="1.0" encoding="UTF-8"?>
<!DOCTYPE svg PUBLIC "-//W3C//DTD SVG 1.1//EN" "http://www.w3.org/Graphics/SVG/1.1/DTD/svg11.dtd">
<svg version="1.1" xmlns="http://www.w3.org/2000/svg" xmlns:xlink="http://www.w3.org/1999/xlink" width="24" height="24"  xml:space="preserve" id="medication_administration_record">
    <!-- Generated by PaintCode - http://www.paintcodeapp.com -->
    <g id="medication_administration_record-group2" transform="translate(12.79, 9.49) rotate(-44.53) scale(0.54, 0.54)" >
        <g id="medication_administration_record-group" transform="translate(0.5, -0.5) rotate(-45)" >
            <path id="medication_administration_record-rectangle" stroke="none" fill="rgb(34, 11, 91)" d="M -9.5,-0 C -9.5,2.35 -7.6,4.25 -5.25,4.25 L 5.25,4.25 C 7.6,4.25 9.5,2.35 9.5,-0 9.5,-2.35 7.6,-4.25 5.25,-4.25 L -5.25,-4.25 C -7.6,-4.25 -9.5,-2.35 -9.5,-0 Z M -10.5,-0 C -10.5,-2.9 -8.15,-5.25 -5.25,-5.25 L 5.25,-5.25 C 8.15,-5.25 10.5,-2.9 10.5,-0 10.5,2.9 8.15,5.25 5.25,5.25 L -5.25,5.25 C -8.15,5.25 -10.5,2.9 -10.5,-0 Z M -10.5,-0" />
            <path id="medication_administration_record-bezier2" stroke="none" fill="rgb(34, 11, 91)" d="M 0.52,-2.5 L 0.52,3 0.02,3.5 C -0.28,3.5 -0.28,3.5 -1.53,3.5 -3.09,3.5 -3.09,3.5 -4.98,3.5 -6.21,3.5 -7.13,2.89 -7.76,1.9 -7.91,1.67 -7.84,1.36 -7.61,1.21 -7.37,1.06 -7.07,1.13 -6.92,1.37 -6.46,2.09 -5.84,2.5 -4.98,2.5 -3.09,2.5 -3.09,2.5 -1.53,2.5 -0.28,2.5 -0.28,2.5 0.02,2.5 L -0.48,3 -0.48,-2.5 C -0.48,-2.78 -0.25,-3 0.02,-3 0.3,-3 0.52,-2.78 0.52,-2.5 Z M 0.52,-2.5" />
        </g>
    </g>
    <g id="medication_administration_record-group3" transform="translate(3, 12) scale(2, 2.25)" >
        <path id="medication_administration_record-bezier56" stroke="none" fill="rgb(34, 11, 91)" d="M 6.45,1.24 L 8.31,0.66 C 8.71,0.59 9.01,0.64 9.23,0.81 9.59,1.08 9.59,1.53 9.21,1.75 9.23,1.74 8.8,2 8.55,2.14 8.12,2.39 7.64,2.63 7.11,2.85 6.62,3.05 6.1,3.24 5.55,3.4 5.28,3.5 4.9,3.53 4.41,3.48 4.27,3.46 4.27,3.46 4.08,3.44 3.92,3.42 3.77,3.41 3.62,3.39 3.23,3.35 2.86,3.31 2.52,3.27 2.32,3.25 2.13,3.23 1.95,3.21 1.38,3.14 0.96,3.08 0.69,3.03 L 0.5,3 0.5,2.82 0.5,0.8 0.5,0.63 0.68,0.59 C 1.4,0.44 2.29,0.48 3.33,0.72 4.36,0.96 5.09,1.13 5.54,1.24 6.07,1.37 6.33,1.63 6.12,1.99 5.99,2.23 5.77,2.33 5.48,2.36 5.39,2.37 5.32,2.37 5.19,2.37 5.16,2.37 5.16,2.37 5.13,2.37 4.95,2.37 4.24,2.3 2.94,2.16 2.81,2.15 2.72,2.04 2.74,1.92 2.75,1.8 2.87,1.72 3,1.73 4.26,1.86 4.98,1.93 5.13,1.93 5.16,1.93 5.16,1.93 5.2,1.93 5.31,1.93 5.37,1.93 5.43,1.93 5.58,1.91 5.66,1.87 5.71,1.79 5.73,1.76 5.7,1.73 5.42,1.66 4.97,1.55 4.24,1.38 3.22,1.15 2.24,0.92 1.43,0.88 0.79,1.02 L 0.97,0.8 0.97,2.82 0.78,2.61 C 1.03,2.65 1.45,2.71 2.01,2.77 2.19,2.79 2.37,2.82 2.57,2.84 2.92,2.88 3.28,2.92 3.68,2.96 3.82,2.97 3.97,2.99 4.13,3.01 4.32,3.03 4.32,3.03 4.47,3.04 4.88,3.08 5.19,3.06 5.39,2.99 5.94,2.83 6.44,2.65 6.92,2.45 7.43,2.23 7.89,2.01 8.31,1.77 8.54,1.64 8.98,1.37 8.96,1.38 9.06,1.32 9.06,1.23 8.94,1.15 8.84,1.07 8.67,1.04 8.42,1.08 L 6.6,1.66 C 6.48,1.69 6.35,1.63 6.31,1.52 6.26,1.4 6.33,1.28 6.45,1.24 Z M 6.45,1.24" />
    </g>
</svg>
