<?xml version="1.0" encoding="UTF-8"?>
<!DOCTYPE svg PUBLIC "-//W3C//DTD SVG 1.1//EN" "http://www.w3.org/Graphics/SVG/1.1/DTD/svg11.dtd">
<svg version="1.1" xmlns="http://www.w3.org/2000/svg" xmlns:xlink="http://www.w3.org/1999/xlink" width="24" height="24"  xml:space="preserve" id="medication_reconciliation">
    <!-- Generated by PaintCode - http://www.paintcodeapp.com -->
    <g id="medication_reconciliation-group" transform="translate(2.5, 2) scale(1.82, 1.82)" >
        <path id="medication_reconciliation-bezier" stroke="none" fill="rgb(34, 11, 91)" d="M 5.5,1.25 C 4.67,1.25 3.89,1.49 3.24,1.9 2.04,2.65 1.25,3.98 1.25,5.5 1.25,7.85 3.15,9.75 5.5,9.75 7.85,9.75 9.75,7.85 9.75,5.5 9.75,3.15 7.85,1.25 5.5,1.25 Z M 10,5.5 C 10,7.99 7.99,10 5.5,10 3.01,10 1,7.99 1,5.5 1,3.93 1.81,2.54 3.03,1.74 3.74,1.27 4.59,1 5.5,1 7.99,1 10,3.01 10,5.5 Z M 10,5.5" />
    </g>
    <g id="medication_reconciliation-group2" transform="translate(6, 5.5) scale(0.54, 0.58)" >
        <g id="medication_reconciliation-group3" transform="translate(12.5, 11.5) rotate(-45)" >
            <path id="medication_reconciliation-rectangle" stroke="none" fill="rgb(34, 11, 91)" d="M -9.5,-0 C -9.5,2.35 -7.6,4.25 -5.25,4.25 L 5.25,4.25 C 7.6,4.25 9.5,2.35 9.5,-0 9.5,-2.35 7.6,-4.25 5.25,-4.25 L -5.25,-4.25 C -7.6,-4.25 -9.5,-2.35 -9.5,-0 Z M -10.5,-0 C -10.5,-2.9 -8.15,-5.25 -5.25,-5.25 L 5.25,-5.25 C 8.15,-5.25 10.5,-2.9 10.5,-0 10.5,2.9 8.15,5.25 5.25,5.25 L -5.25,5.25 C -8.15,5.25 -10.5,2.9 -10.5,-0 Z M -10.5,-0" />
            <path id="medication_reconciliation-bezier2" stroke="none" fill="rgb(34, 11, 91)" d="M 0.52,-2.5 L 0.52,3 0.02,3.5 C -0.28,3.5 -0.28,3.5 -1.53,3.5 -3.09,3.5 -3.09,3.5 -4.98,3.5 -6.21,3.5 -7.13,2.89 -7.76,1.9 -7.91,1.67 -7.84,1.36 -7.61,1.21 -7.37,1.06 -7.07,1.13 -6.92,1.37 -6.46,2.09 -5.84,2.5 -4.98,2.5 -3.09,2.5 -3.09,2.5 -1.53,2.5 -0.28,2.5 -0.28,2.5 0.02,2.5 L -0.48,3 -0.48,-2.5 C -0.48,-2.78 -0.25,-3 0.02,-3 0.3,-3 0.52,-2.78 0.52,-2.5 Z M 0.52,-2.5" />
        </g>
    </g>
</svg>
