<?xml version="1.0" encoding="UTF-8"?>
<!DOCTYPE svg PUBLIC "-//W3C//DTD SVG 1.1//EN" "http://www.w3.org/Graphics/SVG/1.1/DTD/svg11.dtd">
<svg version="1.1" xmlns="http://www.w3.org/2000/svg" xmlns:xlink="http://www.w3.org/1999/xlink" width="24" height="24"  xml:space="preserve" id="nonformularyMedication">
    <!-- Generated by PaintCode - http://www.paintcodeapp.com -->
    <g id="nonformularyMedication-group" transform="translate(4, 3)" >
        <rect id="nonformularyMedication-rectangle" stroke="none" fill="rgb(255, 255, 255)" x="1" y="1" width="14" height="15" />
        <path id="nonformularyMedication-bezier" stroke="none" fill="rgb(90, 70, 128)" d="M 3.01,3.02 L 13.01,3.02 13.01,4.02 3.01,4.02 3.01,3.02 Z M 3.01,5.02 L 11.01,5.02 11.01,6.02 3.01,6.02 3.01,5.02 Z M 3.01,7.02 L 8.5,7 8.5,8 3.01,8.02 3.01,7.02 Z M 3.01,9.02 L 12.5,9 12.5,10 3.01,10.02 3.01,9.02 Z M 3.01,11.02 L 11.5,11 11.5,12 3.01,12.02 3.01,11.02 Z M 3.01,13.02 L 13.5,13 13.5,14 3.01,14.02 3.01,13.02 Z M 1.5,15 L 14.5,15 14,15.5 14,1.5 14.5,2 1.5,2 2,1.5 2,15.5 1.5,15 Z M 1.5,16 L 1,16 1,15.5 1,1.5 1,1 1.5,1 14.5,1 15,1 15,1.5 15,15.5 15,16 14.5,16 1.5,16 Z M 1.5,16" />
    </g>
    <g id="nonformularyMedication-group2" transform="translate(13, 13) scale(0.7, 0.64)" >
        <path id="nonformularyMedication-x2" stroke="rgb(255, 255, 255)" stroke-width="1.5" stroke-linecap="round" stroke-miterlimit="4" fill="none" d="M 6.13,5.46 L 8.94,1 7.24,1 5.53,4.01 C 5.44,4.17 5.34,4.38 5.21,4.64 L 5.19,4.64 C 5.11,4.44 5.01,4.24 4.91,4.04 L 3.26,1 1.41,1 4.16,5.47 1.17,10 2.99,10 4.92,6.7 C 5.01,6.51 5.07,6.36 5.11,6.27 L 5.14,6.27 C 5.2,6.46 5.26,6.6 5.32,6.7 L 7.19,10 9,10 6.13,5.46 Z M 6.13,5.46" />
        <path id="nonformularyMedication-x" stroke="none" fill="rgb(90, 70, 128)" d="M 6.13,5.46 L 8.94,1 7.24,1 5.53,4.01 C 5.44,4.17 5.34,4.38 5.21,4.64 L 5.19,4.64 C 5.11,4.44 5.01,4.24 4.91,4.04 L 3.26,1 1.41,1 4.16,5.47 1.17,10 2.99,10 4.92,6.7 C 5.01,6.51 5.07,6.36 5.11,6.27 L 5.14,6.27 C 5.2,6.46 5.26,6.6 5.32,6.7 L 7.19,10 9,10 6.13,5.46 Z M 6.13,5.46" />
    </g>
</svg>
