<?xml version="1.0" encoding="UTF-8"?>
<!DOCTYPE svg PUBLIC "-//W3C//DTD SVG 1.1//EN" "http://www.w3.org/Graphics/SVG/1.1/DTD/svg11.dtd">
<svg version="1.1" xmlns="http://www.w3.org/2000/svg" xmlns:xlink="http://www.w3.org/1999/xlink" width="24" height="24"  xml:space="preserve" id="nurseResupplyRequest">
    <!-- Generated by PaintCode - http://www.paintcodeapp.com -->
    <g id="nurseResupplyRequest-group" transform="" >
        <rect id="nurseResupplyRequest-rectangle" stroke="none" fill="rgb(255, 255, 254)" x="1.5" y="6.5" width="21" height="15" rx="2" />
        <path id="nurseResupplyRequest-bezier2" stroke="none" fill="rgb(255, 255, 254)" d="M 22.5,19.47 C 22.5,20.6 21.6,21.5 20.5,21.5 L 3.5,21.5 C 2.4,21.5 1.5,20.6 1.5,19.5 1.5,19.5 1.5,14.76 1.5,11.5 L 22.5,11.5 C 22.5,14.76 22.5,19.5 22.5,19.5 L 22.5,19.47 Z M 22.5,19.47" />
        <path id="nurseResupplyRequest-bezier" stroke="none" fill="rgb(255, 255, 254)" d="M 22.5,16.5 C 22.5,18.2 22.5,19.5 22.5,19.5 22.5,20.6 21.6,21.5 20.5,21.5 L 3.5,21.5 C 2.4,21.5 1.5,20.6 1.5,19.5 1.5,19.5 1.5,18.2 1.5,16.5 L 22.5,16.5 Z M 22.5,16.5" />
        <path id="nurseResupplyRequest-bezier3" stroke="rgb(34, 11, 91)" stroke-width="1" stroke-miterlimit="10" fill="none" d="M 1.5,19.5 C 1.5,20.6 2.4,21.5 3.5,21.5 L 20.5,21.5 C 21.6,21.5 22.5,20.6 22.5,19.5 L 22.5,8.5 C 22.5,7.4 21.6,6.5 20.5,6.5 L 3.5,6.5 C 2.4,6.5 1.5,7.4 1.5,8.5 L 1.5,19.5 Z M 18,5.5 L 18,6.5 7,6.5 7,5.5 C 7,3.84 8.34,2.5 10,2.5 L 15,2.5 C 16.66,2.5 18,3.84 18,5.5 Z M 18,5.5" />
    </g>
    <g id="nurseResupplyRequest-group2" transform="translate(4, 9.5) scale(1.42, 1.42)" >
        <path id="nurseResupplyRequest-bezier4" stroke="none" fill="rgb(90, 70, 128)" d="M 3.4,0.36 L 4.11,0.36 4.11,0.36 4.11,0.36 C 4.11,0.36 4.11,0.36 4.11,0.36 4.11,0.36 4.11,0.36 4.11,0.36 4.11,0.38 4.11,0.38 4.11,0.39 4.11,0.44 4.11,0.44 4.11,0.5 4.11,0.67 4.11,0.67 4.11,0.91 4.11,1.49 4.11,1.49 4.11,2.24 L 3.76,1.89 5.65,1.89 6,1.89 6,2.24 6,3.76 6,4.11 5.65,4.11 3.76,4.11 4.11,3.76 C 4.11,5.22 4.11,5.22 4.11,5.65 L 4.11,6 3.76,6 2.24,6 1.89,6 1.89,5.65 C 1.89,5.22 1.89,5.22 1.89,3.76 L 2.24,4.11 0.35,4.11 0,4.11 0,3.76 0,2.24 0,1.89 0.35,1.89 2.24,1.89 1.89,2.24 C 1.89,0.78 1.89,0.78 1.89,0.35 L 1.89,-0 2.24,-0 3.76,-0 4.11,-0 4.11,0.35 4.11,0.36 3.76,0.36 3.4,0.36 Z M 4.11,0.36 L 3.4,0.36 3.4,0.35 3.76,0.35 3.76,0.71 2.24,0.71 2.6,0.35 C 2.6,0.78 2.6,0.78 2.6,2.24 L 2.6,2.6 2.24,2.6 0.35,2.6 0.71,2.24 0.71,3.76 0.35,3.4 2.24,3.4 2.6,3.4 2.6,3.76 C 2.6,5.22 2.6,5.22 2.6,5.65 L 2.24,5.29 3.76,5.29 3.4,5.65 C 3.4,5.22 3.4,5.22 3.4,3.76 L 3.4,3.4 3.76,3.4 5.65,3.4 5.29,3.76 5.29,2.24 5.65,2.6 3.76,2.6 3.4,2.6 3.4,2.24 C 3.4,1.49 3.4,1.49 3.4,0.91 3.4,0.67 3.4,0.67 3.4,0.5 3.4,0.44 3.4,0.44 3.4,0.39 3.4,0.38 3.4,0.38 3.4,0.36 3.4,0.36 3.4,0.36 3.4,0.36 3.4,0.36 3.4,0.36 3.4,0.36 L 3.4,0.36 3.4,0.36 3.4,0.36 4.11,0.36 Z M 4.11,0.36" />
    </g>
</svg>
