<?xml version="1.0" encoding="UTF-8"?>
<!DOCTYPE svg PUBLIC "-//W3C//DTD SVG 1.1//EN" "http://www.w3.org/Graphics/SVG/1.1/DTD/svg11.dtd">
<svg version="1.1" xmlns="http://www.w3.org/2000/svg" xmlns:xlink="http://www.w3.org/1999/xlink" width="24" height="24"  xml:space="preserve" id="pendingApproval">
    <!-- Generated by PaintCode - http://www.paintcodeapp.com -->
    <g id="pendingApproval-group" transform="" >
        <path id="pendingApproval-bezier2" stroke="none" fill="rgb(180, 200, 206)" d="M 17,8 C 17,10.79 14.76,13.04 11.98,13 9.2,12.96 7,10.76 7,8 7,5.24 9.24,2.96 12.02,3 14.76,2.96 17,5.21 17,8 L 17,8 Z M 17,8" />
        <path id="pendingApproval-bezier" stroke="none" fill="rgb(180, 200, 206)" d="M 17.91,8 C 17.91,11.27 15.26,13.92 11.98,13.87 8.7,13.83 6.05,11.23 6.09,7.96 6.09,4.69 8.74,2.04 12.02,2.08 15.3,2.08 17.91,4.73 17.91,8 Z M 19.17,7.2 L 18.71,6.83 C 18.37,6.53 18.25,6.07 18.42,5.69 L 18.63,5.15 C 18.84,4.6 18.54,4.01 18,3.8 17.95,3.8 17.87,3.76 17.83,3.76 L 17.24,3.68 C 16.82,3.59 16.48,3.26 16.4,2.84 L 16.27,2.21 C 16.19,1.66 15.64,1.29 15.09,1.37 15.05,1.37 14.97,1.41 14.92,1.41 L 14.38,1.62 C 13.96,1.75 13.49,1.62 13.24,1.29 L 12.86,0.87 C 12.48,0.45 11.85,0.36 11.39,0.74 11.31,0.78 11.26,0.83 11.22,0.87 L 10.84,1.33 C 10.55,1.66 10.09,1.79 9.66,1.62 L 9.12,1.41 C 8.57,1.2 7.98,1.5 7.77,2.04 7.73,2.08 7.73,2.17 7.73,2.21 L 7.65,2.8 C 7.56,3.22 7.22,3.55 6.8,3.64 L 6.21,3.72 C 5.67,3.8 5.29,4.35 5.37,4.94 5.37,4.98 5.42,5.06 5.42,5.1 L 5.63,5.65 C 5.79,6.07 5.67,6.53 5.33,6.83 L 4.87,7.2 C 4.45,7.58 4.36,8.21 4.74,8.63 4.78,8.67 4.83,8.71 4.87,8.76 L 5.33,9.13 C 5.67,9.43 5.79,9.89 5.63,10.31 L 5.42,10.85 C 5.2,11.4 5.5,11.99 6,12.2 6.05,12.24 6.13,12.24 6.21,12.24 L 6.8,12.32 C 7.22,12.41 7.56,12.74 7.65,13.16 L 7.73,13.75 C 7.86,14.29 8.4,14.67 8.95,14.59 8.99,14.59 9.03,14.55 9.08,14.55 L 9.62,14.34 C 10.04,14.17 10.51,14.29 10.8,14.63 L 11.22,15.13 C 11.6,15.55 12.23,15.64 12.69,15.26 12.74,15.22 12.78,15.17 12.82,15.13 L 13.2,14.67 C 13.49,14.34 13.96,14.21 14.38,14.38 L 14.92,14.59 C 15.47,14.76 16.06,14.5 16.23,13.96 16.23,13.92 16.27,13.83 16.27,13.79 L 16.35,13.2 C 16.44,12.78 16.78,12.45 17.2,12.36 L 17.79,12.28 C 18.33,12.2 18.71,11.65 18.63,11.06 18.63,11.02 18.58,10.94 18.58,10.9 L 18.37,10.31 C 18.21,9.89 18.33,9.43 18.67,9.17 L 19.13,8.8 C 19.55,8.42 19.64,7.79 19.26,7.33 19.26,7.29 19.22,7.24 19.17,7.2 Z M 19.17,7.2" />
        <path id="pendingApproval-bezier4" stroke="none" fill="rgb(180, 200, 206)" d="M 18.56,13 C 18.47,13.05 18.37,13.05 18.28,13.05 L 17.63,13.14 C 17.58,13.14 17.49,13.18 17.49,13.28 L 17.4,13.92 C 17.21,14.93 16.33,15.67 15.3,15.67 15.07,15.67 14.79,15.62 14.56,15.53 L 13.95,15.3 13.91,15.3 C 13.86,15.3 13.81,15.3 13.77,15.35 L 13.35,15.85 C 13.02,16.27 12.51,16.54 12,16.59 L 15.35,22.84 C 15.4,22.98 15.53,23.03 15.67,22.98 15.77,22.94 15.81,22.89 15.81,22.8 L 17.3,18.84 C 17.35,18.7 17.49,18.66 17.58,18.7 L 21.72,19.76 C 21.86,19.81 22,19.72 22,19.58 22,19.53 22,19.44 22,19.39 L 18.56,13 Z M 18.56,13" />
        <path id="pendingApproval-bezier3" stroke="none" fill="rgb(180, 200, 206)" d="M 5.44,13 C 5.53,13.05 5.63,13.05 5.72,13.05 L 6.37,13.14 C 6.42,13.14 6.51,13.18 6.51,13.28 L 6.6,13.92 C 6.79,14.93 7.67,15.67 8.7,15.67 8.93,15.67 9.21,15.62 9.44,15.53 L 10.05,15.3 10.09,15.3 C 10.14,15.3 10.19,15.3 10.23,15.35 L 10.65,15.85 C 10.98,16.27 11.49,16.54 12,16.59 L 8.65,22.84 C 8.6,22.98 8.47,23.03 8.33,22.98 8.23,22.94 8.19,22.89 8.19,22.8 L 6.7,18.84 C 6.65,18.7 6.51,18.66 6.42,18.7 L 2.28,19.76 C 2.14,19.81 2,19.72 2,19.58 2,19.53 2,19.44 2,19.39 L 5.44,13 Z M 5.44,13" />
    </g>
</svg>
