<?xml version="1.0" encoding="UTF-8"?>
<!DOCTYPE svg PUBLIC "-//W3C//DTD SVG 1.1//EN" "http://www.w3.org/Graphics/SVG/1.1/DTD/svg11.dtd">
<svg version="1.1" xmlns="http://www.w3.org/2000/svg" xmlns:xlink="http://www.w3.org/1999/xlink" width="24" height="24"  xml:space="preserve" id="print_Medication_administration_record">
    <!-- Generated by PaintCode - http://www.paintcodeapp.com -->
    <g id="print_Medication_administration_record-group" transform="translate(2, 3) scale(0.83, 0.83)" >
        <path id="print_Medication_administration_record-rectangle" stroke="none" fill="rgb(34, 11, 91)" d="M 6.5,19.55 L 17.5,19.55 17.05,20 17.05,13 17.5,13.45 6.5,13.45 6.95,13 6.95,20 6.5,19.55 Z M 6.5,20.45 L 6.05,20.45 6.05,20 6.05,13 6.05,12.55 6.5,12.55 17.5,12.55 17.95,12.55 17.95,13 17.95,20 17.95,20.45 17.5,20.45 6.5,20.45 Z M 6.5,20.45" />
        <path id="print_Medication_administration_record-bezier4" stroke="none" fill="rgb(34, 11, 91)" d="M 7.05,7 L 7.05,3.5 7.05,3.05 7.5,3.05 16,3.05 16.45,3.05 16.45,3.5 16.45,7 15.55,7 15.55,3.5 16,3.95 7.5,3.95 7.95,3.5 7.95,7 7.05,7 Z M 7.05,7" />
        <path id="print_Medication_administration_record-bezier5" stroke="none" fill="rgb(34, 11, 91)" d="M 6.18,16.45 L 3,16.45 2.55,16.45 2.55,16 2.55,8 2.55,7.55 3,7.55 21,7.55 21.45,7.55 21.45,8 21.45,16 21.45,16.45 21,16.45 17.82,16.45 17.82,15.55 21,15.55 20.55,16 20.55,8 21,8.45 3,8.45 3.45,8 3.45,16 3,15.55 6.18,15.55 6.18,16.45 Z M 6.18,16.45" />
        <path id="print_Medication_administration_record-bezier" stroke="none" fill="rgb(34, 11, 91)" d="M 18.5,11 L 16.5,11 16.5,10 18.5,10 18.5,11 Z M 18.5,11" />
    </g>
</svg>
