<?xml version="1.0" encoding="UTF-8"?>
<!DOCTYPE svg PUBLIC "-//W3C//DTD SVG 1.1//EN" "http://www.w3.org/Graphics/SVG/1.1/DTD/svg11.dtd">
<svg version="1.1" xmlns="http://www.w3.org/2000/svg" xmlns:xlink="http://www.w3.org/1999/xlink" width="24" height="24"  xml:space="preserve" id="reference_height">
    <!-- Generated by PaintCode - http://www.paintcodeapp.com -->
    <g id="reference_height-group">
        <path id="reference_height-bezier" stroke="none" fill="rgb(34, 11, 91)" d="M 18.1,4 C 18.1,4 18.1,5.12 18.1,6.4 L 20.5,6.4 20.5,7.6 18.1,7.6 C 18.1,8.88 18.1,10 18.1,10 L 16.9,10 C 16.9,10 16.9,8.88 16.9,7.6 L 14.5,7.6 14.5,6.4 16.9,6.4 C 16.9,5.12 16.9,4 16.9,4 L 18.1,4 18.1,4 Z M 18.1,4" />
    </g>
    <path id="reference_height-text" stroke="none" fill="rgb(34, 11, 91)" d="M 14.7,19.5 C 14.14,19.5 13.72,19.33 13.43,18.99 13.14,18.65 13,18.16 13,17.52 13,16.87 13.15,16.37 13.45,16.02 13.76,15.67 14.19,15.5 14.76,15.5 15.15,15.5 15.5,15.58 15.81,15.73 L 15.57,16.39 C 15.24,16.25 14.97,16.18 14.76,16.18 14.12,16.18 13.8,16.63 13.8,17.51 13.8,17.95 13.88,18.27 14.04,18.49 14.2,18.71 14.43,18.82 14.74,18.82 15.08,18.82 15.41,18.73 15.72,18.54 L 15.72,19.26 C 15.58,19.35 15.43,19.41 15.28,19.44 15.12,19.48 14.93,19.5 14.7,19.5 Z M 19.68,19.43 L 18.9,19.43 18.9,17.05 C 18.9,16.75 18.85,16.53 18.74,16.39 18.63,16.24 18.47,16.17 18.24,16.17 17.94,16.17 17.72,16.27 17.58,16.48 17.44,16.68 17.37,17.03 17.37,17.51 L 17.37,19.43 16.59,19.43 16.59,15.57 17.2,15.57 17.31,16.08 17.35,16.08 C 17.45,15.89 17.6,15.75 17.79,15.65 17.98,15.55 18.2,15.5 18.43,15.5 18.99,15.5 19.37,15.7 19.55,16.11 L 19.61,16.11 C 19.71,15.92 19.87,15.77 20.06,15.66 20.26,15.55 20.49,15.5 20.74,15.5 21.18,15.5 21.5,15.62 21.7,15.85 21.9,16.08 22,16.44 22,16.91 L 22,19.43 21.22,19.43 21.22,17.05 C 21.22,16.75 21.17,16.53 21.06,16.39 20.95,16.24 20.78,16.17 20.56,16.17 20.26,16.17 20.03,16.27 19.89,16.47 19.75,16.67 19.68,16.97 19.68,17.38 L 19.68,19.43 Z M 19.68,19.43" />
    <path id="reference_height-bezier13" stroke="none" fill="rgb(34, 11, 91)" d="M 12,4 C 12,4 12,4.2 12,4.39 12,4.59 12,4.78 12,4.78 12,7.2 12,20 12,20 L 11,20 C 11,20 11,7.2 11,4.78 11,4.78 5.34,4.78 3,4.78 3,4.98 3,5.24 3,5.56 L 5,5.56 5,6.34 3,6.34 C 3,6.58 3,6.85 3,7.12 L 6,7.12 6,7.9 3,7.9 C 3,8.15 3,8.42 3,8.68 L 5,8.68 5,9.46 3,9.46 C 3,9.72 3,9.98 3,10.24 L 8,10.24 8,11.02 3,11.02 C 3,11.28 3,11.54 3,11.8 L 5,11.8 5,12.59 3,12.59 C 3,12.85 3,13.11 3,13.37 L 6,13.37 6,14.15 3,14.15 C 3,14.41 3,14.67 3,14.93 L 5,14.93 5,15.71 3,15.71 C 3,15.98 3,16.24 3,16.49 L 8,16.49 8,17.27 3,17.27 C 3,17.54 3,17.81 3,18.05 L 6,18.05 6,18.83 3,18.83 C 3,19.56 3,20 3,20 L 2,20 C 2,20 2,19.56 2,18.83 L 2,18.05 C 2,17.81 2,17.54 2,17.27 L 2,16.49 C 2,16.24 2,15.98 2,15.71 L 2,14.93 C 2,14.67 2,14.41 2,14.15 L 2,13.37 C 2,13.11 2,12.85 2,12.59 L 2,11.8 C 2,11.54 2,11.28 2,11.02 L 2,10.24 C 2,9.98 2,9.72 2,9.46 L 2,8.68 C 2,8.42 2,8.15 2,7.9 L 2,7.12 C 2,6.85 2,6.58 2,6.34 2,6.34 2,5.94 2,5.72 2,5.63 2,5.56 2,5.56 2,5.24 2,4.98 2,4.78 2,4.78 2,4.59 2,4.39 2,4.2 2,4 2,4 L 12,4 Z M 12,4" />
</svg>
