<?xml version="1.0" encoding="UTF-8"?>
<!DOCTYPE svg PUBLIC "-//W3C//DTD SVG 1.1//EN" "http://www.w3.org/Graphics/SVG/1.1/DTD/svg11.dtd">
<svg version="1.1" xmlns="http://www.w3.org/2000/svg" xmlns:xlink="http://www.w3.org/1999/xlink" width="24" height="24"  xml:space="preserve" id="therapy_overview">
    <!-- Generated by PaintCode - http://www.paintcodeapp.com -->
    <g id="therapy_overview-group" transform="translate(4, 4)" >
        <g id="therapy_overview-group2" transform="scale(1.6, 1.6)" >
            <path id="therapy_overview-rectangle" stroke="none" fill="rgb(34, 11, 91)" d="M 0.5,9.25 L 9.5,9.25 9.25,9.5 9.25,1 9.5,1.25 0.5,1.25 0.75,1 0.75,9.5 0.5,9.25 Z M 0.5,9.75 L 0.25,9.75 0.25,9.5 0.25,1 0.25,0.75 0.5,0.75 9.5,0.75 9.75,0.75 9.75,1 9.75,9.5 9.75,9.75 9.5,9.75 0.5,9.75 Z M 0.5,9.75" />
            <path id="therapy_overview-bezier" stroke="none" fill="rgb(34, 11, 91)" d="M 2.25,0.25 L 2.25,1.75 1.75,1.75 1.75,0.25 2.25,0.25 Z M 2.25,0.25" />
            <path id="therapy_overview-bezier2" stroke="none" fill="rgb(34, 11, 91)" d="M 4.25,0.25 L 4.25,1.75 3.75,1.75 3.75,0.25 4.25,0.25 Z M 4.25,0.25" />
            <path id="therapy_overview-bezier3" stroke="none" fill="rgb(34, 11, 91)" d="M 6.25,0.25 L 6.25,1.75 5.75,1.75 5.75,0.25 6.25,0.25 Z M 6.25,0.25" />
            <path id="therapy_overview-bezier4" stroke="none" fill="rgb(34, 11, 91)" d="M 8.25,0.25 L 8.25,1.75 7.75,1.75 7.75,0.25 8.25,0.25 Z M 8.25,0.25" />
            <path id="therapy_overview-bezier5" stroke="none" fill="rgb(34, 11, 91)" d="M 0.5,2.5 L 9.5,2.5 9.5,3 0.5,3 0.5,2.5 Z M 0.5,2.5" />
        </g>
        <g id="therapy_overview-group3" transform="translate(2, 4) scale(0.5, 0.5)" >
            <g id="therapy_overview-group4" transform="translate(12.5, 11.5) rotate(-45)" >
                <path id="therapy_overview-rectangle2" stroke="none" fill="rgb(34, 11, 91)" d="M -9.5,-0 C -9.5,2.35 -7.6,4.25 -5.25,4.25 L 5.25,4.25 C 7.6,4.25 9.5,2.35 9.5,-0 9.5,-2.35 7.6,-4.25 5.25,-4.25 L -5.25,-4.25 C -7.6,-4.25 -9.5,-2.35 -9.5,-0 Z M -10.5,-0 C -10.5,-2.9 -8.15,-5.25 -5.25,-5.25 L 5.25,-5.25 C 8.15,-5.25 10.5,-2.9 10.5,-0 10.5,2.9 8.15,5.25 5.25,5.25 L -5.25,5.25 C -8.15,5.25 -10.5,2.9 -10.5,-0 Z M -10.5,-0" />
                <path id="therapy_overview-bezier6" stroke="none" fill="rgb(34, 11, 91)" d="M 0.52,-2.5 L 0.52,3 0.02,3.5 C -0.28,3.5 -0.28,3.5 -1.53,3.5 -3.09,3.5 -3.09,3.5 -4.98,3.5 -6.21,3.5 -7.13,2.89 -7.76,1.9 -7.91,1.67 -7.84,1.36 -7.61,1.21 -7.37,1.06 -7.07,1.13 -6.92,1.37 -6.46,2.09 -5.84,2.5 -4.98,2.5 -3.09,2.5 -3.09,2.5 -1.53,2.5 -0.28,2.5 -0.28,2.5 0.02,2.5 L -0.48,3 -0.48,-2.5 C -0.48,-2.78 -0.25,-3 0.02,-3 0.3,-3 0.52,-2.78 0.52,-2.5 Z M 0.52,-2.5" />
            </g>
        </g>
    </g>
</svg>
