<?xml version="1.0" encoding="UTF-8"?>
<!DOCTYPE svg PUBLIC "-//W3C//DTD SVG 1.1//EN" "http://www.w3.org/Graphics/SVG/1.1/DTD/svg11.dtd">
<svg version="1.1" xmlns="http://www.w3.org/2000/svg" xmlns:xlink="http://www.w3.org/1999/xlink" width="24" height="24"  xml:space="preserve" id="administerPRN">
    <!-- Generated by PaintCode - http://www.paintcodeapp.com -->
    <rect id="administerPRN-rectangle" stroke="none" fill="rgb(255, 255, 255)" x="2" y="2" width="20" height="20" rx="6" />
    <g id="administerPRN-group" transform="scale(2.18, 2.18)" >
        <path id="administerPRN-rectangle2" stroke="none" fill="rgb(34, 11, 91)" d="M 1.32,8.91 C 1.41,9.18 1.6,9.41 1.84,9.56 L 1.58,9.99 C 1.24,9.77 0.98,9.45 0.85,9.08 L 1.32,8.91 Z M 2.36,9.74 C 2.41,9.75 2.45,9.75 2.5,9.75 L 3.2,9.75 3.2,10.25 2.5,10.25 C 2.43,10.25 2.37,10.25 2.31,10.24 L 2.36,9.74 Z M 3.7,9.75 L 4.7,9.75 4.7,10.25 3.7,10.25 3.7,9.75 Z M 5.2,9.75 L 6.2,9.75 6.2,10.25 5.2,10.25 5.2,9.75 Z M 6.7,9.75 L 7.7,9.75 7.7,10.25 6.7,10.25 6.7,9.75 Z M 8.2,9.75 L 8.5,9.75 C 8.7,9.75 8.9,9.7 9.07,9.61 L 9.3,10.06 C 9.05,10.18 8.78,10.25 8.5,10.25 L 8.2,10.25 8.2,9.75 Z M 9.42,9.35 C 9.61,9.14 9.73,8.87 9.75,8.58 L 10.25,8.61 C 10.22,9.02 10.06,9.39 9.79,9.69 L 9.42,9.35 Z M 9.75,8.09 L 9.75,7.09 10.25,7.09 10.25,8.09 9.75,8.09 Z M 9.75,6.59 L 9.75,5.59 10.25,5.59 10.25,6.59 9.75,6.59 Z M 9.75,5.09 L 9.75,4.09 10.25,4.09 10.25,5.09 9.75,5.09 Z M 9.75,3.59 L 9.75,2.59 10.25,2.59 10.25,3.59 9.75,3.59 Z M 9.7,2.16 C 9.63,1.89 9.46,1.65 9.22,1.48 L 9.52,1.07 C 9.84,1.31 10.08,1.64 10.19,2.03 L 9.7,2.16 Z M 8.74,1.27 C 8.66,1.26 8.58,1.25 8.5,1.25 L 7.89,1.25 7.89,0.75 8.5,0.75 C 8.61,0.75 8.73,0.76 8.83,0.78 L 8.74,1.27 Z M 7.39,1.25 L 6.39,1.25 6.39,0.75 7.39,0.75 7.39,1.25 Z M 5.89,1.25 L 4.89,1.25 4.89,0.75 5.89,0.75 5.89,1.25 Z M 4.39,1.25 L 3.39,1.25 3.39,0.75 4.39,0.75 4.39,1.25 Z M 2.89,1.25 L 2.5,1.25 C 2.33,1.25 2.16,1.29 2,1.35 L 1.8,0.9 C 2.02,0.8 2.26,0.75 2.5,0.75 L 2.89,0.75 2.89,1.25 Z M 1.64,1.59 C 1.43,1.79 1.3,2.05 1.26,2.34 L 0.77,2.27 C 0.82,1.87 1.01,1.51 1.3,1.23 L 1.64,1.59 Z M 1.25,2.82 L 1.25,3.82 0.75,3.82 0.75,2.82 1.25,2.82 Z M 1.25,4.32 L 1.25,5.32 0.75,5.32 0.75,4.32 1.25,4.32 Z M 1.25,5.82 L 1.25,6.82 0.75,6.82 0.75,5.82 1.25,5.82 Z M 1.25,7.32 L 1.25,8.32 0.75,8.32 0.75,7.32 1.25,7.32 Z M 1.25,7.32" />
    </g>
    <g id="administerPRN-group2" transform="translate(6, 6) scale(2, 2)" >
        <path id="administerPRN-bezier3" stroke="none" fill="rgb(90, 70, 128)" d="M 3.25,0 C 3.25,0 3.25,1.34 3.25,2.75 L 6,2.75 6,3.25 3.25,3.25 C 3.25,4.66 3.25,6 3.25,6 L 2.75,6 C 2.75,6 2.75,4.66 2.75,3.25 L 0,3.25 0,2.75 2.75,2.75 C 2.75,1.34 2.75,-0 2.75,-0 L 3.25,-0 3.25,0 Z M 3.25,0" />
    </g>
</svg>
