<?xml version="1.0" encoding="UTF-8"?>
<!DOCTYPE svg PUBLIC "-//W3C//DTD SVG 1.1//EN" "http://www.w3.org/Graphics/SVG/1.1/DTD/svg11.dtd">
<svg version="1.1" xmlns="http://www.w3.org/2000/svg" xmlns:xlink="http://www.w3.org/1999/xlink" width="24" height="24"  xml:space="preserve" id="administrationWithheldByDoctor">
    <!-- Generated by PaintCode - http://www.paintcodeapp.com -->
    <rect id="administrationWithheldByDoctor-rectangle" stroke="none" fill="rgb(255, 255, 255)" x="2" y="2" width="20" height="20" rx="6" />
    <g id="administrationWithheldByDoctor-group" transform="scale(2.18, 2.18)" >
        <path id="administrationWithheldByDoctor-rectangle2" stroke="none" fill="rgb(180, 200, 206)" d="M 1.9,7.75 C 1.9,8.5 2.5,9.1 3.25,9.1 L 7.75,9.1 C 8.5,9.1 9.1,8.5 9.1,7.75 L 9.1,3.25 C 9.1,2.5 8.5,1.9 7.75,1.9 L 3.25,1.9 C 2.5,1.9 1.9,2.5 1.9,3.25 L 1.9,7.75 Z M 1,7.75 L 1,3.25 C 1,2.01 2.01,1 3.25,1 L 7.75,1 C 8.99,1 10,2.01 10,3.25 L 10,7.75 C 10,8.99 8.99,10 7.75,10 L 3.25,10 C 2.01,10 1,8.99 1,7.75 Z M 1,7.75" />
        <path id="administrationWithheldByDoctor-border" stroke="rgb(34, 11, 91)" stroke-width="0.25" stroke-miterlimit="10" fill="none" d="M 1,8 C 1,9.1 1.9,10 3,10 L 8,10 C 9.1,10 10,9.1 10,8 L 10,3 C 10,1.9 9.1,1 8,1 L 3,1 C 1.9,1 1,1.9 1,3 L 1,8 Z M 1,8" />
    </g>
    <g id="administrationWithheldByDoctor-group2" transform="translate(7, 7)" >
        <path id="administrationWithheldByDoctor-x2" stroke="rgb(255, 255, 255)" stroke-width="1.5" stroke-linecap="round" stroke-miterlimit="4" fill="none" d="M 6.13,5.46 L 8.94,1 7.24,1 5.53,4.01 C 5.44,4.17 5.34,4.38 5.21,4.64 L 5.19,4.64 C 5.11,4.44 5.01,4.24 4.91,4.04 L 3.26,1 1.41,1 4.16,5.47 1.17,10 2.99,10 4.92,6.7 C 5.01,6.51 5.07,6.36 5.11,6.27 L 5.14,6.27 C 5.2,6.46 5.26,6.6 5.32,6.7 L 7.19,10 9,10 6.13,5.46 Z M 6.13,5.46" />
        <path id="administrationWithheldByDoctor-x" stroke="none" fill="rgb(90, 70, 128)" d="M 6.13,5.46 L 8.94,1 7.24,1 5.53,4.01 C 5.44,4.17 5.34,4.38 5.21,4.64 L 5.19,4.64 C 5.11,4.44 5.01,4.24 4.91,4.04 L 3.26,1 1.41,1 4.16,5.47 1.17,10 2.99,10 4.92,6.7 C 5.01,6.51 5.07,6.36 5.11,6.27 L 5.14,6.27 C 5.2,6.46 5.26,6.6 5.32,6.7 L 7.19,10 9,10 6.13,5.46 Z M 6.13,5.46" />
    </g>
</svg>
