<?xml version="1.0" encoding="UTF-8"?>
<!DOCTYPE svg PUBLIC "-//W3C//DTD SVG 1.1//EN" "http://www.w3.org/Graphics/SVG/1.1/DTD/svg11.dtd">
<svg version="1.1" xmlns="http://www.w3.org/2000/svg" xmlns:xlink="http://www.w3.org/1999/xlink" width="24" height="24"  xml:space="preserve" id="administrationRequiresDoctorsConfirmationLate">
    <!-- Generated by PaintCode - http://www.paintcodeapp.com -->
    <rect id="administrationRequiresDoctorsConfirmationLate-rectangle" stroke="none" fill="rgb(255, 255, 255)" x="2" y="2" width="20" height="20" rx="6" />
    <g id="administrationRequiresDoctorsConfirmationLate-group" transform="scale(2.18, 2.18)" >
        <path id="administrationRequiresDoctorsConfirmationLate-rectangle2" stroke="none" fill="rgb(149, 37, 39)" d="M 1.9,7.75 C 1.9,8.5 2.5,9.1 3.25,9.1 L 7.75,9.1 C 8.5,9.1 9.1,8.5 9.1,7.75 L 9.1,3.25 C 9.1,2.5 8.5,1.9 7.75,1.9 L 3.25,1.9 C 2.5,1.9 1.9,2.5 1.9,3.25 L 1.9,7.75 Z M 1,7.75 L 1,3.25 C 1,2.01 2.01,1 3.25,1 L 7.75,1 C 8.99,1 10,2.01 10,3.25 L 10,7.75 C 10,8.99 8.99,10 7.75,10 L 3.25,10 C 2.01,10 1,8.99 1,7.75 Z M 1,7.75" />
        <path id="administrationRequiresDoctorsConfirmationLate-border" stroke="rgb(34, 11, 91)" stroke-width="0.25" stroke-miterlimit="10" fill="none" d="M 1,8 C 1,9.1 1.9,10 3,10 L 8,10 C 9.1,10 10,9.1 10,8 L 10,3 C 10,1.9 9.1,1 8,1 L 3,1 C 1.9,1 1,1.9 1,3 L 1,8 Z M 1,8" />
    </g>
</svg>
