<?xml version="1.0" encoding="UTF-8"?>
<!DOCTYPE svg PUBLIC "-//W3C//DTD SVG 1.1//EN" "http://www.w3.org/Graphics/SVG/1.1/DTD/svg11.dtd">
<svg version="1.1" xmlns="http://www.w3.org/2000/svg" xmlns:xlink="http://www.w3.org/1999/xlink" width="24" height="24"  xml:space="preserve" id="administration_Defered">
    <!-- Generated by PaintCode - http://www.paintcodeapp.com -->
    <g id="administration_Defered-group" transform="scale(2.18, 2.18)" >
        <rect id="administration_Defered-rectangle" stroke="none" fill="rgb(180, 200, 206)" x="1" y="1" width="9" height="9" rx="2" />
        <path id="administration_Defered-border" stroke="rgb(34, 11, 91)" stroke-width="0.25" stroke-miterlimit="10" fill="none" d="M 1,8 C 1,9.1 1.9,10 3,10 L 8,10 C 9.1,10 10,9.1 10,8 L 10,3 C 10,1.9 9.1,1 8,1 L 3,1 C 1.9,1 1,1.9 1,3 L 1,8 Z M 1,8" />
    </g>
    <path id="administration_Defered-bezier171" stroke="none" fill="rgb(149, 37, 39)" d="M 11.67,16.36 C 12.86,16.36 13.82,15.98 14.53,15.22 15.25,14.45 15.61,13.43 15.61,12.16 15.61,9.49 14.3,8.16 11.67,8.16 L 9.06,8.16 9.06,16.36 11.67,16.36 Z M 11.53,9.66 C 12.27,9.66 12.84,9.89 13.25,10.34 13.65,10.78 13.86,11.4 13.86,12.18 13.86,13.01 13.65,13.66 13.24,14.14 12.83,14.62 12.26,14.86 11.54,14.86 L 10.72,14.86 10.72,9.66 11.53,9.66 Z M 11.53,9.66" />
</svg>
