<?xml version="1.0" encoding="UTF-8"?>
<!DOCTYPE svg PUBLIC "-//W3C//DTD SVG 1.1//EN" "http://www.w3.org/Graphics/SVG/1.1/DTD/svg11.dtd">
<svg version="1.1" xmlns="http://www.w3.org/2000/svg" xmlns:xlink="http://www.w3.org/1999/xlink" width="24" height="24"  xml:space="preserve" id="continuedButModifiedTherapy">
    <!-- Generated by PaintCode - http://www.paintcodeapp.com -->
    <path id="continuedButModifiedTherapy-oval" stroke="none" fill="rgb(34, 11, 91)" d="M 9.25,4.62 C 9.25,7.18 7.18,9.25 4.62,9.25 2.07,9.25 0,7.18 0,4.62 0,2.07 2.07,-0 4.63,-0 7.18,-0 9.25,2.07 9.25,4.62 Z M 9,4.62 C 9,2.21 7.04,0.25 4.63,0.25 2.21,0.25 0.25,2.21 0.25,4.62 0.25,7.04 2.21,9 4.62,9 7.04,9 9,7.04 9,4.62 Z M 9,4.62" transform="translate(1.91, 1.91) scale(2.18, 2.18)"  />
    <g id="continuedButModifiedTherapy-group" transform="translate(4.5, 4.5) scale(2.5, 2.5)" >
        <path id="continuedButModifiedTherapy-bezier4" stroke="none" fill="rgb(237, 159, 51)" d="M 3.82,0.62 C 3.85,0.65 5.85,2.65 5.85,2.65 5.97,2.81 6,2.9 6,3 6,3.14 5.94,3.27 5.84,3.36 5.68,3.52 3.85,5.35 3.85,5.35 3.66,5.55 3.34,5.55 3.15,5.35 2.95,5.16 2.95,4.84 3.15,4.65 3.15,4.65 3.75,4.04 4.29,3.5 L 0.5,3.5 C 0.22,3.5 0,3.28 0,3 0,2.72 0.22,2.5 0.5,2.5 L 4.29,2.5 C 3.92,2.12 3.51,1.72 3.3,1.5 3.2,1.41 3.15,1.35 3.15,1.35 2.95,1.16 2.95,0.84 3.15,0.65 3.19,0.61 3.23,0.58 3.28,0.55 3.46,0.46 3.7,0.49 3.85,0.65 L 3.82,0.62 Z M 3.82,0.62" />
    </g>
</svg>
