<?xml version="1.0" encoding="UTF-8"?>
<!DOCTYPE svg PUBLIC "-//W3C//DTD SVG 1.1//EN" "http://www.w3.org/Graphics/SVG/1.1/DTD/svg11.dtd">
<svg version="1.1" xmlns="http://www.w3.org/2000/svg" xmlns:xlink="http://www.w3.org/1999/xlink" width="24" height="24"  xml:space="preserve" id="dose_Administered_Early_Is_A_Different_Product_From_Prescribed">
    <!-- Generated by PaintCode - http://www.paintcodeapp.com -->
    <g id="dose_Administered_Early_Is_A_Different_Product_From_Prescribed-group5">
        <g id="dose_Administered_Early_Is_A_Different_Product_From_Prescribed-group6">
            <g id="dose_Administered_Early_Is_A_Different_Product_From_Prescribed-group7" transform="scale(2.18, 2.18)" >
                <rect id="dose_Administered_Early_Is_A_Different_Product_From_Prescribed-rectangle" stroke="none" fill="rgb(149, 37, 39)" x="1" y="1" width="9" height="9" rx="2" />
                <path id="dose_Administered_Early_Is_A_Different_Product_From_Prescribed-border" stroke="rgb(34, 11, 91)" stroke-width="0.25" stroke-miterlimit="10" fill="none" d="M 1,8 C 1,9.1 1.9,10 3,10 L 8,10 C 9.1,10 10,9.1 10,8 L 10,3 C 10,1.9 9.1,1 8,1 L 3,1 C 1.9,1 1,1.9 1,3 L 1,8 Z M 1,8" />
            </g>
            <g id="dose_Administered_Early_Is_A_Different_Product_From_Prescribed-group8" transform="" >
                <g id="dose_Administered_Early_Is_A_Different_Product_From_Prescribed-group9" transform="translate(2, 2) scale(2, 2)" >
                    <path id="dose_Administered_Early_Is_A_Different_Product_From_Prescribed-bezier2" stroke="none" fill="rgb(156, 173, 178)" d="M 6,8 C 6,8.55 5.55,9 5,9 4.45,9 4,8.55 4,8 4,7.45 4.45,7 5,7 5.55,7 6,7.45 6,8 Z M 4.25,6 L 5.75,6 6.5,1 3.5,1 4.25,6 Z M 4.25,6" />
                </g>
            </g>
        </g>
        <g id="dose_Administered_Early_Is_A_Different_Product_From_Prescribed-group10" transform="translate(2, 2) scale(1.82, 1.82)" >
            <path id="dose_Administered_Early_Is_A_Different_Product_From_Prescribed-bezier3" stroke="none" fill="rgb(237, 159, 51)" d="M 8,1 C 8,1 8,10 8,10 L 3,10 C 1.9,10 1,9.1 1,8 L 1,3 C 1,1.9 1.9,1 3,1 L 8,1 8,1 Z M 8,1" />
            <path id="dose_Administered_Early_Is_A_Different_Product_From_Prescribed-border2" stroke="none" fill="rgb(237, 159, 51)" d="M 7.88,1 L 8.12,1 8.12,1 8.12,1 C 8.12,1.01 8.12,1.01 8.12,1.01 8.12,1.02 8.12,1.02 8.12,1.03 8.12,1.06 8.12,1.06 8.12,1.1 8.12,1.22 8.12,1.22 8.12,1.39 8.12,1.81 8.12,1.81 8.12,2.41 8.12,3.81 8.12,3.81 8.12,5.5 8.12,8.88 8.12,8.88 8.12,10 L 8,10.12 3,10.12 C 1.83,10.12 0.87,9.17 0.88,8 L 0.88,3 C 0.88,1.83 1.83,0.87 3,0.88 L 8,0.88 8.12,1 8.12,1 8,1 7.88,1 Z M 8.12,1 L 7.88,1 7.88,1 8,1 8,1.12 3,1.12 C 1.96,1.12 1.13,1.96 1.12,3 L 1.12,8 C 1.12,9.04 1.96,9.88 3,9.88 L 8,9.88 7.88,10 C 7.88,8.88 7.88,8.88 7.88,5.5 7.88,3.81 7.88,3.81 7.88,2.41 7.88,1.81 7.88,1.81 7.88,1.39 7.88,1.22 7.88,1.22 7.88,1.1 7.88,1.06 7.88,1.06 7.88,1.03 7.88,1.02 7.88,1.02 7.88,1.01 7.88,1.01 7.88,1.01 7.88,1 L 7.88,1 7.88,1 7.88,1 8.12,1 Z M 8.12,1" />
        </g>
    </g>
    <g id="dose_Administered_Early_Is_A_Different_Product_From_Prescribed-group4" transform="" >
        <g id="dose_Administered_Early_Is_A_Different_Product_From_Prescribed-group" transform="translate(8, 8) scale(1.33, 1.33)" >
            <g id="dose_Administered_Early_Is_A_Different_Product_From_Prescribed-group2" transform="" >
                <path id="dose_Administered_Early_Is_A_Different_Product_From_Prescribed-bezier45" stroke="none" fill="rgb(149, 37, 39)" d="M 2.28,1.05 C 2.63,0.32 3.35,0.32 3.7,1.05 3.93,1.54 5.16,3.87 5.35,4.26 5.69,4.99 5.45,5.5 4.64,5.5 L 1.34,5.5 C 0.65,5.5 0.29,4.99 0.63,4.26 0.87,3.78 2.05,1.54 2.28,1.05 Z M 2.28,1.05" />
            </g>
            <g id="dose_Administered_Early_Is_A_Different_Product_From_Prescribed-group3" transform="translate(1, 1.5) scale(0.4, 0.4)" >
                <path id="dose_Administered_Early_Is_A_Different_Product_From_Prescribed-bezier" stroke="none" fill="rgb(237, 159, 51)" d="M 6,8 C 6,8.55 5.55,9 5,9 4.45,9 4,8.55 4,8 4,7.45 4.45,7 5,7 5.55,7 6,7.45 6,8 Z M 4.25,6 L 5.75,6 6.5,1 3.5,1 4.25,6 Z M 4.25,6" />
            </g>
        </g>
    </g>
</svg>
