<?xml version="1.0" encoding="UTF-8"?>
<!DOCTYPE svg PUBLIC "-//W3C//DTD SVG 1.1//EN" "http://www.w3.org/Graphics/SVG/1.1/DTD/svg11.dtd">
<svg version="1.1" xmlns="http://www.w3.org/2000/svg" xmlns:xlink="http://www.w3.org/1999/xlink" width="24" height="24"  xml:space="preserve" id="blood_Product">
    <!-- Generated by PaintCode - http://www.paintcodeapp.com -->
    <g id="blood_Product-group" transform="translate(2, 2) scale(0.83, 0.83)" >
        <path id="blood_Product-bezier" stroke="rgb(34, 11, 91)" stroke-width="0.75" stroke-miterlimit="10" fill="none" d="M 20,16.55 C 20,19.56 17.59,22 14.62,22 11.64,22 9.23,19.56 9.23,16.55 9.23,13.53 14.62,5.27 14.62,5.27 14.62,5.27 20,13.53 20,16.55 Z M 8.36,17.78 C 6.93,16.8 6,15.15 6,13.27 6,10.26 11.38,2 11.38,2 11.38,2 12.3,3.4 13.37,5.26 M 18.56,16.28 C 18.56,18.63 16.8,20.55 14.62,20.55 13.57,20.55 12.62,20.11 11.91,19.39" />
    </g>
</svg>
