<?xml version="1.0" encoding="UTF-8"?>
<!DOCTYPE svg PUBLIC "-//W3C//DTD SVG 1.1//EN" "http://www.w3.org/Graphics/SVG/1.1/DTD/svg11.dtd">
<svg version="1.1" xmlns="http://www.w3.org/2000/svg" xmlns:xlink="http://www.w3.org/1999/xlink" width="24" height="24"  xml:space="preserve" id="clinical_Trial_Medicine">
    <!-- Generated by PaintCode - http://www.paintcodeapp.com -->
    <g id="clinical_Trial_Medicine-group" clip-path="url(#clinical_Trial_Medicine-rectangle)">
        <clipPath id="clinical_Trial_Medicine-rectangle">
            <rect x="0" y="-24" width="24" height="24"  transform="translate(0, 24)" />
        </clipPath>
        <g id="clinical_Trial_Medicine-group2" transform="translate(4, 3) scale(0.54, 0.54)" >
            <g id="clinical_Trial_Medicine-group3" transform="translate(12.5, 11.5) rotate(-45)" >
                <path id="clinical_Trial_Medicine-rectangle2" stroke="none" fill="rgb(14, 14, 14)" d="M -9.5,-0 C -9.5,2.35 -7.6,4.25 -5.25,4.25 L 5.25,4.25 C 7.6,4.25 9.5,2.35 9.5,-0 9.5,-2.35 7.6,-4.25 5.25,-4.25 L -5.25,-4.25 C -7.6,-4.25 -9.5,-2.35 -9.5,-0 Z M -10.5,-0 C -10.5,-2.9 -8.15,-5.25 -5.25,-5.25 L 5.25,-5.25 C 8.15,-5.25 10.5,-2.9 10.5,-0 10.5,2.9 8.15,5.25 5.25,5.25 L -5.25,5.25 C -8.15,5.25 -10.5,2.9 -10.5,-0 Z M -10.5,-0" />
                <path id="clinical_Trial_Medicine-bezier2" stroke="none" fill="rgb(14, 14, 14)" d="M 0.52,-2.5 L 0.52,3 0.02,3.5 C -0.28,3.5 -0.28,3.5 -1.53,3.5 -3.09,3.5 -3.09,3.5 -4.98,3.5 -6.21,3.5 -7.13,2.89 -7.76,1.9 -7.91,1.67 -7.84,1.36 -7.61,1.21 -7.37,1.06 -7.07,1.13 -6.92,1.37 -6.46,2.09 -5.84,2.5 -4.98,2.5 -3.09,2.5 -3.09,2.5 -1.53,2.5 -0.28,2.5 -0.28,2.5 0.02,2.5 L -0.48,3 -0.48,-2.5 C -0.48,-2.78 -0.25,-3 0.02,-3 0.3,-3 0.52,-2.78 0.52,-2.5 Z M 0.52,-2.5" />
            </g>
        </g>
        <g id="clinical_Trial_Medicine-group4" transform="translate(1, -0)" >
            <path id="clinical_Trial_Medicine-magnifyingGlass" stroke="none" fill="rgb(14, 14, 14)" d="M 9.56,2.84 C 11.21,2.84 12.73,3.4 13.89,4.34 15.33,5.49 16.23,7.2 16.23,9.1 16.23,12.57 13.25,15.37 9.56,15.37 5.88,15.37 2.89,12.57 2.89,9.1 2.89,9.04 2.89,8.98 2.89,8.92 3,5.54 5.94,2.84 9.56,2.84 Z M 2,9.1 C 2,13.03 5.39,16.21 9.56,16.21 10.52,16.21 11.43,16.04 12.27,15.74 13.24,17.09 16.58,21.71 16.68,21.85 17.04,22.14 17.93,22 18.66,21.54 19.4,21.08 19.71,20.47 19.35,20.18 19.35,20.18 18.37,18.87 17.31,17.44 16.33,16.13 15.29,14.73 14.87,14.17 16.26,12.88 17.12,11.09 17.12,9.1 17.12,7.08 16.22,5.26 14.78,3.96 13.43,2.75 11.59,2 9.56,2 5.39,2 2,5.18 2,9.1 Z M 2,9.1" />
        </g>
    </g>
</svg>
