<?xml version="1.0" encoding="UTF-8"?>
<!DOCTYPE svg PUBLIC "-//W3C//DTD SVG 1.1//EN" "http://www.w3.org/Graphics/SVG/1.1/DTD/svg11.dtd">
<svg version="1.1" xmlns="http://www.w3.org/2000/svg" xmlns:xlink="http://www.w3.org/1999/xlink" width="24" height="24"  xml:space="preserve" id="compliance_Aid">
    <!-- Generated by PaintCode - http://www.paintcodeapp.com -->
    <g id="compliance_Aid-group2" clip-path="url(#compliance_Aid-rectangle13)" transform="translate(2, 2) scale(0.83, 0.83)" >
        <clipPath id="compliance_Aid-rectangle13">
            <rect x="0" y="-24" width="24" height="24"  transform="translate(0, 24)" />
        </clipPath>
        <g id="compliance_Aid-group" transform="translate(13.62, 11.37) rotate(48.19)" >
            <rect id="compliance_Aid-rectangle12" stroke="none" fill="rgb(132, 160, 142)" x="6.88" y="-0.88" width="3" height="7" />
            <rect id="compliance_Aid-rectangle11" stroke="none" fill="rgb(165, 178, 171)" x="3.88" y="-0.88" width="3" height="7" />
            <rect id="compliance_Aid-rectangle10" stroke="none" fill="rgb(207, 223, 213)" x="0.88" y="-0.88" width="3" height="7" />
            <rect id="compliance_Aid-rectangle9" stroke="none" fill="rgb(180, 200, 206)" x="-2.12" y="-0.88" width="3" height="7" />
            <rect id="compliance_Aid-rectangle8" stroke="none" fill="rgb(189, 221, 235)" x="-5.12" y="-0.88" width="3" height="7" />
            <rect id="compliance_Aid-rectangle2" stroke="none" fill="rgb(167, 219, 235)" x="-8.12" y="-0.88" width="3" height="7" />
            <rect id="compliance_Aid-rectangle" stroke="none" fill="rgb(85, 154, 199)" x="-11.12" y="-0.88" width="3" height="7" />
            <path id="compliance_Aid-rectangle3" stroke="none" fill="rgb(34, 11, 91)" d="M -8.12,5.88 L -5.12,5.88 -5.38,6.12 -5.38,-0.88 -5.12,-0.62 -8.12,-0.62 -7.88,-0.88 -7.88,6.12 -8.12,5.88 Z M -8.12,6.38 L -8.38,6.38 -8.38,6.12 -8.38,-0.88 -8.38,-1.12 -8.12,-1.12 -5.12,-1.12 -4.88,-1.12 -4.88,-0.88 -4.88,6.12 -4.88,6.38 -5.12,6.38 -8.12,6.38 Z M -8.12,6.38" />
            <path id="compliance_Aid-rectangle4" stroke="none" fill="rgb(34, 11, 91)" d="M -5.12,5.88 L -2.12,5.88 -2.38,6.12 -2.38,-0.88 -2.12,-0.62 -5.12,-0.62 -4.88,-0.88 -4.88,6.12 -5.12,5.88 Z M -5.12,6.38 L -5.38,6.38 -5.38,6.12 -5.38,-0.88 -5.38,-1.12 -5.12,-1.12 -2.12,-1.12 -1.88,-1.12 -1.88,-0.88 -1.88,6.12 -1.88,6.38 -2.12,6.38 -5.12,6.38 Z M -5.12,6.38" />
            <path id="compliance_Aid-rectangle5" stroke="none" fill="rgb(34, 11, 91)" d="M -2.12,5.88 L 0.88,5.88 0.62,6.12 0.62,-0.88 0.88,-0.62 -2.12,-0.62 -1.88,-0.88 -1.88,6.12 -2.12,5.88 Z M -2.12,6.38 L -2.38,6.38 -2.38,6.12 -2.38,-0.88 -2.38,-1.12 -2.12,-1.12 0.88,-1.12 1.12,-1.12 1.12,-0.88 1.12,6.12 1.12,6.38 0.88,6.38 -2.12,6.38 Z M -2.12,6.38" />
            <path id="compliance_Aid-rectangle6" stroke="none" fill="rgb(34, 11, 91)" d="M 0.88,5.88 L 3.88,5.88 3.62,6.12 3.62,-0.88 3.88,-0.62 0.88,-0.62 1.12,-0.88 1.12,6.12 0.88,5.88 Z M 0.88,6.38 L 0.62,6.38 0.62,6.12 0.62,-0.88 0.62,-1.12 0.88,-1.12 3.88,-1.12 4.12,-1.12 4.12,-0.88 4.12,6.12 4.12,6.38 3.88,6.38 0.88,6.38 Z M 0.88,6.38" />
            <path id="compliance_Aid-rectangle7" stroke="none" fill="rgb(34, 11, 91)" d="M 3.88,5.88 L 6.88,5.88 6.62,6.12 6.62,-0.88 6.88,-0.62 3.88,-0.62 4.12,-0.88 4.12,6.12 3.88,5.88 Z M 3.88,6.38 L 3.62,6.38 3.62,6.12 3.62,-0.88 3.62,-1.12 3.88,-1.12 6.88,-1.12 7.12,-1.12 7.12,-0.88 7.12,6.12 7.12,6.38 6.88,6.38 3.88,6.38 Z M 3.88,6.38" />
            <path id="compliance_Aid-bezier" stroke="none" fill="rgb(34, 11, 91)" d="M 9.41,-1.12 C 9.79,-1.13 10.12,-0.79 10.12,-0.38 L 10.12,5.62 C 10.12,6.04 9.79,6.38 9.38,6.38 L 6.88,6.38 C 6.88,6.25 6.88,6.08 6.88,5.88 L 9.38,5.88 C 9.51,5.88 9.62,5.76 9.62,5.62 L 9.62,-0.38 C 9.62,-0.51 9.51,-0.62 9.38,-0.62 L 6.88,-0.62 C 6.88,-0.83 6.88,-1 6.88,-1.13 L 9.38,-1.12 9.41,-1.12 Z M 9.41,-1.12" />
            <path id="compliance_Aid-bezier2" stroke="none" fill="rgb(34, 11, 91)" d="M -10.66,-1.12 C -11.04,-1.13 -11.38,-0.79 -11.38,-0.38 L -11.38,5.62 C -11.38,6.04 -11.04,6.38 -10.62,6.38 L -8.12,6.38 C -8.12,6.25 -8.12,6.08 -8.12,5.88 L -10.62,5.88 C -10.76,5.88 -10.88,5.76 -10.88,5.62 L -10.88,-0.38 C -10.88,-0.51 -10.76,-0.62 -10.62,-0.62 L -8.12,-0.62 C -8.12,-0.83 -8.12,-1 -8.12,-1.13 L -10.62,-1.12 -10.66,-1.12 Z M -10.66,-1.12" />
            <g id="compliance_Aid-group3" transform="translate(-3.62, -3.38) rotate(180)" >
                <g id="compliance_Aid-group4" transform="translate(-0.17, 0.17) rotate(-45) scale(0.17, 0.17)" >
                    <g id="compliance_Aid-group5" transform="translate(0.5, -0.5) rotate(-45)" >
                        <path id="compliance_Aid-rectangle14" stroke="none" fill="rgb(34, 11, 91)" d="M -9.5,-0 C -9.5,2.35 -7.6,4.25 -5.25,4.25 L 5.25,4.25 C 7.6,4.25 9.5,2.35 9.5,-0 9.5,-2.35 7.6,-4.25 5.25,-4.25 L -5.25,-4.25 C -7.6,-4.25 -9.5,-2.35 -9.5,-0 Z M -10.5,-0 C -10.5,-2.9 -8.15,-5.25 -5.25,-5.25 L 5.25,-5.25 C 8.15,-5.25 10.5,-2.9 10.5,-0 10.5,2.9 8.15,5.25 5.25,5.25 L -5.25,5.25 C -8.15,5.25 -10.5,2.9 -10.5,-0 Z M -10.5,-0" />
                        <path id="compliance_Aid-bezier3" stroke="none" fill="rgb(34, 11, 91)" d="M 0.52,-2.5 L 0.52,3 0.02,3.5 C -0.28,3.5 -0.28,3.5 -1.53,3.5 -3.09,3.5 -3.09,3.5 -4.98,3.5 -6.21,3.5 -7.13,2.89 -7.76,1.9 -7.91,1.67 -7.84,1.36 -7.61,1.21 -7.37,1.06 -7.07,1.13 -6.92,1.37 -6.46,2.09 -5.84,2.5 -4.98,2.5 -3.09,2.5 -3.09,2.5 -1.53,2.5 -0.28,2.5 -0.28,2.5 0.02,2.5 L -0.48,3 -0.48,-2.5 C -0.48,-2.78 -0.25,-3 0.02,-3 0.3,-3 0.52,-2.78 0.52,-2.5 Z M 0.52,-2.5" />
                    </g>
                </g>
            </g>
            <g id="compliance_Aid-group6" transform="translate(-3.62, -0.38)" >
                <g id="compliance_Aid-group7" transform="translate(2.83, 3.17) rotate(-45) scale(0.17, 0.17)" >
                    <g id="compliance_Aid-group8" transform="translate(0.5, -0.5) rotate(-45)" >
                        <path id="compliance_Aid-rectangle15" stroke="none" fill="rgb(34, 11, 91)" d="M -9.5,-0 C -9.5,2.35 -7.6,4.25 -5.25,4.25 L 5.25,4.25 C 7.6,4.25 9.5,2.35 9.5,-0 9.5,-2.35 7.6,-4.25 5.25,-4.25 L -5.25,-4.25 C -7.6,-4.25 -9.5,-2.35 -9.5,-0 Z M -10.5,-0 C -10.5,-2.9 -8.15,-5.25 -5.25,-5.25 L 5.25,-5.25 C 8.15,-5.25 10.5,-2.9 10.5,-0 10.5,2.9 8.15,5.25 5.25,5.25 L -5.25,5.25 C -8.15,5.25 -10.5,2.9 -10.5,-0 Z M -10.5,-0" />
                        <path id="compliance_Aid-bezier4" stroke="none" fill="rgb(34, 11, 91)" d="M 0.52,-2.5 L 0.52,3 0.02,3.5 C -0.28,3.5 -0.28,3.5 -1.53,3.5 -3.09,3.5 -3.09,3.5 -4.98,3.5 -6.21,3.5 -7.13,2.89 -7.76,1.9 -7.91,1.67 -7.84,1.36 -7.61,1.21 -7.37,1.06 -7.07,1.13 -6.92,1.37 -6.46,2.09 -5.84,2.5 -4.98,2.5 -3.09,2.5 -3.09,2.5 -1.53,2.5 -0.28,2.5 -0.28,2.5 0.02,2.5 L -0.48,3 -0.48,-2.5 C -0.48,-2.78 -0.25,-3 0.02,-3 0.3,-3 0.52,-2.78 0.52,-2.5 Z M 0.52,-2.5" />
                    </g>
                </g>
            </g>
            <g id="compliance_Aid-group9" transform="translate(-0.62, -0.38)" >
                <g id="compliance_Aid-group10" transform="translate(2.83, 3.17) rotate(-45) scale(0.17, 0.17)" >
                    <g id="compliance_Aid-group11" transform="translate(0.5, -0.5) rotate(-45)" >
                        <path id="compliance_Aid-rectangle16" stroke="none" fill="rgb(34, 11, 91)" d="M -9.5,-0 C -9.5,2.35 -7.6,4.25 -5.25,4.25 L 5.25,4.25 C 7.6,4.25 9.5,2.35 9.5,-0 9.5,-2.35 7.6,-4.25 5.25,-4.25 L -5.25,-4.25 C -7.6,-4.25 -9.5,-2.35 -9.5,-0 Z M -10.5,-0 C -10.5,-2.9 -8.15,-5.25 -5.25,-5.25 L 5.25,-5.25 C 8.15,-5.25 10.5,-2.9 10.5,-0 10.5,2.9 8.15,5.25 5.25,5.25 L -5.25,5.25 C -8.15,5.25 -10.5,2.9 -10.5,-0 Z M -10.5,-0" />
                        <path id="compliance_Aid-bezier5" stroke="none" fill="rgb(34, 11, 91)" d="M 0.52,-2.5 L 0.52,3 0.02,3.5 C -0.28,3.5 -0.28,3.5 -1.53,3.5 -3.09,3.5 -3.09,3.5 -4.98,3.5 -6.21,3.5 -7.13,2.89 -7.76,1.9 -7.91,1.67 -7.84,1.36 -7.61,1.21 -7.37,1.06 -7.07,1.13 -6.92,1.37 -6.46,2.09 -5.84,2.5 -4.98,2.5 -3.09,2.5 -3.09,2.5 -1.53,2.5 -0.28,2.5 -0.28,2.5 0.02,2.5 L -0.48,3 -0.48,-2.5 C -0.48,-2.78 -0.25,-3 0.02,-3 0.3,-3 0.52,-2.78 0.52,-2.5 Z M 0.52,-2.5" />
                    </g>
                </g>
            </g>
            <g id="compliance_Aid-group12" transform="translate(2.38, -0.38)" >
                <g id="compliance_Aid-group13" transform="translate(2.83, 3.17) rotate(-45) scale(0.17, 0.17)" >
                    <g id="compliance_Aid-group14" transform="translate(0.5, -0.5) rotate(-45)" >
                        <path id="compliance_Aid-rectangle17" stroke="none" fill="rgb(34, 11, 91)" d="M -9.5,-0 C -9.5,2.35 -7.6,4.25 -5.25,4.25 L 5.25,4.25 C 7.6,4.25 9.5,2.35 9.5,-0 9.5,-2.35 7.6,-4.25 5.25,-4.25 L -5.25,-4.25 C -7.6,-4.25 -9.5,-2.35 -9.5,-0 Z M -10.5,-0 C -10.5,-2.9 -8.15,-5.25 -5.25,-5.25 L 5.25,-5.25 C 8.15,-5.25 10.5,-2.9 10.5,-0 10.5,2.9 8.15,5.25 5.25,5.25 L -5.25,5.25 C -8.15,5.25 -10.5,2.9 -10.5,-0 Z M -10.5,-0" />
                        <path id="compliance_Aid-bezier6" stroke="none" fill="rgb(34, 11, 91)" d="M 0.52,-2.5 L 0.52,3 0.02,3.5 C -0.28,3.5 -0.28,3.5 -1.53,3.5 -3.09,3.5 -3.09,3.5 -4.98,3.5 -6.21,3.5 -7.13,2.89 -7.76,1.9 -7.91,1.67 -7.84,1.36 -7.61,1.21 -7.37,1.06 -7.07,1.13 -6.92,1.37 -6.46,2.09 -5.84,2.5 -4.98,2.5 -3.09,2.5 -3.09,2.5 -1.53,2.5 -0.28,2.5 -0.28,2.5 0.02,2.5 L -0.48,3 -0.48,-2.5 C -0.48,-2.78 -0.25,-3 0.02,-3 0.3,-3 0.52,-2.78 0.52,-2.5 Z M 0.52,-2.5" />
                    </g>
                </g>
            </g>
            <g id="compliance_Aid-group15" transform="translate(5.38, -0.38)" >
                <g id="compliance_Aid-group16" transform="translate(2.83, 3.17) rotate(-45) scale(0.17, 0.17)" >
                    <g id="compliance_Aid-group17" transform="translate(0.5, -0.5) rotate(-45)" >
                        <path id="compliance_Aid-rectangle18" stroke="none" fill="rgb(34, 11, 91)" d="M -9.5,-0 C -9.5,2.35 -7.6,4.25 -5.25,4.25 L 5.25,4.25 C 7.6,4.25 9.5,2.35 9.5,-0 9.5,-2.35 7.6,-4.25 5.25,-4.25 L -5.25,-4.25 C -7.6,-4.25 -9.5,-2.35 -9.5,-0 Z M -10.5,-0 C -10.5,-2.9 -8.15,-5.25 -5.25,-5.25 L 5.25,-5.25 C 8.15,-5.25 10.5,-2.9 10.5,-0 10.5,2.9 8.15,5.25 5.25,5.25 L -5.25,5.25 C -8.15,5.25 -10.5,2.9 -10.5,-0 Z M -10.5,-0" />
                        <path id="compliance_Aid-bezier7" stroke="none" fill="rgb(34, 11, 91)" d="M 0.52,-2.5 L 0.52,3 0.02,3.5 C -0.28,3.5 -0.28,3.5 -1.53,3.5 -3.09,3.5 -3.09,3.5 -4.98,3.5 -6.21,3.5 -7.13,2.89 -7.76,1.9 -7.91,1.67 -7.84,1.36 -7.61,1.21 -7.37,1.06 -7.07,1.13 -6.92,1.37 -6.46,2.09 -5.84,2.5 -4.98,2.5 -3.09,2.5 -3.09,2.5 -1.53,2.5 -0.28,2.5 -0.28,2.5 0.02,2.5 L -0.48,3 -0.48,-2.5 C -0.48,-2.78 -0.25,-3 0.02,-3 0.3,-3 0.52,-2.78 0.52,-2.5 Z M 0.52,-2.5" />
                    </g>
                </g>
            </g>
        </g>
    </g>
</svg>
