<?xml version="1.0" encoding="UTF-8"?>
<!DOCTYPE svg PUBLIC "-//W3C//DTD SVG 1.1//EN" "http://www.w3.org/Graphics/SVG/1.1/DTD/svg11.dtd">
<svg version="1.1" xmlns="http://www.w3.org/2000/svg" xmlns:xlink="http://www.w3.org/1999/xlink" width="24" height="24"  xml:space="preserve" id="controlled_Drug">
    <!-- Generated by PaintCode - http://www.paintcodeapp.com -->
    <path id="controlled_Drug-polygon" stroke="rgb(0, 0, 0)" stroke-width="1" stroke-miterlimit="10" fill="none" d="M 12,5 L 19.79,18.5 4.21,18.5 12,5 Z M 12,5" />
    <path id="controlled_Drug-text" stroke="none" fill="rgb(0, 0, 0)" d="M 10.28,12.6 C 9.88,12.6 9.56,12.74 9.33,13.03 9.1,13.31 8.99,13.7 8.99,14.21 8.99,14.73 9.1,15.13 9.32,15.4 9.54,15.67 9.86,15.8 10.28,15.8 10.47,15.8 10.64,15.78 10.81,15.75 10.98,15.71 11.16,15.66 11.34,15.61 L 11.34,16.21 C 11.01,16.33 10.62,16.4 10.2,16.4 9.57,16.4 9.09,16.21 8.75,15.83 8.42,15.45 8.25,14.91 8.25,14.2 8.25,13.76 8.33,13.37 8.49,13.03 8.66,12.7 8.89,12.44 9.2,12.27 9.51,12.09 9.87,12 10.29,12 10.73,12 11.13,12.09 11.5,12.27 L 11.25,12.86 C 11.11,12.79 10.95,12.73 10.79,12.68 10.63,12.63 10.46,12.6 10.28,12.6 Z M 15.75,14.16 C 15.75,14.86 15.55,15.4 15.16,15.78 14.77,16.15 14.2,16.34 13.46,16.34 L 12.26,16.34 12.26,12.06 13.59,12.06 C 14.27,12.06 14.8,12.24 15.18,12.61 15.56,12.98 15.75,13.49 15.75,14.16 Z M 15.01,14.18 C 15.01,13.16 14.53,12.65 13.57,12.65 L 12.96,12.65 12.96,15.75 13.46,15.75 C 14.49,15.75 15.01,15.23 15.01,14.18 Z M 15.01,14.18" />
</svg>
