<?xml version="1.0" encoding="UTF-8"?>
<!DOCTYPE svg PUBLIC "-//W3C//DTD SVG 1.1//EN" "http://www.w3.org/Graphics/SVG/1.1/DTD/svg11.dtd">
<svg version="1.1" xmlns="http://www.w3.org/2000/svg" xmlns:xlink="http://www.w3.org/1999/xlink" width="24" height="24"  xml:space="preserve" id="critical_Drug">
    <!-- Generated by PaintCode - http://www.paintcodeapp.com -->
    <g id="critical_Drug-group" transform="translate(0, 3)" >
        <g id="critical_Drug-group2" transform="translate(5, 5) scale(2.33, 2.33)" >
            <circle id="critical_Drug-oval" stroke="none" fill="rgb(149, 37, 39)" cx="3" cy="3" r="2" />
            <path id="critical_Drug-bezier" stroke="none" fill="rgb(255, 255, 255)" d="M 3.25,2 L 3.25,3 3,2.75 4,2.75 C 4.14,2.75 4.25,2.86 4.25,3 4.25,3.14 4.14,3.25 4,3.25 L 3,3.25 C 2.86,3.25 2.75,3.14 2.75,3 L 2.75,2 C 2.75,1.86 2.86,1.75 3,1.75 3.14,1.75 3.25,1.86 3.25,2 Z M 3.25,2" />
        </g>
        <g id="critical_Drug-group3" transform="translate(13, -0) scale(1.83, 1.83)" >
            <path id="critical_Drug-bezier2" stroke="none" fill="rgb(149, 37, 39)" d="M 1.1,2.51 C 1.42,2.57 1.87,2.74 2.32,3.08 2.91,3.51 3.33,4.11 3.49,4.9 3.54,5.17 3.37,5.44 3.1,5.49 2.83,5.54 2.56,5.37 2.51,5.1 2.4,4.57 2.13,4.18 1.73,3.88 1.41,3.65 1.09,3.53 0.9,3.49 0.63,3.44 0.46,3.17 0.51,2.9 0.56,2.63 0.83,2.46 1.1,2.51 Z M 1.1,2.51" />
            <path id="critical_Drug-bezier3" stroke="none" fill="rgb(149, 37, 39)" d="M 2.1,0.51 C 2.55,0.6 3.19,0.84 3.84,1.32 4.68,1.93 5.27,2.78 5.49,3.9 5.54,4.17 5.37,4.44 5.1,4.49 4.83,4.54 4.56,4.37 4.51,4.1 4.34,3.24 3.89,2.6 3.25,2.12 2.95,1.9 2.63,1.74 2.31,1.62 2.12,1.54 1.97,1.5 1.9,1.49 1.63,1.44 1.46,1.17 1.51,0.9 1.56,0.63 1.83,0.46 2.1,0.51 Z M 2.1,0.51" />
        </g>
        <g id="critical_Drug-group4" transform="scale(1.83, 1.83)" >
            <path id="critical_Drug-bezier4" stroke="none" fill="rgb(149, 37, 39)" d="M 4.9,2.51 C 4.58,2.57 4.13,2.74 3.68,3.08 3.09,3.51 2.67,4.11 2.51,4.9 2.46,5.17 2.63,5.44 2.9,5.49 3.17,5.54 3.44,5.37 3.49,5.1 3.6,4.57 3.87,4.18 4.27,3.88 4.59,3.65 4.91,3.53 5.1,3.49 5.37,3.44 5.54,3.17 5.49,2.9 5.44,2.63 5.17,2.46 4.9,2.51 Z M 4.9,2.51" />
            <path id="critical_Drug-bezier5" stroke="none" fill="rgb(149, 37, 39)" d="M 3.9,0.51 C 3.45,0.6 2.81,0.84 2.16,1.32 1.32,1.93 0.73,2.78 0.51,3.9 0.46,4.17 0.63,4.44 0.9,4.49 1.17,4.54 1.44,4.37 1.49,4.1 1.66,3.24 2.11,2.6 2.75,2.12 3.05,1.9 3.37,1.74 3.69,1.62 3.88,1.54 4.03,1.5 4.1,1.49 4.37,1.44 4.54,1.17 4.49,0.9 4.44,0.63 4.17,0.46 3.9,0.51 Z M 3.9,0.51" />
        </g>
    </g>
</svg>
