<?xml version="1.0" encoding="UTF-8"?>
<!DOCTYPE svg PUBLIC "-//W3C//DTD SVG 1.1//EN" "http://www.w3.org/Graphics/SVG/1.1/DTD/svg11.dtd">
<svg version="1.1" xmlns="http://www.w3.org/2000/svg" xmlns:xlink="http://www.w3.org/1999/xlink" width="24" height="24"  xml:space="preserve" id="expensive_Therapy">
    <!-- Generated by PaintCode - http://www.paintcodeapp.com -->
    <g id="expensive_Therapy-group" clip-path="url(#expensive_Therapy-rectangle2)" transform="translate(2, 2) scale(2, 2)" >
        <clipPath id="expensive_Therapy-rectangle2">
            <rect x="0" y="-10" width="10" height="10"  transform="translate(0, 10)" />
        </clipPath>
        <path id="expensive_Therapy-bezier" stroke="none" fill="rgb(90, 70, 128)" d="M 9,7.15 C 9,7.82 8.85,8.44 8.58,9 L 1.42,9 C 1.15,8.44 1,7.82 1,7.15 1,5.75 1.67,4.51 2.69,3.76 3.34,3.28 4.14,3 5,3 7.21,3 9,4.86 9,7.15 Z M 9,7.15" />
        <path id="expensive_Therapy-rectangle" stroke="none" fill="rgb(90, 70, 128)" d="M 3.29,2.5 L 6.71,2.5 8,1 2,1 3.29,2.5 Z M 3.29,2.5" />
    </g>
    <g id="expensive_Therapy-group2" transform="translate(7, 10) scale(1.5, 1.5)" >
        <path id="expensive_Therapy-text2" stroke="none" fill="rgb(255, 255, 254)" d="M 3.36,0.44 C 3.8,0.44 4.23,0.53 4.64,0.72 L 4.38,1.34 C 4.01,1.18 3.69,1.1 3.41,1.1 2.94,1.1 2.71,1.35 2.71,1.85 L 2.71,2.68 4.07,2.68 4.07,3.27 2.71,3.27 2.71,3.89 C 2.71,4.1 2.67,4.27 2.6,4.42 2.52,4.57 2.39,4.69 2.21,4.79 L 4.8,4.79 4.8,5.5 1.25,5.5 1.25,4.83 C 1.47,4.77 1.64,4.66 1.74,4.51 1.85,4.35 1.9,4.15 1.9,3.9 L 1.9,3.27 1.26,3.27 1.26,2.68 1.9,2.68 1.9,1.81 C 1.9,1.38 2.03,1.04 2.29,0.8 2.55,0.56 2.91,0.44 3.36,0.44 Z M 3.36,0.44" />
    </g>
</svg>
