<?xml version="1.0" encoding="UTF-8"?>
<!DOCTYPE svg PUBLIC "-//W3C//DTD SVG 1.1//EN" "http://www.w3.org/Graphics/SVG/1.1/DTD/svg11.dtd">
<svg version="1.1" xmlns="http://www.w3.org/2000/svg" xmlns:xlink="http://www.w3.org/1999/xlink" width="24" height="24"  xml:space="preserve" id="high_Alert_Medication">
    <!-- Generated by PaintCode - http://www.paintcodeapp.com -->
    <g id="high_Alert_Medication-group" transform="translate(1, 1) scale(2, 2)" >
        <path id="high_Alert_Medication-bezier" stroke="none" fill="rgb(34, 11, 91)" d="M 5.5,1.25 C 4.67,1.25 3.89,1.49 3.24,1.9 2.04,2.65 1.25,3.98 1.25,5.5 1.25,7.85 3.15,9.75 5.5,9.75 7.85,9.75 9.75,7.85 9.75,5.5 9.75,3.15 7.85,1.25 5.5,1.25 Z M 10,5.5 C 10,7.99 7.99,10 5.5,10 3.01,10 1,7.99 1,5.5 1,3.93 1.81,2.54 3.03,1.74 3.74,1.27 4.59,1 5.5,1 7.99,1 10,3.01 10,5.5 Z M 10,5.5" />
    </g>
    <g id="high_Alert_Medication-group2" transform="translate(6, 6) scale(1.2, 1.2)" >
        <path id="high_Alert_Medication-bezier2" stroke="none" fill="rgb(149, 37, 39)" d="M 6,8 C 6,8.55 5.55,9 5,9 4.45,9 4,8.55 4,8 4,7.45 4.45,7 5,7 5.55,7 6,7.45 6,8 Z M 4.25,6 L 5.75,6 6.5,1 3.5,1 4.25,6 Z M 4.25,6" />
    </g>
</svg>
