<?xml version="1.0" encoding="UTF-8"?>
<!DOCTYPE svg PUBLIC "-//W3C//DTD SVG 1.1//EN" "http://www.w3.org/Graphics/SVG/1.1/DTD/svg11.dtd">
<svg version="1.1" xmlns="http://www.w3.org/2000/svg" xmlns:xlink="http://www.w3.org/1999/xlink" width="24" height="24"  xml:space="preserve" id="patients_Own_Supply_At_Home">
    <!-- Generated by PaintCode - http://www.paintcodeapp.com -->
    <g id="patients_Own_Supply_At_Home-group" transform="translate(2, 2) scale(0.83, 0.83)" >
        <path id="patients_Own_Supply_At_Home-rectangle" stroke="none" fill="rgb(34, 11, 91)" d="M 5.25,21.75 L 19.5,21.75 19,22.25 19,9.75 19.5,10.25 5.25,10.25 5.75,9.75 5.75,22.25 5.25,21.75 Z M 5.25,22.75 C 4.97,22.75 4.75,22.53 4.75,22.25 L 4.75,9.75 C 4.75,9.47 4.97,9.25 5.25,9.25 L 19.5,9.25 C 19.78,9.25 20,9.47 20,9.75 L 20,22.25 C 20,22.53 19.78,22.75 19.5,22.75 L 5.25,22.75 Z M 5.25,22.75" />
        <path id="patients_Own_Supply_At_Home-bezier2" stroke="none" fill="rgb(34, 11, 91)" d="M 12.05,1.56 L 12.75,0.85 12.75,0.85 12.76,0.85 12.76,0.85 C 12.76,0.85 12.76,0.85 12.76,0.86 12.77,0.86 12.77,0.86 12.78,0.88 12.82,0.91 12.82,0.91 12.87,0.96 12.99,1.09 12.99,1.09 13.18,1.27 13.64,1.74 13.64,1.74 14.3,2.4 15.85,3.94 15.85,3.94 17.7,5.8 19.56,7.65 19.56,7.65 21.11,9.2 22.34,10.44 22.34,10.44 22.65,10.75 22.85,10.94 22.85,11.26 22.65,11.45 22.61,11.5 22.61,11.5 22.4,11.7 22.21,11.9 21.89,11.9 21.7,11.7 20,10.01 20,10.01 17,7 15.14,5.15 15.14,5.15 13.59,3.6 12.36,2.36 12.36,2.36 12.05,2.05 L 12.75,2.05 C 12.44,2.36 12.44,2.36 11.21,3.6 9.66,5.15 9.66,5.15 7.8,7 4.79,10.01 4.79,10.01 3.1,11.7 2.91,11.9 2.59,11.9 2.4,11.7 2.19,11.5 2.19,11.5 2.15,11.45 1.95,11.26 1.95,10.94 2.15,10.75 L 12.05,0.85 C 12.24,0.65 12.56,0.65 12.75,0.85 L 12.75,0.85 12.4,1.2 12.05,1.56 Z M 12.75,0.85 C 13.23,1.32 12.52,2.03 12.05,1.56 L 12.05,1.55 12.4,1.2 12.75,1.55 2.85,11.45 2.5,11.1 2.85,10.75 C 2.9,10.79 2.9,10.79 3.1,11 L 2.75,11.35 2.4,11 C 4.09,9.31 4.09,9.31 7.1,6.3 8.95,4.44 8.95,4.44 10.5,2.89 11.74,1.66 11.74,1.66 12.05,1.35 12.24,1.15 12.56,1.15 12.75,1.35 13.06,1.66 13.06,1.66 14.3,2.89 15.85,4.44 15.85,4.44 17.7,6.3 20.71,9.31 20.71,9.31 22.4,11 L 22.05,11.35 21.7,11 C 21.9,10.79 21.9,10.79 21.95,10.75 L 22.3,11.1 21.95,11.45 C 21.64,11.14 21.64,11.14 20.4,9.91 18.85,8.36 18.85,8.36 17,6.51 15.14,4.65 15.14,4.65 13.59,3.1 12.94,2.45 12.94,2.45 12.47,1.98 12.28,1.79 12.28,1.79 12.16,1.67 12.11,1.62 12.11,1.62 12.08,1.58 12.06,1.57 12.06,1.57 12.05,1.56 12.05,1.56 12.05,1.56 12.05,1.56 L 12.05,1.56 12.05,1.56 12.05,1.56 12.05,1.56 12.75,0.85 Z M 12.75,0.85" />
        <g id="patients_Own_Supply_At_Home-group2" transform="translate(6, 10) scale(0.5, 0.5)" >
            <g id="patients_Own_Supply_At_Home-group3" transform="translate(12.5, 11.5) rotate(-45)" >
                <path id="patients_Own_Supply_At_Home-rectangle2" stroke="none" fill="rgb(34, 11, 91)" d="M -9.5,-0 C -9.5,2.35 -7.6,4.25 -5.25,4.25 L 5.25,4.25 C 7.6,4.25 9.5,2.35 9.5,-0 9.5,-2.35 7.6,-4.25 5.25,-4.25 L -5.25,-4.25 C -7.6,-4.25 -9.5,-2.35 -9.5,-0 Z M -10.5,-0 C -10.5,-2.9 -8.15,-5.25 -5.25,-5.25 L 5.25,-5.25 C 8.15,-5.25 10.5,-2.9 10.5,-0 10.5,2.9 8.15,5.25 5.25,5.25 L -5.25,5.25 C -8.15,5.25 -10.5,2.9 -10.5,-0 Z M -10.5,-0" />
                <path id="patients_Own_Supply_At_Home-bezier" stroke="none" fill="rgb(34, 11, 91)" d="M 0.52,-2.5 L 0.52,3 0.02,3.5 C -0.28,3.5 -0.28,3.5 -1.53,3.5 -3.09,3.5 -3.09,3.5 -4.98,3.5 -6.21,3.5 -7.13,2.89 -7.76,1.9 -7.91,1.67 -7.84,1.36 -7.61,1.21 -7.37,1.06 -7.07,1.13 -6.92,1.37 -6.46,2.09 -5.84,2.5 -4.98,2.5 -3.09,2.5 -3.09,2.5 -1.53,2.5 -0.28,2.5 -0.28,2.5 0.02,2.5 L -0.48,3 -0.48,-2.5 C -0.48,-2.78 -0.25,-3 0.02,-3 0.3,-3 0.52,-2.78 0.52,-2.5 Z M 0.52,-2.5" />
            </g>
        </g>
    </g>
</svg>
