<?xml version="1.0" encoding="UTF-8"?>
<!DOCTYPE svg PUBLIC "-//W3C//DTD SVG 1.1//EN" "http://www.w3.org/Graphics/SVG/1.1/DTD/svg11.dtd">
<svg version="1.1" xmlns="http://www.w3.org/2000/svg" xmlns:xlink="http://www.w3.org/1999/xlink" width="24" height="24"  xml:space="preserve" id="unlicenced_Medicine">
    <!-- Generated by PaintCode - http://www.paintcodeapp.com -->
    <g id="unlicenced_Medicine-group" transform="translate(4, 4)" >
        <rect id="unlicenced_Medicine-rectangle" stroke="none" fill="rgb(255, 255, 255)" x="1" y="1" width="14" height="15" />
        <path id="unlicenced_Medicine-bezier" stroke="none" fill="rgb(90, 70, 128)" d="M 3.01,3.02 L 13.01,3.02 13.01,4.02 3.01,4.02 3.01,3.02 Z M 3.01,5.02 L 11.01,5.02 11.01,6.02 3.01,6.02 3.01,5.02 Z M 3.01,7.02 L 8.5,7 8.5,8 3.01,8.02 3.01,7.02 Z M 3.01,9.02 L 12.5,9 12.5,10 3.01,10.02 3.01,9.02 Z M 3.01,11.02 L 11.5,11 11.5,12 3.01,12.02 3.01,11.02 Z M 3.01,13.02 L 13.5,13 13.5,14 3.01,14.02 3.01,13.02 Z M 1.5,15 L 14.5,15 14,15.5 14,1.5 14.5,2 1.5,2 2,1.5 2,15.5 1.5,15 Z M 1.5,16 L 1,16 1,15.5 1,1.5 1,1 1.5,1 14.5,1 15,1 15,1.5 15,15.5 15,16 14.5,16 1.5,16 Z M 1.5,16" />
    </g>
    <g id="unlicenced_Medicine-group2" clip-path="url(#unlicenced_Medicine-rectangle3)">
        <clipPath id="unlicenced_Medicine-rectangle3">
            <rect x="0" y="-6" width="6" height="6"  transform="translate(14, 21)" />
        </clipPath>
        <path id="unlicenced_Medicine-bezier2" stroke="none" fill="rgb(34, 11, 91)" d="M 16.77,15 C 17,15 17.25,15.38 17.25,15.38 17.25,15.38 17.66,15.18 17.88,15.3 18.09,15.43 18.12,15.88 18.12,15.88 18.12,15.88 18.57,15.91 18.7,16.12 18.82,16.34 18.62,16.75 18.62,16.75 18.62,16.75 19,17 19,17.25 19,17.5 18.62,17.75 18.62,17.75 18.62,17.75 18.82,18.16 18.7,18.38 18.57,18.59 18.12,18.62 18.12,18.62 18.12,18.62 18.09,19.07 17.88,19.2 17.66,19.32 17.25,19.12 17.25,19.12 17.25,19.12 17,19.5 16.75,19.5 16.5,19.5 16.25,19.12 16.25,19.12 16.25,19.12 15.84,19.32 15.62,19.2 15.41,19.07 15.38,18.62 15.38,18.62 15.38,18.62 14.93,18.59 14.8,18.38 14.68,18.16 14.88,17.75 14.88,17.75 14.88,17.75 14.5,17.5 14.5,17.25 14.5,17 14.88,16.75 14.88,16.75 14.88,16.75 14.68,16.34 14.8,16.12 14.93,15.91 15.38,15.88 15.38,15.88 15.38,15.88 15.41,15.43 15.62,15.3 15.84,15.18 16.25,15.38 16.25,15.38 16.25,15.38 16.47,15.05 16.7,15 L 16.77,15 Z M 16.75,15.5 C 16.33,15.5 15.95,15.65 15.65,15.89 15.25,16.21 15,16.7 15,17.25 15,18.22 15.78,19 16.75,19 17.72,19 18.5,18.22 18.5,17.25 18.5,16.28 17.72,15.5 16.75,15.5 Z M 16.75,15.5" />
        <circle id="unlicenced_Medicine-oval" stroke="none" fill="rgb(34, 11, 91)" cx="16.75" cy="17.25" r="1.5" />
        <path id="unlicenced_Medicine-rectangle2" stroke="none" fill="rgb(34, 11, 91)" d="M -0.5,1 L 0,0.2 0.5,1 0.5,-1 -0.5,-1 -0.5,1 Z M -0.5,1" transform="translate(17.5, 20) rotate(-25)"  />
        <path id="unlicenced_Medicine-rectangle4" stroke="none" fill="rgb(34, 11, 91)" d="M 0.5,1 L -0,0.2 -0.5,1 -0.5,-1 0.5,-1 0.5,1 Z M 0.5,1" transform="translate(16, 20) rotate(25)"  />
    </g>
    <g id="unlicenced_Medicine-group3" transform="translate(2, 2) scale(3.33, 3.33)" >
        <path id="unlicenced_Medicine-bezier3" stroke="rgb(255, 255, 255)" stroke-width="0.5" stroke-miterlimit="10" fill="none" d="M 0.41,5.41 L 5.41,0.41 5.59,0.59 0.59,5.59 0.41,5.41 Z M 0.41,5.41" />
        <path id="unlicenced_Medicine-bezier4" stroke="none" fill="rgb(34, 11, 91)" d="M 0.41,5.41 L 5.41,0.41 5.59,0.59 0.59,5.59 0.41,5.41 Z M 0.41,5.41" />
    </g>
</svg>
