<?xml version="1.0" encoding="UTF-8"?>
<!DOCTYPE svg PUBLIC "-//W3C//DTD SVG 1.1//EN" "http://www.w3.org/Graphics/SVG/1.1/DTD/svg11.dtd">
<svg version="1.1" xmlns="http://www.w3.org/2000/svg" xmlns:xlink="http://www.w3.org/1999/xlink" width="24" height="24"  xml:space="preserve" id="ward_Stock_Icon">
    <!-- Generated by PaintCode - http://www.paintcodeapp.com -->
    <g id="ward_Stock_Icon-group3" transform="translate(4.5, 4) scale(0.83, 0.83)" >
        <g id="ward_Stock_Icon-group2">
            <path id="ward_Stock_Icon-rectangle3" stroke="none" fill="rgb(94, 111, 101)" d="M 9.12,15.42 L 20,9.82 11.63,2 1.17,8.01 9.12,15.42 Z M 9.12,15.42" />
            <g id="ward_Stock_Icon-group">
                <path id="ward_Stock_Icon-bezier" stroke="rgb(34, 11, 91)" stroke-width="0.25" stroke-linecap="round" stroke-linejoin="round" stroke-miterlimit="10" fill="rgb(255, 255, 255)" d="M -2,9.73 C -2,9.5 2.75,15.5 3.93,15.5 5.12,15.5 16.75,8.12 16.75,8.12 L 11.53,3.5 C 11.53,3.5 -2,9.96 -2,9.73 Z M -2,9.73" />
                <g id="ward_Stock_Icon-group6" transform="translate(2.75, 9.67) rotate(8.93) scale(0.33, 0.24)" >
                    <g id="ward_Stock_Icon-group7" transform="translate(0.5, -0.5) rotate(-45)" >
                        <path id="ward_Stock_Icon-rectangle4" stroke="none" fill="rgb(34, 11, 91)" d="M -9.5,-0 C -9.5,2.35 -7.6,4.25 -5.25,4.25 L 5.25,4.25 C 7.6,4.25 9.5,2.35 9.5,-0 9.5,-2.35 7.6,-4.25 5.25,-4.25 L -5.25,-4.25 C -7.6,-4.25 -9.5,-2.35 -9.5,-0 Z M -10.5,-0 C -10.5,-2.9 -8.15,-5.25 -5.25,-5.25 L 5.25,-5.25 C 8.15,-5.25 10.5,-2.9 10.5,-0 10.5,2.9 8.15,5.25 5.25,5.25 L -5.25,5.25 C -8.15,5.25 -10.5,2.9 -10.5,-0 Z M -10.5,-0" />
                        <path id="ward_Stock_Icon-bezier3" stroke="none" fill="rgb(34, 11, 91)" d="M 0.52,-2.5 L 0.52,3 0.02,3.5 C -0.28,3.5 -0.28,3.5 -1.53,3.5 -3.09,3.5 -3.09,3.5 -4.98,3.5 -6.21,3.5 -7.13,2.89 -7.76,1.9 -7.91,1.67 -7.84,1.36 -7.61,1.21 -7.37,1.06 -7.07,1.13 -6.92,1.37 -6.46,2.09 -5.84,2.5 -4.98,2.5 -3.09,2.5 -3.09,2.5 -1.53,2.5 -0.28,2.5 -0.28,2.5 0.02,2.5 L -0.48,3 -0.48,-2.5 C -0.48,-2.78 -0.25,-3 0.02,-3 0.3,-3 0.52,-2.78 0.52,-2.5 Z M 0.52,-2.5" />
                    </g>
                </g>
                <g id="ward_Stock_Icon-group8" transform="translate(5.12, 12.19) rotate(8.93) scale(0.33, 0.24)" >
                    <g id="ward_Stock_Icon-group9" transform="translate(0.5, -0.5) rotate(-45)" >
                        <path id="ward_Stock_Icon-rectangle5" stroke="none" fill="rgb(34, 11, 91)" d="M -9.5,-0 C -9.5,2.35 -7.6,4.25 -5.25,4.25 L 5.25,4.25 C 7.6,4.25 9.5,2.35 9.5,-0 9.5,-2.35 7.6,-4.25 5.25,-4.25 L -5.25,-4.25 C -7.6,-4.25 -9.5,-2.35 -9.5,-0 Z M -10.5,-0 C -10.5,-2.9 -8.15,-5.25 -5.25,-5.25 L 5.25,-5.25 C 8.15,-5.25 10.5,-2.9 10.5,-0 10.5,2.9 8.15,5.25 5.25,5.25 L -5.25,5.25 C -8.15,5.25 -10.5,2.9 -10.5,-0 Z M -10.5,-0" />
                        <path id="ward_Stock_Icon-bezier4" stroke="none" fill="rgb(34, 11, 91)" d="M 0.52,-2.5 L 0.52,3 0.02,3.5 C -0.28,3.5 -0.28,3.5 -1.53,3.5 -3.09,3.5 -3.09,3.5 -4.98,3.5 -6.21,3.5 -7.13,2.89 -7.76,1.9 -7.91,1.67 -7.84,1.36 -7.61,1.21 -7.37,1.06 -7.07,1.13 -6.92,1.37 -6.46,2.09 -5.84,2.5 -4.98,2.5 -3.09,2.5 -3.09,2.5 -1.53,2.5 -0.28,2.5 -0.28,2.5 0.02,2.5 L -0.48,3 -0.48,-2.5 C -0.48,-2.78 -0.25,-3 0.02,-3 0.3,-3 0.52,-2.78 0.52,-2.5 Z M 0.52,-2.5" />
                    </g>
                </g>
            </g>
            <path id="ward_Stock_Icon-bezier2" stroke="none" fill="rgb(94, 111, 101)" d="M 1.17,6.29 L 3.26,7.37 1.17,8.01 1.17,6.29 Z M 1.17,6.29" />
            <path id="ward_Stock_Icon-rectangle" stroke="none" fill="rgb(207, 223, 213)" d="M 9.01,13.27 L 20,7.9 11.63,2 1.17,6.29 9.01,13.27 Z M 9.01,13.27" />
            <path id="ward_Stock_Icon-rectangle2" stroke="none" fill="rgb(132, 160, 142)" d="M 9.12,15.42 L 20,9.9 20,7.9 9.01,13.27 9.12,15.42 Z M 9.12,15.42" />
            <g id="ward_Stock_Icon-group4" transform="translate(8, 4) rotate(-34.68) scale(0.32, 0.33)" >
            </g>
        </g>
    </g>
</svg>
