<?xml version="1.0" encoding="UTF-8"?>
<!DOCTYPE svg PUBLIC "-//W3C//DTD SVG 1.1//EN" "http://www.w3.org/Graphics/SVG/1.1/DTD/svg11.dtd">
<svg version="1.1" xmlns="http://www.w3.org/2000/svg" xmlns:xlink="http://www.w3.org/1999/xlink" width="24" height="24"  xml:space="preserve" id="multiple_Reminders_With_The_Date">
    <!-- Generated by PaintCode - http://www.paintcodeapp.com -->
    <g id="multiple_Reminders_With_The_Date-group" transform="scale(2.18, 2.18)" >
        <path id="multiple_Reminders_With_The_Date-oval" stroke="none" fill="rgb(255, 165, 0)" d="M 10,5.5 C 10,7.99 7.99,10 5.5,10 3.01,10 1,7.99 1,5.5 1,3.01 3.01,1 5.5,1 7.99,1 10,3.01 10,5.5 Z M 10,5.5" />
    </g>
    <g id="multiple_Reminders_With_The_Date-group2" transform="translate(2.5, 4) scale(1.75, 1.75)" >
        <path id="multiple_Reminders_With_The_Date-bezier2" stroke="none" fill="rgb(255, 255, 254)" d="M 4.19,3.99 L 4.19,2.7 C 4.19,2.08 3.82,1.57 3.28,1.43 L 3.13,1.39 3.13,1.23 3.13,1.06 C 3.13,0.99 3.07,0.92 3,0.92 2.94,0.92 2.87,0.99 2.87,1.06 L 2.87,1.23 2.87,1.39 2.73,1.43 C 2.18,1.57 1.81,2.08 1.81,2.7 L 1.81,3.99 1.81,4.07 1.75,4.14 1.33,4.6 1.38,4.46 1.38,4.69 1.19,4.48 4.81,4.48 4.62,4.69 4.62,4.46 4.68,4.6 4.25,4.14 4.19,4.07 4.19,3.99 Z M 4.58,3.99 L 4.52,3.84 4.95,4.31 5,4.37 5,4.46 5,4.69 5,4.9 4.81,4.9 1.19,4.9 1,4.9 1,4.69 1,4.46 1,4.37 1.06,4.31 1.48,3.84 1.43,3.99 1.43,2.7 C 1.43,1.89 1.92,1.21 2.64,1.02 L 2.68,1.23 2.49,1.23 2.49,1.06 C 2.49,0.76 2.72,0.5 3,0.5 3.28,0.5 3.51,0.76 3.51,1.06 L 3.51,1.23 3.32,1.23 3.37,1.02 C 4.08,1.21 4.58,1.89 4.58,2.7 L 4.58,3.99 Z M 3,5.5 C 2.72,5.5 2.5,5.28 2.5,5 L 3.5,5 C 3.5,5.28 3.28,5.5 3,5.5 Z M 3,5.5" />
    </g>
    <g id="multiple_Reminders_With_The_Date-group3" transform="translate(11, 4) scale(1.75, 1.75)" >
        <path id="multiple_Reminders_With_The_Date-bezier" stroke="none" fill="rgb(255, 255, 254)" d="M 4.19,3.99 L 4.19,2.7 C 4.19,2.08 3.82,1.57 3.28,1.43 L 3.13,1.39 3.13,1.23 3.13,1.06 C 3.13,0.99 3.07,0.92 3,0.92 2.94,0.92 2.87,0.99 2.87,1.06 L 2.87,1.23 2.87,1.39 2.73,1.43 C 2.18,1.57 1.81,2.08 1.81,2.7 L 1.81,3.99 1.81,4.07 1.75,4.14 1.33,4.6 1.38,4.46 1.38,4.69 1.19,4.48 4.81,4.48 4.62,4.69 4.62,4.46 4.68,4.6 4.25,4.14 4.19,4.07 4.19,3.99 Z M 4.58,3.99 L 4.52,3.84 4.95,4.31 5,4.37 5,4.46 5,4.69 5,4.9 4.81,4.9 1.19,4.9 1,4.9 1,4.69 1,4.46 1,4.37 1.06,4.31 1.48,3.84 1.43,3.99 1.43,2.7 C 1.43,1.89 1.92,1.21 2.64,1.02 L 2.68,1.23 2.49,1.23 2.49,1.06 C 2.49,0.76 2.72,0.5 3,0.5 3.28,0.5 3.51,0.76 3.51,1.06 L 3.51,1.23 3.32,1.23 3.37,1.02 C 4.08,1.21 4.58,1.89 4.58,2.7 L 4.58,3.99 Z M 3,5.5 C 2.72,5.5 2.5,5.28 2.5,5 L 3.5,5 C 3.5,5.28 3.28,5.5 3,5.5 Z M 3,5.5" />
    </g>
    <g id="multiple_Reminders_With_The_Date-group4" transform="translate(6.75, 10) scale(1.75, 1.75)" >
        <path id="multiple_Reminders_With_The_Date-bezier3" stroke="none" fill="rgb(255, 255, 254)" d="M 4.19,3.99 L 4.19,2.7 C 4.19,2.08 3.82,1.57 3.28,1.43 L 3.13,1.39 3.13,1.23 3.13,1.06 C 3.13,0.99 3.07,0.92 3,0.92 2.94,0.92 2.87,0.99 2.87,1.06 L 2.87,1.23 2.87,1.39 2.73,1.43 C 2.18,1.57 1.81,2.08 1.81,2.7 L 1.81,3.99 1.81,4.07 1.75,4.14 1.33,4.6 1.38,4.46 1.38,4.69 1.19,4.48 4.81,4.48 4.62,4.69 4.62,4.46 4.68,4.6 4.25,4.14 4.19,4.07 4.19,3.99 Z M 4.58,3.99 L 4.52,3.84 4.95,4.31 5,4.37 5,4.46 5,4.69 5,4.9 4.81,4.9 1.19,4.9 1,4.9 1,4.69 1,4.46 1,4.37 1.06,4.31 1.48,3.84 1.43,3.99 1.43,2.7 C 1.43,1.89 1.92,1.21 2.64,1.02 L 2.68,1.23 2.49,1.23 2.49,1.06 C 2.49,0.76 2.72,0.5 3,0.5 3.28,0.5 3.51,0.76 3.51,1.06 L 3.51,1.23 3.32,1.23 3.37,1.02 C 4.08,1.21 4.58,1.89 4.58,2.7 L 4.58,3.99 Z M 3,5.5 C 2.72,5.5 2.5,5.28 2.5,5 L 3.5,5 C 3.5,5.28 3.28,5.5 3,5.5 Z M 3,5.5" />
    </g>
</svg>
