<?xml version="1.0" encoding="UTF-8"?>
<!DOCTYPE svg PUBLIC "-//W3C//DTD SVG 1.1//EN" "http://www.w3.org/Graphics/SVG/1.1/DTD/svg11.dtd">
<svg version="1.1" xmlns="http://www.w3.org/2000/svg" xmlns:xlink="http://www.w3.org/1999/xlink" width="24" height="24"  xml:space="preserve" id="multiple_Reminders_One_Day_Has_Passed">
    <!-- Generated by PaintCode - http://www.paintcodeapp.com -->
    <g id="multiple_Reminders_One_Day_Has_Passed-group" transform="scale(2.18, 2.18)" >
        <path id="multiple_Reminders_One_Day_Has_Passed-oval" stroke="none" fill="rgb(149, 37, 39)" d="M 10,5.5 C 10,7.99 7.99,10 5.5,10 3.01,10 1,7.99 1,5.5 1,3.01 3.01,1 5.5,1 7.99,1 10,3.01 10,5.5 Z M 10,5.5" />
    </g>
    <g id="multiple_Reminders_One_Day_Has_Passed-group2" transform="translate(3.25, 5.5) scale(1.58, 1.42)" >
        <g id="multiple_Reminders_One_Day_Has_Passed-group3" transform="" >
            <path id="multiple_Reminders_One_Day_Has_Passed-bezier2" stroke="none" fill="rgb(255, 255, 254)" d="M 4.19,3.99 L 4.19,2.7 C 4.19,2.08 3.82,1.57 3.28,1.43 L 3.13,1.39 3.13,1.23 3.13,1.06 C 3.13,0.99 3.07,0.92 3,0.92 2.94,0.92 2.87,0.99 2.87,1.06 L 2.87,1.23 2.87,1.39 2.73,1.43 C 2.18,1.57 1.81,2.08 1.81,2.7 L 1.81,3.99 1.81,4.07 1.75,4.14 1.33,4.6 1.38,4.46 1.38,4.69 1.19,4.48 4.81,4.48 4.62,4.69 4.62,4.46 4.68,4.6 4.25,4.14 4.19,4.07 4.19,3.99 Z M 4.58,3.99 L 4.52,3.84 4.95,4.31 5,4.37 5,4.46 5,4.69 5,4.9 4.81,4.9 1.19,4.9 1,4.9 1,4.69 1,4.46 1,4.37 1.06,4.31 1.48,3.84 1.43,3.99 1.43,2.7 C 1.43,1.89 1.92,1.21 2.64,1.02 L 2.68,1.23 2.49,1.23 2.49,1.06 C 2.49,0.76 2.72,0.5 3,0.5 3.28,0.5 3.51,0.76 3.51,1.06 L 3.51,1.23 3.32,1.23 3.37,1.02 C 4.08,1.21 4.58,1.89 4.58,2.7 L 4.58,3.99 Z M 3,5.5 C 2.72,5.5 2.5,5.28 2.5,5 L 3.5,5 C 3.5,5.28 3.28,5.5 3,5.5 Z M 3,5.5" />
        </g>
        <g id="multiple_Reminders_One_Day_Has_Passed-group4" transform="translate(4, -0) scale(0.33, 0.33)" >
            <path id="multiple_Reminders_One_Day_Has_Passed-bezier" stroke="none" fill="rgb(255, 255, 254)" d="M 1.1,2.51 C 1.42,2.57 1.87,2.74 2.32,3.08 2.91,3.51 3.33,4.11 3.49,4.9 3.54,5.17 3.37,5.44 3.1,5.49 2.83,5.54 2.56,5.37 2.51,5.1 2.4,4.57 2.13,4.18 1.73,3.88 1.41,3.65 1.09,3.53 0.9,3.49 0.63,3.44 0.46,3.17 0.51,2.9 0.56,2.63 0.83,2.46 1.1,2.51 Z M 1.1,2.51" />
            <path id="multiple_Reminders_One_Day_Has_Passed-bezier3" stroke="none" fill="rgb(255, 255, 254)" d="M 2.1,0.51 C 2.55,0.6 3.19,0.84 3.84,1.32 4.68,1.93 5.27,2.78 5.49,3.9 5.54,4.17 5.37,4.44 5.1,4.49 4.83,4.54 4.56,4.37 4.51,4.1 4.34,3.24 3.89,2.6 3.25,2.12 2.95,1.9 2.63,1.74 2.31,1.62 2.12,1.54 1.97,1.5 1.9,1.49 1.63,1.44 1.46,1.17 1.51,0.9 1.56,0.63 1.83,0.46 2.1,0.51 Z M 2.1,0.51" />
        </g>
        <g id="multiple_Reminders_One_Day_Has_Passed-group5" transform="scale(0.33, 0.33)" >
            <path id="multiple_Reminders_One_Day_Has_Passed-bezier4" stroke="none" fill="rgb(255, 255, 254)" d="M 4.9,2.51 C 4.58,2.57 4.13,2.74 3.68,3.08 3.09,3.51 2.67,4.11 2.51,4.9 2.46,5.17 2.63,5.44 2.9,5.49 3.17,5.54 3.44,5.37 3.49,5.1 3.6,4.57 3.87,4.18 4.27,3.88 4.59,3.65 4.91,3.53 5.1,3.49 5.37,3.44 5.54,3.17 5.49,2.9 5.44,2.63 5.17,2.46 4.9,2.51 Z M 4.9,2.51" />
            <path id="multiple_Reminders_One_Day_Has_Passed-bezier5" stroke="none" fill="rgb(255, 255, 254)" d="M 3.9,0.51 C 3.45,0.6 2.81,0.84 2.16,1.32 1.32,1.93 0.73,2.78 0.51,3.9 0.46,4.17 0.63,4.44 0.9,4.49 1.17,4.54 1.44,4.37 1.49,4.1 1.66,3.24 2.11,2.6 2.75,2.12 3.05,1.9 3.37,1.74 3.69,1.62 3.88,1.54 4.03,1.5 4.1,1.49 4.37,1.44 4.54,1.17 4.49,0.9 4.44,0.63 4.17,0.46 3.9,0.51 Z M 3.9,0.51" />
        </g>
    </g>
    <g id="multiple_Reminders_One_Day_Has_Passed-group6" transform="translate(11.25, 5.5) scale(1.58, 1.42)" >
        <g id="multiple_Reminders_One_Day_Has_Passed-group7" transform="" >
            <path id="multiple_Reminders_One_Day_Has_Passed-bezier6" stroke="none" fill="rgb(255, 255, 254)" d="M 4.19,3.99 L 4.19,2.7 C 4.19,2.08 3.82,1.57 3.28,1.43 L 3.13,1.39 3.13,1.23 3.13,1.06 C 3.13,0.99 3.07,0.92 3,0.92 2.94,0.92 2.87,0.99 2.87,1.06 L 2.87,1.23 2.87,1.39 2.73,1.43 C 2.18,1.57 1.81,2.08 1.81,2.7 L 1.81,3.99 1.81,4.07 1.75,4.14 1.33,4.6 1.38,4.46 1.38,4.69 1.19,4.48 4.81,4.48 4.62,4.69 4.62,4.46 4.68,4.6 4.25,4.14 4.19,4.07 4.19,3.99 Z M 4.58,3.99 L 4.52,3.84 4.95,4.31 5,4.37 5,4.46 5,4.69 5,4.9 4.81,4.9 1.19,4.9 1,4.9 1,4.69 1,4.46 1,4.37 1.06,4.31 1.48,3.84 1.43,3.99 1.43,2.7 C 1.43,1.89 1.92,1.21 2.64,1.02 L 2.68,1.23 2.49,1.23 2.49,1.06 C 2.49,0.76 2.72,0.5 3,0.5 3.28,0.5 3.51,0.76 3.51,1.06 L 3.51,1.23 3.32,1.23 3.37,1.02 C 4.08,1.21 4.58,1.89 4.58,2.7 L 4.58,3.99 Z M 3,5.5 C 2.72,5.5 2.5,5.28 2.5,5 L 3.5,5 C 3.5,5.28 3.28,5.5 3,5.5 Z M 3,5.5" />
        </g>
        <g id="multiple_Reminders_One_Day_Has_Passed-group8" transform="translate(4, -0) scale(0.33, 0.33)" >
            <path id="multiple_Reminders_One_Day_Has_Passed-bezier7" stroke="none" fill="rgb(255, 255, 254)" d="M 1.1,2.51 C 1.42,2.57 1.87,2.74 2.32,3.08 2.91,3.51 3.33,4.11 3.49,4.9 3.54,5.17 3.37,5.44 3.1,5.49 2.83,5.54 2.56,5.37 2.51,5.1 2.4,4.57 2.13,4.18 1.73,3.88 1.41,3.65 1.09,3.53 0.9,3.49 0.63,3.44 0.46,3.17 0.51,2.9 0.56,2.63 0.83,2.46 1.1,2.51 Z M 1.1,2.51" />
            <path id="multiple_Reminders_One_Day_Has_Passed-bezier8" stroke="none" fill="rgb(255, 255, 254)" d="M 2.1,0.51 C 2.55,0.6 3.19,0.84 3.84,1.32 4.68,1.93 5.27,2.78 5.49,3.9 5.54,4.17 5.37,4.44 5.1,4.49 4.83,4.54 4.56,4.37 4.51,4.1 4.34,3.24 3.89,2.6 3.25,2.12 2.95,1.9 2.63,1.74 2.31,1.62 2.12,1.54 1.97,1.5 1.9,1.49 1.63,1.44 1.46,1.17 1.51,0.9 1.56,0.63 1.83,0.46 2.1,0.51 Z M 2.1,0.51" />
        </g>
        <g id="multiple_Reminders_One_Day_Has_Passed-group9" transform="scale(0.33, 0.33)" >
            <path id="multiple_Reminders_One_Day_Has_Passed-bezier9" stroke="none" fill="rgb(255, 255, 254)" d="M 4.9,2.51 C 4.58,2.57 4.13,2.74 3.68,3.08 3.09,3.51 2.67,4.11 2.51,4.9 2.46,5.17 2.63,5.44 2.9,5.49 3.17,5.54 3.44,5.37 3.49,5.1 3.6,4.57 3.87,4.18 4.27,3.88 4.59,3.65 4.91,3.53 5.1,3.49 5.37,3.44 5.54,3.17 5.49,2.9 5.44,2.63 5.17,2.46 4.9,2.51 Z M 4.9,2.51" />
            <path id="multiple_Reminders_One_Day_Has_Passed-bezier10" stroke="none" fill="rgb(255, 255, 254)" d="M 3.9,0.51 C 3.45,0.6 2.81,0.84 2.16,1.32 1.32,1.93 0.73,2.78 0.51,3.9 0.46,4.17 0.63,4.44 0.9,4.49 1.17,4.54 1.44,4.37 1.49,4.1 1.66,3.24 2.11,2.6 2.75,2.12 3.05,1.9 3.37,1.74 3.69,1.62 3.88,1.54 4.03,1.5 4.1,1.49 4.37,1.44 4.54,1.17 4.49,0.9 4.44,0.63 4.17,0.46 3.9,0.51 Z M 3.9,0.51" />
        </g>
    </g>
    <g id="multiple_Reminders_One_Day_Has_Passed-group10" transform="translate(7.25, 13.5) scale(1.58, 1.42)" >
        <g id="multiple_Reminders_One_Day_Has_Passed-group11" transform="" >
            <path id="multiple_Reminders_One_Day_Has_Passed-bezier11" stroke="none" fill="rgb(255, 255, 254)" d="M 4.19,3.99 L 4.19,2.7 C 4.19,2.08 3.82,1.57 3.28,1.43 L 3.13,1.39 3.13,1.23 3.13,1.06 C 3.13,0.99 3.07,0.92 3,0.92 2.94,0.92 2.87,0.99 2.87,1.06 L 2.87,1.23 2.87,1.39 2.73,1.43 C 2.18,1.57 1.81,2.08 1.81,2.7 L 1.81,3.99 1.81,4.07 1.75,4.14 1.33,4.6 1.38,4.46 1.38,4.69 1.19,4.48 4.81,4.48 4.62,4.69 4.62,4.46 4.68,4.6 4.25,4.14 4.19,4.07 4.19,3.99 Z M 4.58,3.99 L 4.52,3.84 4.95,4.31 5,4.37 5,4.46 5,4.69 5,4.9 4.81,4.9 1.19,4.9 1,4.9 1,4.69 1,4.46 1,4.37 1.06,4.31 1.48,3.84 1.43,3.99 1.43,2.7 C 1.43,1.89 1.92,1.21 2.64,1.02 L 2.68,1.23 2.49,1.23 2.49,1.06 C 2.49,0.76 2.72,0.5 3,0.5 3.28,0.5 3.51,0.76 3.51,1.06 L 3.51,1.23 3.32,1.23 3.37,1.02 C 4.08,1.21 4.58,1.89 4.58,2.7 L 4.58,3.99 Z M 3,5.5 C 2.72,5.5 2.5,5.28 2.5,5 L 3.5,5 C 3.5,5.28 3.28,5.5 3,5.5 Z M 3,5.5" />
        </g>
        <g id="multiple_Reminders_One_Day_Has_Passed-group12" transform="translate(4, -0) scale(0.33, 0.33)" >
            <path id="multiple_Reminders_One_Day_Has_Passed-bezier12" stroke="none" fill="rgb(255, 255, 254)" d="M 1.1,2.51 C 1.42,2.57 1.87,2.74 2.32,3.08 2.91,3.51 3.33,4.11 3.49,4.9 3.54,5.17 3.37,5.44 3.1,5.49 2.83,5.54 2.56,5.37 2.51,5.1 2.4,4.57 2.13,4.18 1.73,3.88 1.41,3.65 1.09,3.53 0.9,3.49 0.63,3.44 0.46,3.17 0.51,2.9 0.56,2.63 0.83,2.46 1.1,2.51 Z M 1.1,2.51" />
            <path id="multiple_Reminders_One_Day_Has_Passed-bezier13" stroke="none" fill="rgb(255, 255, 254)" d="M 2.1,0.51 C 2.55,0.6 3.19,0.84 3.84,1.32 4.68,1.93 5.27,2.78 5.49,3.9 5.54,4.17 5.37,4.44 5.1,4.49 4.83,4.54 4.56,4.37 4.51,4.1 4.34,3.24 3.89,2.6 3.25,2.12 2.95,1.9 2.63,1.74 2.31,1.62 2.12,1.54 1.97,1.5 1.9,1.49 1.63,1.44 1.46,1.17 1.51,0.9 1.56,0.63 1.83,0.46 2.1,0.51 Z M 2.1,0.51" />
        </g>
        <g id="multiple_Reminders_One_Day_Has_Passed-group13" transform="scale(0.33, 0.33)" >
            <path id="multiple_Reminders_One_Day_Has_Passed-bezier14" stroke="none" fill="rgb(255, 255, 254)" d="M 4.9,2.51 C 4.58,2.57 4.13,2.74 3.68,3.08 3.09,3.51 2.67,4.11 2.51,4.9 2.46,5.17 2.63,5.44 2.9,5.49 3.17,5.54 3.44,5.37 3.49,5.1 3.6,4.57 3.87,4.18 4.27,3.88 4.59,3.65 4.91,3.53 5.1,3.49 5.37,3.44 5.54,3.17 5.49,2.9 5.44,2.63 5.17,2.46 4.9,2.51 Z M 4.9,2.51" />
            <path id="multiple_Reminders_One_Day_Has_Passed-bezier15" stroke="none" fill="rgb(255, 255, 254)" d="M 3.9,0.51 C 3.45,0.6 2.81,0.84 2.16,1.32 1.32,1.93 0.73,2.78 0.51,3.9 0.46,4.17 0.63,4.44 0.9,4.49 1.17,4.54 1.44,4.37 1.49,4.1 1.66,3.24 2.11,2.6 2.75,2.12 3.05,1.9 3.37,1.74 3.69,1.62 3.88,1.54 4.03,1.5 4.1,1.49 4.37,1.44 4.54,1.17 4.49,0.9 4.44,0.63 4.17,0.46 3.9,0.51 Z M 3.9,0.51" />
        </g>
    </g>
</svg>
