<?xml version="1.0" encoding="UTF-8"?>
<!DOCTYPE svg PUBLIC "-//W3C//DTD SVG 1.1//EN" "http://www.w3.org/Graphics/SVG/1.1/DTD/svg11.dtd">
<svg version="1.1" xmlns="http://www.w3.org/2000/svg" xmlns:xlink="http://www.w3.org/1999/xlink" width="24" height="24"  xml:space="preserve" id="reminder_Has_Been_Acknowledged">
    <!-- Generated by PaintCode - http://www.paintcodeapp.com -->
    <g id="reminder_Has_Been_Acknowledged-group" transform="scale(2.18, 2.18)" >
        <path id="reminder_Has_Been_Acknowledged-oval" stroke="none" fill="rgb(82, 176, 73)" d="M 10,5.5 C 10,7.99 7.99,10 5.5,10 3.01,10 1,7.99 1,5.5 1,3.01 3.01,1 5.5,1 7.99,1 10,3.01 10,5.5 Z M 10,5.5" />
    </g>
    <g id="reminder_Has_Been_Acknowledged-group2" transform="translate(4.5, 4.5) scale(2.5, 2.5)" >
        <path id="reminder_Has_Been_Acknowledged-bezier2" stroke="none" fill="rgb(255, 255, 254)" d="M 4.19,3.99 L 4.19,2.7 C 4.19,2.08 3.82,1.57 3.28,1.43 L 3.13,1.39 3.13,1.23 3.13,1.06 C 3.13,0.99 3.07,0.92 3,0.92 2.94,0.92 2.87,0.99 2.87,1.06 L 2.87,1.23 2.87,1.39 2.73,1.43 C 2.18,1.57 1.81,2.08 1.81,2.7 L 1.81,3.99 1.81,4.07 1.75,4.14 1.33,4.6 1.38,4.46 1.38,4.69 1.19,4.48 4.81,4.48 4.62,4.69 4.62,4.46 4.68,4.6 4.25,4.14 4.19,4.07 4.19,3.99 Z M 4.58,3.99 L 4.52,3.84 4.95,4.31 5,4.37 5,4.46 5,4.69 5,4.9 4.81,4.9 1.19,4.9 1,4.9 1,4.69 1,4.46 1,4.37 1.06,4.31 1.48,3.84 1.43,3.99 1.43,2.7 C 1.43,1.89 1.92,1.21 2.64,1.02 L 2.68,1.23 2.49,1.23 2.49,1.06 C 2.49,0.76 2.72,0.5 3,0.5 3.28,0.5 3.51,0.76 3.51,1.06 L 3.51,1.23 3.32,1.23 3.37,1.02 C 4.08,1.21 4.58,1.89 4.58,2.7 L 4.58,3.99 Z M 3,5.5 C 2.72,5.5 2.5,5.28 2.5,5 L 3.5,5 C 3.5,5.28 3.28,5.5 3,5.5 Z M 3,5.5" />
        <g id="reminder_Has_Been_Acknowledged-group3" transform="translate(2, 2) scale(0.25, 0.25)" >
            <path id="reminder_Has_Been_Acknowledged-bezier" stroke="none" fill="rgb(255, 255, 254)" d="M 1.51,4.31 L 3.82,6.45 2.67,6.61 6.36,0.61 C 6.58,0.25 7.04,0.14 7.39,0.36 7.75,0.58 7.86,1.04 7.64,1.39 L 3.95,7.39 C 3.7,7.8 3.14,7.87 2.8,7.55 L 0.49,5.41 C 0.19,5.12 0.17,4.65 0.45,4.35 0.73,4.04 1.21,4.03 1.51,4.31 Z M 1.51,4.31" />
        </g>
    </g>
</svg>
