<?xml version="1.0" encoding="UTF-8"?>
<!DOCTYPE svg PUBLIC "-//W3C//DTD SVG 1.1//EN" "http://www.w3.org/Graphics/SVG/1.1/DTD/svg11.dtd">
<svg version="1.1" xmlns="http://www.w3.org/2000/svg" xmlns:xlink="http://www.w3.org/1999/xlink" width="24" height="24"  xml:space="preserve" id="switch_IV_To_Oral">
    <!-- Generated by PaintCode - http://www.paintcodeapp.com -->
    <g id="switch_IV_To_Oral-group34">
        <path id="switch_IV_To_Oral-bezier" stroke="rgb(217, 38, 45)" stroke-width="0.5" stroke-miterlimit="10" fill="none" d="M 18.29,7.25 C 18.29,7.25 17.42,6.12 15.05,4.53 13.43,3.44 11.24,3.56 9.66,5.96 12.03,5.16 13.43,5.31 15.05,6.7 16.75,8.17 16.67,8.88 16.67,8.88 L 15.59,9.96 15.32,10.78 20.17,10.78 20.17,5.89 19.36,6.16 18.29,7.25 Z M 18.29,7.25" />
        <path id="switch_IV_To_Oral-bezier2" stroke="rgb(217, 38, 45)" stroke-width="0.5" stroke-miterlimit="10" fill="none" d="M 6.62,15.92 C 6.62,15.92 7.48,17.04 9.86,18.64 11.48,19.72 13.67,19.6 15.25,17.21 12.88,18.01 11.48,17.85 9.86,16.46 8.16,15 8.24,14.29 8.24,14.29 L 9.32,13.2 9.59,12.38 4.73,12.38 4.73,17.28 5.54,17 6.62,15.92 Z M 6.62,15.92" />
        <path id="switch_IV_To_Oral-bezier3" stroke="none" fill="rgb(217, 38, 45)" d="M 5,6.64 L 4.48,6.64 4.48,11.03 5,11.03 5,6.64 Z M 8.86,6.64 L 7.62,10.11 C 7.57,10.25 7.54,10.39 7.52,10.51 L 7.51,10.51 C 7.49,10.36 7.46,10.23 7.42,10.12 L 6.2,6.64 5.63,6.64 7.22,11.03 7.79,11.03 9.42,6.64 8.86,6.64 Z M 8.86,6.64" />
        <path id="switch_IV_To_Oral-bezier4" stroke="none" fill="rgb(217, 38, 45)" d="M 14.53,14.62 C 15.02,14.62 15.41,14.49 15.7,14.22 15.98,13.96 16.13,13.61 16.13,13.2 16.13,12.78 16,12.46 15.74,12.23 15.48,12 15.12,11.89 14.65,11.89 L 13.44,11.89 13.44,16.28 13.96,16.28 13.96,14.62 14.53,14.62 Z M 14.56,12.35 C 15.24,12.35 15.59,12.64 15.59,13.22 15.59,13.52 15.49,13.75 15.31,13.91 15.12,14.07 14.85,14.15 14.49,14.15 L 13.96,14.15 13.96,12.35 14.56,12.35 Z M 20.25,15.73 C 20.63,15.31 20.82,14.74 20.82,14.03 20.82,13.37 20.63,12.83 20.26,12.43 19.89,12.02 19.4,11.81 18.8,11.81 18.14,11.81 17.62,12.02 17.24,12.44 16.86,12.86 16.67,13.43 16.67,14.13 16.67,14.79 16.85,15.33 17.23,15.74 17.6,16.15 18.1,16.35 18.72,16.35 19.36,16.35 19.87,16.14 20.25,15.73 Z M 19.88,12.75 C 20.14,13.07 20.28,13.52 20.28,14.1 20.28,14.66 20.14,15.1 19.86,15.42 19.59,15.73 19.21,15.89 18.72,15.89 18.27,15.89 17.91,15.72 17.63,15.39 17.35,15.07 17.2,14.63 17.2,14.09 17.2,13.55 17.35,13.11 17.64,12.78 17.92,12.45 18.3,12.28 18.76,12.28 19.23,12.28 19.61,12.44 19.88,12.75 Z M 19.88,12.75" />
    </g>
</svg>
