<?xml version="1.0" encoding="UTF-8"?>
<!DOCTYPE svg PUBLIC "-//W3C//DTD SVG 1.1//EN" "http://www.w3.org/Graphics/SVG/1.1/DTD/svg11.dtd">
<svg version="1.1" xmlns="http://www.w3.org/2000/svg" xmlns:xlink="http://www.w3.org/1999/xlink" width="24" height="24"  xml:space="preserve" id="automaticallyCharted">
    <!-- Generated by PaintCode - http://www.paintcodeapp.com -->
    <g id="automaticallyCharted-group" transform="scale(2.18, 2.18)" >
        <rect id="automaticallyCharted-rectangle" stroke="none" fill="rgb(82, 176, 73)" x="1" y="1" width="9" height="9" rx="2" />
    </g>
    <g id="automaticallyCharted-group2" transform="translate(1, 2) scale(3.5, 3.5)" >
        <path id="automaticallyCharted-bezier7" stroke="none" fill="rgb(255, 255, 255)" d="M 3.68,0.5 C 3.86,0.77 4,0.98 4,0.98 4,0.98 4.14,0.77 4.32,0.5 4.51,0.54 4.68,0.61 4.83,0.71 4.77,1.03 4.72,1.28 4.72,1.28 4.72,1.28 4.97,1.23 5.29,1.17 5.39,1.32 5.46,1.49 5.5,1.68 5.23,1.86 5.02,2 5.02,2 5.02,2 5.23,2.14 5.5,2.32 5.46,2.51 5.39,2.68 5.29,2.83 4.97,2.77 4.72,2.72 4.72,2.72 4.72,2.72 4.77,2.97 4.83,3.29 4.68,3.39 4.51,3.46 4.32,3.5 4.14,3.23 4,3.02 4,3.02 4,3.02 3.86,3.23 3.68,3.5 3.49,3.46 3.32,3.39 3.17,3.29 3.23,2.97 3.28,2.72 3.28,2.72 3.28,2.72 3.03,2.77 2.71,2.83 2.61,2.68 2.54,2.51 2.5,2.32 2.77,2.14 2.98,2 2.98,2 2.98,2 2.77,1.86 2.5,1.68 2.54,1.49 2.61,1.32 2.71,1.17 3.03,1.23 3.28,1.28 3.28,1.28 3.28,1.28 3.23,1.03 3.17,0.71 3.32,0.61 3.49,0.54 3.68,0.5 Z M 4,1.56 C 3.91,1.56 3.83,1.59 3.76,1.64 3.64,1.71 3.56,1.85 3.56,2 3.56,2.24 3.76,2.44 4,2.44 4.24,2.44 4.44,2.24 4.44,2 4.44,1.76 4.24,1.56 4,1.56 Z M 4,1.56" />
        <path id="automaticallyCharted-bezier2" stroke="none" fill="rgb(255, 255, 255)" d="M 2,3.21 C 2.01,3.22 2.07,3.13 2.16,3 2.32,3.03 2.48,3.1 2.61,3.2 2.58,3.35 2.55,3.46 2.55,3.46 2.55,3.46 2.66,3.44 2.82,3.41 2.91,3.54 2.98,3.69 3,3.86 2.87,3.95 2.78,4.01 2.78,4.01 2.78,4.01 2.87,4.07 3,4.16 2.97,4.33 2.9,4.48 2.81,4.61 2.65,4.58 2.54,4.55 2.54,4.55 2.54,4.55 2.56,4.66 2.59,4.82 2.46,4.91 2.31,4.98 2.14,5 2.05,4.87 1.99,4.78 1.99,4.78 1.99,4.78 1.93,4.87 1.84,5 1.68,4.97 1.52,4.9 1.39,4.81 1.42,4.65 1.45,4.55 1.45,4.55 1.45,4.55 1.34,4.57 1.18,4.59 1.09,4.46 1.02,4.31 1,4.14 1.13,4.05 1.22,3.99 1.22,3.99 1.22,3.99 1.13,3.93 1,3.84 1.03,3.68 1.1,3.52 1.19,3.39 1.35,3.42 1.46,3.45 1.46,3.45 1.46,3.45 1.44,3.34 1.41,3.19 1.54,3.09 1.69,3.03 1.85,3 1.95,3.13 2.01,3.22 2.01,3.22 L 2,3.21 Z M 2,3.67 C 1.82,3.67 1.67,3.82 1.67,4 1.67,4.18 1.82,4.33 2,4.33 2.18,4.33 2.33,4.18 2.33,4 2.33,3.84 2.22,3.71 2.07,3.68 2.05,3.67 2.02,3.67 2,3.67 Z M 2,3.67" />
    </g>
</svg>
