<?xml version="1.0" encoding="UTF-8"?>
<!DOCTYPE svg PUBLIC "-//W3C//DTD SVG 1.1//EN" "http://www.w3.org/Graphics/SVG/1.1/DTD/svg11.dtd">
<svg version="1.1" xmlns="http://www.w3.org/2000/svg" xmlns:xlink="http://www.w3.org/1999/xlink" width="24" height="24"  xml:space="preserve" id="cancelled">
    <!-- Generated by PaintCode - http://www.paintcodeapp.com -->
    <g id="cancelled-group2" transform="scale(2.18, 2.18)" >
        <path id="cancelled-oval" stroke="none" fill="rgb(180, 200, 206)" d="M 10,5.5 C 10,7.99 7.99,10 5.5,10 3.01,10 1,7.99 1,5.5 1,3.01 3.01,1 5.5,1 7.99,1 10,3.01 10,5.5 Z M 10,5.5" />
    </g>
    <g id="cancelled-group">
        <path id="cancelled-bezier" stroke="none" fill="rgb(255, 255, 255)" d="M 7.64,6 L 9.57,7 5.71,14 3.79,11 7.64,6 Z M 7.64,6" />
        <path id="cancelled-bezier2" stroke="none" fill="rgb(255, 255, 255)" d="M 5.71,17 L 11.5,6 13.43,8 7.7,19 5.71,17 Z M 5.71,17" />
        <path id="cancelled-bezier3" stroke="none" fill="rgb(255, 255, 255)" d="M 10.54,16 L 16.32,5 18.25,7 13.43,17 10.54,16 Z M 10.54,16" />
        <path id="cancelled-bezier4" stroke="none" fill="rgb(255, 255, 255)" d="M 16.32,19 L 14.42,17 17.29,11 19.21,13 16.32,19 Z M 16.32,19" />
    </g>
</svg>
