<?xml version="1.0" encoding="UTF-8"?>
<!DOCTYPE svg PUBLIC "-//W3C//DTD SVG 1.1//EN" "http://www.w3.org/Graphics/SVG/1.1/DTD/svg11.dtd">
<svg version="1.1" xmlns="http://www.w3.org/2000/svg" xmlns:xlink="http://www.w3.org/1999/xlink" width="24" height="24"  xml:space="preserve" id="completed_Days_Of_Antimicrobials">
    <!-- Generated by PaintCode - http://www.paintcodeapp.com -->
    <g id="completed_Days_Of_Antimicrobials-group" transform="scale(2.18, 2.18)" >
        <path id="completed_Days_Of_Antimicrobials-oval" stroke="none" fill="rgb(60, 152, 199)" d="M 10,5.5 C 10,7.99 7.99,10 5.5,10 3.01,10 1,7.99 1,5.5 1,3.01 3.01,1 5.5,1 7.99,1 10,3.01 10,5.5 Z M 10,5.5" />
    </g>
    <path id="completed_Days_Of_Antimicrobials-bezier131" stroke="none" fill="rgb(255, 255, 254)" d="M 11.75,14.43 C 11.62,14.43 11.49,14.45 11.36,14.47 11.22,14.49 11.08,14.52 10.95,14.55 L 12.84,12.62 C 13.04,12.42 13.23,12.23 13.41,12.03 13.59,11.83 13.74,11.63 13.88,11.42 14.02,11.22 14.13,11 14.21,10.77 14.29,10.54 14.33,10.3 14.33,10.03 14.33,9.72 14.27,9.44 14.16,9.19 14.05,8.94 13.9,8.73 13.71,8.56 13.51,8.39 13.28,8.26 13.02,8.17 12.76,8.08 12.47,8.03 12.17,8.03 11.86,8.03 11.58,8.08 11.32,8.17 11.05,8.26 10.82,8.38 10.61,8.55 10.41,8.72 10.24,8.94 10.1,9.19 9.97,9.44 9.88,9.73 9.83,10.05 L 10.3,10.13 C 10.42,10.15 10.52,10.14 10.58,10.1 10.65,10.06 10.71,9.99 10.75,9.87 10.78,9.71 10.84,9.57 10.92,9.44 11,9.31 11.1,9.2 11.21,9.1 11.33,9.01 11.47,8.93 11.62,8.88 11.77,8.83 11.94,8.8 12.13,8.8 12.31,8.8 12.47,8.83 12.63,8.88 12.79,8.93 12.92,9.01 13.04,9.11 13.15,9.21 13.24,9.34 13.31,9.5 13.38,9.66 13.41,9.84 13.41,10.05 13.41,10.26 13.38,10.46 13.32,10.65 13.26,10.83 13.18,11.01 13.07,11.19 12.96,11.37 12.82,11.55 12.67,11.73 12.51,11.91 12.34,12.1 12.15,12.29 L 9.85,14.59 C 9.79,14.65 9.75,14.71 9.73,14.78 9.7,14.85 9.69,14.91 9.69,14.97 L 9.69,15.28 14.47,15.28 14.47,14.74 C 14.47,14.65 14.44,14.58 14.38,14.52 14.32,14.46 14.25,14.43 14.15,14.43 L 11.75,14.43 Z M 11.75,14.43" />
</svg>
