<?xml version="1.0" encoding="UTF-8"?>
<!DOCTYPE svg PUBLIC "-//W3C//DTD SVG 1.1//EN" "http://www.w3.org/Graphics/SVG/1.1/DTD/svg11.dtd">
<svg version="1.1" xmlns="http://www.w3.org/2000/svg" xmlns:xlink="http://www.w3.org/1999/xlink" width="24" height="24"  xml:space="preserve" id="modified">
    <!-- Generated by PaintCode - http://www.paintcodeapp.com -->
    <g id="modified-group" transform="" >
        <g id="modified-group2" transform="scale(2.18, 2.18)" >
            <path id="modified-oval" stroke="none" fill="rgb(237, 159, 51)" d="M 10,5.5 C 10,7.99 7.99,10 5.5,10 3.01,10 1,7.99 1,5.5 1,3.01 3.01,1 5.5,1 7.99,1 10,3.01 10,5.5 Z M 10,5.5" />
        </g>
        <g id="modified-group3" transform="translate(5.5, 5.5) scale(1.3, 1.3)" >
            <path id="modified-bezier" stroke="none" fill="rgb(255, 255, 255)" d="M 3.21,0.3 L 2.5,0.3 2.5,4.43 5,7.12 7.5,4.43 7.5,0.3 3.21,0.3 Z M 6.67,3.64 L 6.67,4.33 5.85,5.18 4.18,5.18 3.33,4.33 3.33,3.48 3.33,3.24 3.33,0.3 4.17,0.3 4.17,3.09 5.83,3.09 5.83,0.3 6.67,0.3 6.67,2.94 6.67,3.64 Z M 5.95,8.58 C 5.95,9.1 5.53,9.53 5,9.53 4.48,9.53 4.05,9.1 4.05,8.58 4.05,8.05 4.48,7.63 5,7.63 5.53,7.63 5.95,8.05 5.95,8.58 Z M 5.95,8.58" />
        </g>
    </g>
</svg>
