<?xml version="1.0" encoding="UTF-8"?>
<!DOCTYPE svg PUBLIC "-//W3C//DTD SVG 1.1//EN" "http://www.w3.org/Graphics/SVG/1.1/DTD/svg11.dtd">
<svg version="1.1" xmlns="http://www.w3.org/2000/svg" xmlns:xlink="http://www.w3.org/1999/xlink" width="24" height="24"  xml:space="preserve" id="pharmacist_Review_Complete">
    <!-- Generated by PaintCode - http://www.paintcodeapp.com -->
    <g id="pharmacist_Review_Complete-group" transform="" >
        <g id="pharmacist_Review_Complete-group3" transform="scale(2.18, 2.18)" >
            <path id="pharmacist_Review_Complete-oval" stroke="none" fill="rgb(82, 176, 73)" d="M 10,5.5 C 10,7.99 7.99,10 5.5,10 3.01,10 1,7.99 1,5.5 1,3.01 3.01,1 5.5,1 7.99,1 10,3.01 10,5.5 Z M 10,5.5" />
        </g>
        <g id="pharmacist_Review_Complete-group4" transform="translate(3, 3) scale(0.75, 0.75)" >
            <g id="pharmacist_Review_Complete-group5" transform="translate(3, 3) scale(1.8, 1.8)" >
                <path id="pharmacist_Review_Complete-bezier" stroke="none" fill="rgb(255, 255, 255)" d="M 1.32,10 L 8.68,10 8.68,8.5 1.32,8.5 1.32,10 Z M 1.32,10" />
                <path id="pharmacist_Review_Complete-bezier3" stroke="none" fill="rgb(255, 255, 255)" d="M 0.5,5.14 L 0.5,6.45 C 0.5,7.17 1.05,7.76 1.73,7.76 L 1.73,7.76 8.27,7.76 C 8.95,7.76 9.5,7.17 9.5,6.45 L 9.5,6.45 9.5,5.14 0.5,5.14 Z M 0.5,5.14" />
                <path id="pharmacist_Review_Complete-bezier4" stroke="none" fill="rgb(255, 255, 255)" d="M 3.91,4.27 L 6.18,4.27 8.54,1.73 7.38,0.5 3.91,4.27 Z M 3.91,4.27" />
            </g>
        </g>
    </g>
    <g id="pharmacist_Review_Complete-group2" transform="translate(7, 6) scale(0.5, 0.5)" >
        <path id="pharmacist_Review_Complete-bezier2" stroke="none" fill="rgb(255, 255, 255)" d="M 1.51,4.31 L 3.82,6.45 2.67,6.61 6.36,0.61 C 6.58,0.25 7.04,0.14 7.39,0.36 7.75,0.58 7.86,1.04 7.64,1.39 L 3.95,7.39 C 3.7,7.8 3.14,7.87 2.8,7.55 L 0.49,5.41 C 0.19,5.12 0.17,4.65 0.45,4.35 0.73,4.04 1.21,4.03 1.51,4.31 Z M 1.51,4.31" />
    </g>
</svg>
