<?xml version="1.0" encoding="UTF-8"?>
<!DOCTYPE svg PUBLIC "-//W3C//DTD SVG 1.1//EN" "http://www.w3.org/Graphics/SVG/1.1/DTD/svg11.dtd">
<svg version="1.1" xmlns="http://www.w3.org/2000/svg" xmlns:xlink="http://www.w3.org/1999/xlink" width="24" height="24"  xml:space="preserve" id="suspended_Therapy">
    <!-- Generated by PaintCode - http://www.paintcodeapp.com -->
    <g id="suspended_Therapy-group" transform="scale(2.18, 2.18)" >
        <path id="suspended_Therapy-oval" stroke="none" fill="rgb(236, 231, 59)" d="M 10,5.5 C 10,7.99 7.99,10 5.5,10 3.01,10 1,7.99 1,5.5 1,3.01 3.01,1 5.5,1 7.99,1 10,3.01 10,5.5 Z M 10,5.5" />
    </g>
    <g id="suspended_Therapy-group2" transform="translate(4.5, 4.5) scale(2.5, 2.5)" >
        <path id="suspended_Therapy-bezier3" stroke="none" fill="rgb(255, 255, 255)" d="M 1.5,4.5 L 2.5,4.5 2.5,1.5 1.5,1.5 1.5,4.5 Z M 1.5,4.5" />
        <path id="suspended_Therapy-bezier4" stroke="none" fill="rgb(255, 255, 255)" d="M 3.5,4.5 L 4.5,4.5 4.5,1.5 3.5,1.5 3.5,4.5 Z M 3.5,4.5" />
    </g>
</svg>
