<?xml version="1.0" encoding="UTF-8"?>
<!DOCTYPE svg PUBLIC "-//W3C//DTD SVG 1.1//EN" "http://www.w3.org/Graphics/SVG/1.1/DTD/svg11.dtd">
<svg version="1.1" xmlns="http://www.w3.org/2000/svg" xmlns:xlink="http://www.w3.org/1999/xlink" width="24" height="24"  xml:space="preserve" id="drug_Information">
    <!-- Generated by PaintCode - http://www.paintcodeapp.com -->
    <g id="drug_Information-group" transform="translate(3, 3) scale(1.7, 1.7)" >
        <path id="drug_Information-bezier165" stroke="none" fill="rgb(90, 70, 128)" d="M 6.17,3.82 L 6.13,3.72 6.41,3.62 6.43,3.9 4.02,3.99 4.31,3.75 4.17,4.53 3.91,4.2 4.64,4.28 4.96,4.32 4.9,4.62 C 4.87,4.78 4.83,4.97 4.77,5.22 4.74,5.32 4.62,5.8 4.59,5.93 4.57,6 4.56,6.07 4.54,6.14 4.37,6.88 4.27,7.39 4.27,7.62 4.27,8.18 4.59,8.43 5.1,8.43 5.61,8.43 6.04,8.2 6.38,7.8 L 6.37,8.14 6.1,7.79 6.34,7.62 6.54,7.84 C 6.31,8.02 6.12,8.11 5.91,8.11 5.46,8.11 5.29,7.78 5.37,7.3 5.44,6.9 6.16,3.65 6.15,3.66 L 6.45,3.72 6.17,3.82 Z M 6.74,3.62 L 6.77,3.69 6.75,3.77 C 6.75,3.79 6.03,7.01 5.97,7.39 5.94,7.57 5.92,7.54 5.91,7.54 5.94,7.54 6.02,7.5 6.15,7.4 L 6.4,7.2 6.59,7.45 6.86,7.81 7,7.98 6.86,8.15 C 6.41,8.68 5.81,9 5.1,9 4.27,9 3.67,8.52 3.67,7.62 3.67,7.33 3.76,6.8 3.95,6.02 3.96,5.95 3.98,5.87 4,5.8 4.03,5.67 4.15,5.19 4.17,5.09 4.23,4.84 4.28,4.66 4.31,4.51 L 4.57,4.85 3.84,4.77 3.52,4.74 3.57,4.44 3.71,3.66 3.75,3.43 4,3.42 6.4,3.33 6.62,3.32 6.7,3.52 6.74,3.62 Z M 5.78,0.97 C 5.24,0.97 4.87,1.3 4.87,1.82 4.87,2.13 5.02,2.3 5.43,2.3 5.95,2.3 6.33,1.96 6.33,1.48 6.33,1.11 6.18,0.97 5.78,0.97 Z M 5.78,0.4 C 6.51,0.4 6.94,0.79 6.94,1.48 6.94,2.29 6.27,2.87 5.43,2.87 4.66,2.87 4.26,2.43 4.26,1.82 4.26,0.97 4.92,0.4 5.78,0.4 Z M 5.78,0.4" />
    </g>
</svg>
