<?xml version="1.0" encoding="UTF-8"?>
<!DOCTYPE svg PUBLIC "-//W3C//DTD SVG 1.1//EN" "http://www.w3.org/Graphics/SVG/1.1/DTD/svg11.dtd">
<svg version="1.1" xmlns="http://www.w3.org/2000/svg" xmlns:xlink="http://www.w3.org/1999/xlink" width="24" height="24"  xml:space="preserve" id="edit_And_Add">
    <!-- Generated by PaintCode - http://www.paintcodeapp.com -->
    <g id="edit_And_Add-group67">
    </g>
    <g id="edit_And_Add-group" transform="translate(1, 6) scale(3.33, 3.33)" >
        <path id="edit_And_Add-bezier96" stroke="none" fill="rgb(34, 11, 91)" d="M 4.61,2.79 C 4.6,2.78 4.58,2.75 4.54,2.71 4.47,2.63 4.38,2.55 4.28,2.45 3.97,2.17 3.58,1.87 3.09,1.54 2.28,1.02 1.34,1.2 0.68,2.18 L 0.53,1.99 C 1.72,1.59 2.44,1.69 3.24,2.36 3.6,2.66 3.83,2.92 3.95,3.14 4.04,3.29 4.07,3.41 4.07,3.49 4.07,3.49 4.07,3.49 4.06,3.49 L 4.06,3.54 4.03,3.57 3.51,4.08 3.54,4.03 3.41,4.41 3.29,4.24 5.62,4.24 5.49,4.37 5.49,2.08 5.66,2.2 5.27,2.32 5.32,2.29 4.81,2.8 4.7,2.91 4.61,2.79 Z M 4.82,2.64 L 4.62,2.62 5.14,2.11 5.16,2.09 5.19,2.08 5.58,1.96 5.75,1.9 5.75,2.08 5.75,4.37 5.75,4.5 5.62,4.5 3.29,4.5 3.11,4.5 3.17,4.33 3.29,3.95 3.3,3.92 3.33,3.9 3.84,3.39 3.81,3.46 C 3.81,3.47 3.81,3.47 3.81,3.47 3.81,3.44 3.79,3.38 3.73,3.27 3.62,3.07 3.41,2.84 3.07,2.56 2.35,1.94 1.73,1.86 0.61,2.23 L 0.25,2.35 0.46,2.04 C 1.2,0.95 2.3,0.72 3.23,1.33 3.73,1.66 4.14,1.98 4.45,2.26 4.56,2.36 4.65,2.46 4.73,2.53 4.77,2.58 4.8,2.62 4.82,2.64 Z M 4.82,2.64" />
    </g>
    <g id="edit_And_Add-group2" clip-path="url(#edit_And_Add-rectangle)" transform="translate(10, -0) scale(0.62, 0.62)" >
        <clipPath id="edit_And_Add-rectangle">
            <rect x="0" y="-24" width="24" height="24"  transform="translate(0, 24)" />
        </clipPath>
        <g id="edit_And_Add-group3" transform="translate(10.5, 12.5) rotate(45) scale(1, 0.94)" >
            <path id="edit_And_Add-bezier9" stroke="rgb(255, 255, 255)" stroke-width="2" stroke-miterlimit="10" fill="none" d="M -2.25,-11.25 L -2.25,4.5 C -2.25,4.64 -2.36,4.75 -2.5,4.75 -2.63,4.75 -2.75,4.64 -2.75,4.5 L -2.75,-11.25 C -2.75,-11.39 -2.63,-11.5 -2.5,-11.5 -2.36,-11.5 -2.25,-11.39 -2.25,-11.25 Z M -2.25,-11.25" />
            <path id="edit_And_Add-bezier10" stroke="rgb(255, 255, 255)" stroke-width="2" stroke-miterlimit="10" fill="none" d="M 4.75,-11.25 L 4.75,4.5 C 4.75,4.64 4.64,4.75 4.5,4.75 4.36,4.75 4.25,4.64 4.25,4.5 L 4.25,-11.25 C 4.25,-11.39 4.36,-11.5 4.5,-11.5 4.64,-11.5 4.75,-11.39 4.75,-11.25 Z M 4.75,-11.25" />
            <path id="edit_And_Add-bezier11" stroke="rgb(255, 255, 255)" stroke-width="2" stroke-miterlimit="10" fill="none" d="M -2.29,4.37 L 1.21,9.87 0.79,9.87 4.29,4.37 4.71,4.63 1.21,10.13 1,10.47 0.79,10.13 -2.71,4.63 -2.29,4.37 Z M -2.29,4.37" />
            <path id="edit_And_Add-bezier12" stroke="rgb(255, 255, 255)" stroke-width="2" stroke-miterlimit="10" fill="none" d="M -2.75,-11.75 L 4.75,-11.75 4.75,-11.25 -2.75,-11.25 -2.75,-11.75 Z M -2.75,-11.75" />
            <path id="edit_And_Add-editIconbezier5" stroke="rgb(34, 11, 91)" stroke-width="0.5" stroke-miterlimit="4" fill="none" d="M 6.72,5.3 C 6.69,5.27 6.65,5.26 6.62,5.23 6.28,4.88 6.11,4.44 6.06,3.99 5.9,4.01 5.76,4.03 5.62,4.03 4.85,4.03 4.14,3.73 3.6,3.18 3.06,2.64 2.77,1.91 2.77,1.13 2.77,1 2.78,0.85 2.8,0.72 2.35,0.65 1.93,0.45 1.59,0.12 1.55,0.08 1.54,0.04 1.52,0" transform="translate(-3.75, 5.25) rotate(-45)"  />
            <path id="edit_And_Add-bezier3" stroke="none" fill="rgb(34, 11, 91)" d="M -2.25,-11.25 L -2.25,4.5 C -2.25,4.64 -2.36,4.75 -2.5,4.75 -2.63,4.75 -2.75,4.64 -2.75,4.5 L -2.75,-11.25 C -2.75,-11.39 -2.63,-11.5 -2.5,-11.5 -2.36,-11.5 -2.25,-11.39 -2.25,-11.25 Z M -2.25,-11.25" />
            <path id="edit_And_Add-bezier4" stroke="none" fill="rgb(34, 11, 91)" d="M 4.75,-11.25 L 4.75,4.5 C 4.75,4.64 4.64,4.75 4.5,4.75 4.36,4.75 4.25,4.64 4.25,4.5 L 4.25,-11.25 C 4.25,-11.39 4.36,-11.5 4.5,-11.5 4.64,-11.5 4.75,-11.39 4.75,-11.25 Z M 4.75,-11.25" />
            <path id="edit_And_Add-bezier" stroke="rgb(34, 11, 91)" stroke-width="1.5" stroke-miterlimit="10" fill="none" d="M -2.75,-11 L 4.75,-11" />
            <path id="edit_And_Add-bezier2" stroke="rgb(34, 11, 91)" stroke-width="0.5" stroke-linecap="round" stroke-miterlimit="10" fill="none" d="M -1.25,-11.25 L -1.25,3.75 -1.25,3.75" />
            <path id="edit_And_Add-bezier5" stroke="rgb(34, 11, 91)" stroke-width="0.5" stroke-linecap="round" stroke-miterlimit="10" fill="none" d="M 3.25,-11.25 L 3.25,3.75 3.25,3.75" />
            <path id="edit_And_Add-bezier6" stroke="none" fill="rgb(34, 11, 91)" d="M -2.29,4.37 L 1.21,9.87 0.79,9.87 4.29,4.37 4.71,4.63 1.21,10.13 1,10.47 0.79,10.13 -2.71,4.63 -2.29,4.37 Z M -2.29,4.37" />
            <path id="edit_And_Add-bezier7" stroke="none" fill="rgb(34, 11, 91)" d="M -2.75,-11.75 L 4.75,-11.75 4.75,-11.25 -2.75,-11.25 -2.75,-11.75 Z M -2.75,-11.75" />
            <rect id="edit_And_Add-rectangle2" stroke="none" fill="rgb(34, 11, 91)" x="0.5" y="-11.5" width="1" height="15.5" rx="0.5" />
            <path id="edit_And_Add-bezier8" stroke="none" fill="rgb(34, 11, 91)" d="M -0.5,7.5 L 2.5,7.5 1,9.75 -0.5,7.5 Z M -0.5,7.5" />
        </g>
    </g>
</svg>
