<?xml version="1.0" encoding="UTF-8"?>
<!DOCTYPE svg PUBLIC "-//W3C//DTD SVG 1.1//EN" "http://www.w3.org/Graphics/SVG/1.1/DTD/svg11.dtd">
<svg version="1.1" xmlns="http://www.w3.org/2000/svg" xmlns:xlink="http://www.w3.org/1999/xlink" width="24" height="24"  xml:space="preserve" id="inhalation">
    <!-- Generated by PaintCode - http://www.paintcodeapp.com -->
    <g id="inhalation-group" transform="translate(2, 2) scale(0.83, 0.83)" >
        <path id="inhalation-bezier80" stroke="rgb(34, 11, 91)" stroke-width="1" stroke-miterlimit="10" fill="none" d="M 18.5,16.5 L 15.5,16.5 15.98,19.16 C 16.05,19.52 16.36,19.81 16.7,19.81 L 17.3,19.81 C 17.63,19.81 17.95,19.52 18.02,19.16 L 18.5,16.5 Z M 18.5,16.5" />
        <polygon id="inhalation-polygon" stroke="none" fill="rgb(0, 0, 0)" points="-0,0.88 -0.77,-0.44 0.77,-0.44" transform="translate(3.86, 10.37) rotate(50.9)"  />
        <polygon id="inhalation-polygon2" stroke="none" fill="rgb(34, 11, 91)" points="0,0.86 -0.76,-0.43 0.76,-0.43" transform="translate(3.86, 6) rotate(90)"  />
        <path id="inhalation-bezier4" stroke="rgb(34, 11, 91)" stroke-width="0.5" stroke-linecap="square" stroke-linejoin="round" stroke-miterlimit="10" fill="none" d="M 9,8.16 C 6.18,8.09 3.86,10.37 3.86,10.37" />
        <path id="inhalation-bezier6" stroke="rgb(34, 11, 91)" stroke-width="0.5" stroke-miterlimit="10" fill="none" d="M 9.25,5.75 L 4.25,6" />
        <path id="inhalation-bezier7" stroke="rgb(34, 11, 91)" stroke-width="0.5" stroke-linecap="square" stroke-miterlimit="10" fill="none" d="M 9,6.84 C 4.71,6.84 3.86,7.72 3.86,7.72" />
        <path id="inhalation-bezier8" stroke="none" fill="rgb(34, 11, 91)" d="M 9.31,4.75 C 9.22,4.76 9.05,4.78 8.82,4.79 7.92,4.86 6.97,4.86 6.07,4.76 5.58,4.7 5.12,4.61 4.71,4.49 3.51,4.13 2.83,2.96 3.04,1.71 L 3.53,1.79 C 3.36,2.8 3.91,3.73 4.86,4.01 5.23,4.12 5.66,4.21 6.13,4.26 6.99,4.36 7.91,4.36 8.78,4.29 9,4.28 9.17,4.26 9.25,4.25 L 9.31,4.75 Z M 9.31,4.75" />
        <path id="inhalation-bezier9" stroke="rgb(34, 11, 91)" stroke-width="0.5" stroke-miterlimit="10" fill="none" d="M 9.25,9.75 C 9.25,9.75 7.25,9.75 6.25,10.25 5.25,10.75 4.75,12.25 6.75,13.25" />
        <path id="inhalation-bezier" stroke="none" fill="rgb(34, 11, 91)" d="M 14.5,8.75 C 14.5,5.3 12.82,0.5 9.5,0.5 L 9,0.5 9,1 C 9,3.39 9,3.39 9,6.23 9,9.81 9,13 9,13 L 9.5,13 C 12.82,13 14.5,12.2 14.5,8.75 Z M 13.5,8.75 C 13.5,11.65 12.26,12 9.5,12 L 10,12.5 C 10,9.81 10,9.81 10,6.23 10,3.39 10,3.39 10,1 L 9.5,1.5 C 12.26,1.5 13.5,5.85 13.5,8.75 Z M 13.5,8.75" />
        <rect id="inhalation-rectangle" stroke="none" fill="rgb(34, 11, 91)" x="16.5" y="8" width="1" height="2.5" rx="0.5" />
        <rect id="inhalation-rectangle2" stroke="none" fill="rgb(34, 11, 91)" x="14" y="8" width="3.5" height="1" rx="0.5" />
        <rect id="inhalation-rectangle3" stroke="rgb(34, 11, 91)" stroke-width="1" stroke-miterlimit="10" fill="none" x="15" y="10.5" width="4" height="6" rx="1" />
        <rect id="inhalation-rectangle4" stroke="none" fill="rgb(34, 11, 91)" x="16.5" y="20" width="1" height="3" rx="0.5" />
        <path id="inhalation-bezier2" stroke="rgb(34, 11, 91)" stroke-width="0.5" stroke-miterlimit="10" fill="none" d="M 11,5.75 C 11,13.79 11,12.64 11,12.64" />
        <path id="inhalation-bezier3" stroke="rgb(34, 11, 91)" stroke-width="0.5" stroke-miterlimit="10" fill="none" d="M 11,1 C 11,4.47 11,3.98 11,3.98" />
    </g>
</svg>
