<?xml version="1.0" encoding="UTF-8"?>
<!DOCTYPE svg PUBLIC "-//W3C//DTD SVG 1.1//EN" "http://www.w3.org/Graphics/SVG/1.1/DTD/svg11.dtd">
<svg version="1.1" xmlns="http://www.w3.org/2000/svg" xmlns:xlink="http://www.w3.org/1999/xlink" width="24" height="24"  xml:space="preserve" id="injection">
    <!-- Generated by PaintCode - http://www.paintcodeapp.com -->
    <g id="injection-group2" clip-path="url(#injection-rectangle)" transform="translate(2, 2) scale(0.83, 0.83)" >
        <clipPath id="injection-rectangle">
            <rect x="0" y="-24" width="24" height="24"  transform="translate(0, 24)" />
        </clipPath>
        <g id="injection-group" transform="translate(12, 12) rotate(-45)" >
            <rect id="injection-fourth" stroke="none" fill="rgb(255, 255, 255)" fill-opacity="0" x="1.41" y="-3.18" width="6.36" height="6.36" />
            <rect id="injection-third" stroke="none" fill="rgb(255, 255, 255)" fill-opacity="0" x="-0" y="-3.18" width="4.24" height="6.36" />
            <rect id="injection-second" stroke="none" fill="rgb(255, 255, 255)" fill-opacity="0" x="-3.54" y="-3.18" width="3.89" height="6.36" />
            <rect id="injection-first" stroke="none" fill="rgb(255, 255, 255)" fill-opacity="0" x="-6.36" y="-2.12" width="2.12" height="4.24" />
            <path id="injection-bezier2" stroke="rgb(255, 255, 255)" stroke-width="1.5" stroke-miterlimit="10" fill="none" d="M 15.75,0.19 C 15.78,0.22 18.6,3.05 18.6,3.05 18.9,3.34 18.9,3.82 18.6,4.11 18.31,4.4 17.84,4.4 17.54,4.11 17.47,4.04 17.47,4.04 17.18,3.74 16.93,3.49 16.88,3.44 16.66,3.22 16.39,3.5 15.87,4.01 15.6,4.29 15.54,4.23 15.52,4.43 15.45,4.37 15.45,4.37 15.49,4.39 15.6,4.29 16.51,5.19 16.52,5.21 16.84,5.52 17.52,6.21 17.52,7.31 16.84,8 L 9.77,15.07 C 9.28,15.55 8.57,15.7 7.94,15.48 7.73,15.7 7.29,16.13 7.29,16.13 6.61,16.81 5.5,16.81 4.82,16.13 4.68,15.99 4.66,15.97 4.29,15.6 3.62,16.27 1.28,18.6 1.28,18.6 0.99,18.9 0.51,18.9 0.22,18.6 -0.07,18.31 -0.07,17.84 0.22,17.54 0.22,17.54 2.56,15.21 3.22,14.54 3.28,14.59 3.34,14.65 3.4,14.72 3.4,14.72 3.34,14.43 3.22,14.54 2.85,14.16 2.83,14.15 2.69,14.01 2.21,13.52 2.05,12.8 2.29,12.16 2.38,11.93 2.51,11.71 2.69,11.53 2.69,11.53 3.13,11.1 3.34,10.88 3.36,10.94 3.43,10.81 3.45,10.87 3.45,10.87 3.43,10.97 3.44,10.9 3.46,10.77 3.41,10.81 3.34,10.88 3.12,10.26 3.27,9.54 3.76,9.06 L 10.83,1.99 C 11.01,1.8 11.23,1.66 11.47,1.58 12.08,1.36 12.8,1.49 13.3,1.99 13.61,2.3 13.63,2.32 14.54,3.22 14.81,2.95 15.33,2.44 15.6,2.16 15.65,2.22 15.95,2.37 15.95,2.37 15.95,2.37 15.71,2.06 15.6,2.16 14.96,1.52 14.94,1.51 14.72,1.28 14.42,0.99 14.42,0.51 14.72,0.22 15.01,-0.07 15.48,-0.07 15.78,0.22 L 15.75,0.19 Z M 16.66,3.22 C 16.77,3.12 16.45,2.87 16.45,2.87 16.45,2.87 16.75,3.05 16.66,3.05 16.66,3.05 16.61,3.18 16.66,3.22 Z M 14.54,3.22 C 14.43,3.33 14.95,3.37 14.95,3.37 15.25,3.31 14.59,3.28 14.54,3.22 Z M 14.95,0.37 C 14.84,0.48 14.97,0.83 15.07,0.93 15.31,1.17 15.31,1.17 16.13,1.99 L 16.31,2.16 16.13,2.34 14.72,3.76 14.54,3.93 C 14.54,3.93 13.28,2.67 12.95,2.34 12.65,2.04 12.23,1.92 11.84,2 11.6,2.04 11.37,2.15 11.18,2.34 L 4.11,9.41 C 3.73,9.79 3.64,10.36 3.86,10.83 L 3.94,10.99 3.82,11.12 3.05,11.89 C 2.92,12.02 2.82,12.17 2.76,12.33 2.59,12.79 2.7,13.31 3.05,13.65 3.21,13.81 3.21,13.81 3.76,14.36 L 3.93,14.54 3.76,14.72 0.57,17.9 C 0.48,17.99 0.48,18.15 0.57,18.25 0.67,18.35 0.83,18.35 0.93,18.25 L 4.11,15.07 4.29,14.89 4.46,15.07 C 5.01,15.62 5.01,15.62 5.17,15.78 5.66,16.26 6.45,16.26 6.94,15.78 L 7.7,15.01 7.83,14.88 7.99,14.96 C 8.46,15.19 9.03,15.09 9.41,14.72 L 16.48,7.64 C 16.97,7.16 16.97,6.36 16.48,5.88 16.15,5.55 16.15,5.55 15.07,4.46 L 14.89,4.29 15.07,4.11 16.48,2.69 16.66,2.52 16.84,2.69 C 17.22,3.08 17.22,3.08 17.53,3.39 17.83,3.68 17.83,3.68 17.9,3.76 17.99,3.85 18.15,3.85 18.25,3.76 18.35,3.66 18.35,3.5 18.25,3.4 L 15.42,0.57 C 15.32,0.48 15.17,0.48 15.07,0.57 L 14.95,0.37 Z M 8.06,15.36 C 7.85,15.4 7.95,15.37 7.95,15.37 8.01,15.4 7.88,15.46 7.94,15.48 8.01,15.41 8.06,15.36 8.06,15.36 Z M 4.11,15.42 C 4.18,15.49 4.23,15.55 4.29,15.6 4.4,15.49 4.11,15.42 4.11,15.42 Z M 4.11,15.42" transform="translate(1, -13.31) rotate(45)"  />
            <path id="injection-bezier" stroke="none" fill="rgb(34, 11, 91)" d="M 7.25,-3 L 4.75,-3 C 4.75,-3 4.75,-2.45 4.75,-1.92 4.75,-1.45 4.75,-1 4.75,-1 4.75,-0.72 4.53,-0.5 4.25,-0.5 3.97,-0.5 3.75,-0.72 3.75,-1 3.75,-1 3.75,-1.89 3.75,-2.49 3.75,-2.78 3.75,-3 3.75,-3 L 2.75,-3 2.75,-1 C 2.75,-0.72 2.53,-0.5 2.25,-0.5 1.97,-0.5 1.75,-0.72 1.75,-1 L 1.75,-3 0.75,-3 0.75,-1 C 0.75,-0.72 0.53,-0.5 0.25,-0.5 -0.03,-0.5 -0.25,-0.72 -0.25,-1 L -0.25,-3 -1.25,-3 -1.25,-1 C -1.25,-0.72 -1.47,-0.5 -1.75,-0.5 -2.03,-0.5 -2.25,-0.72 -2.25,-1 L -2.25,-3 -2.75,-3 C -3.03,-3 -3.25,-2.78 -3.25,-2.5 -3.25,-2 -3.25,-2 -3.25,-1.5 -3.25,0.61 -3.25,0.61 -3.25,2.5 -3.25,2.78 -3.03,3 -2.75,3 L 7.25,3 C 7.53,3 7.75,2.78 7.75,2.5 L 7.75,-2.5 C 7.75,-2.78 7.53,-3 7.25,-3 Z M -4.25,-2 L -5.25,-2 C -5.53,-2 -5.75,-1.78 -5.75,-1.5 -5.75,-1.5 -5.75,-0.75 -5.75,-0 -5.75,0.75 -5.75,1.5 -5.75,1.5 -5.75,1.78 -5.53,2 -5.25,2 L -4.25,2 C -4.25,1.53 -4.25,1.19 -4.25,0.89 -4.25,0.28 -4.25,-0.23 -4.25,-1.5 -4.25,-1.75 -4.25,-1.88 -4.25,-2 Z M 8.75,-2.5 C 8.75,-2.5 8.75,-1.56 8.75,-0.5 L 10.75,-0.5 C 10.75,-1.31 10.75,-2 10.75,-2 10.75,-2.28 10.97,-2.5 11.25,-2.5 11.53,-2.5 11.75,-2.28 11.75,-2 L 11.75,2 C 11.75,2.28 11.53,2.5 11.25,2.5 10.97,2.5 10.75,2.28 10.75,2 10.75,2 10.75,1.8 10.75,1.49 10.75,1.22 10.75,0.87 10.75,0.5 L 8.75,0.5 C 8.75,1.56 8.75,2.5 8.75,2.5 8.75,3.33 8.08,4 7.25,4 L -2.75,4 C -3.4,4 -3.96,3.58 -4.16,3 L -5.25,3 C -6.08,3 -6.75,2.33 -6.75,1.5 -6.75,1.5 -6.75,1.05 -6.75,0.5 L -11.25,0.5 C -11.53,0.5 -11.75,0.28 -11.75,-0 -11.75,-0.28 -11.53,-0.5 -11.25,-0.5 L -6.75,-0.5 C -6.75,-1.05 -6.75,-1.5 -6.75,-1.5 -6.75,-2.11 -6.39,-2.63 -5.87,-2.86 -5.68,-2.95 -5.47,-3 -5.25,-3 L -4.16,-3 C -3.96,-3.58 -3.4,-4 -2.75,-4 L 7.25,-4 C 8.08,-4 8.75,-3.33 8.75,-2.5 Z M 8.75,-2.5" />
        </g>
    </g>
</svg>
