<?xml version="1.0" encoding="UTF-8"?>
<!DOCTYPE svg PUBLIC "-//W3C//DTD SVG 1.1//EN" "http://www.w3.org/Graphics/SVG/1.1/DTD/svg11.dtd">
<svg version="1.1" xmlns="http://www.w3.org/2000/svg" xmlns:xlink="http://www.w3.org/1999/xlink" width="24" height="24"  xml:space="preserve" id="medication_Type_Not_Defined">
    <!-- Generated by PaintCode - http://www.paintcodeapp.com -->
    <g id="medication_Type_Not_Defined-group2" transform="translate(2, 2) scale(0.83, 0.83)" >
        <g id="medication_Type_Not_Defined-group">
            <path id="medication_Type_Not_Defined-path42727" stroke="none" fill="rgb(34, 11, 91)" d="M 10.23,7.57 C 2.75,8.07 5.16,10.3 10.44,11.16 10.47,11.87 10.56,12.67 10.6,13.57 5.91,14.64 6.17,15.97 10.82,17.06 10.86,17.83 10.97,18.58 11.01,19.31 8.24,19.85 8.97,21 11.13,21.45 11.16,21.85 11.19,22.19 11.21,22.53 8.72,23.05 10.66,23.67 11.24,23.75 11.41,23.75 11.22,23.75 11.24,23.75 11.64,23.71 10.42,23.2 10.55,23.06 10.84,22.74 12.68,22.79 12.92,22.1 13.07,21.67 12.61,21.41 12.01,21.2 12,21.4 12,21.48 11.98,21.67 12.64,21.98 12.03,22.32 11.64,22.43 11.69,21.77 11.7,20.75 11.75,19.89 11.5,19.92 11.24,19.97 11.02,20.02 11.04,20.25 11.09,20.73 11.1,20.95 10.52,20.82 10.15,20.61 10.16,20.29 10.2,19.41 14.06,19.77 14.63,18.18 14.83,17.62 13.46,17.04 12.3,16.7 12.29,16.94 12.28,17.13 12.27,17.37 14.23,17.89 13.39,18.82 11.8,19.17 11.88,17.67 11.95,16.13 12.03,14.55 11.6,14.65 11.1,14.75 10.71,14.86 10.73,15.33 10.79,15.8 10.82,16.28 9.75,15.99 8.98,15.71 9.21,15.23 9.79,14.06 16.58,14.07 15.96,11.93 15.77,11.24 14.06,10.89 12.59,10.64 L 12.53,11.44 C 15.14,12.03 13.76,12.78 12.1,13.15 12.18,11.4 12.31,9.71 12.35,8.88 11.76,8.84 11.04,8.83 10.51,8.89 10.52,9.1 10.38,9.66 10.41,10.33 2.97,8.53 13.95,7.57 15.45,9.33 16.5,9.47 19.61,9.23 18.3,8.71 16.7,8.06 14.36,7.59 12.4,7.57 L 10.23,7.57 Z M 16.19,8.32 C 16.49,8.33 17.1,8.51 17.03,8.6 16.6,8.78 16.1,8.56 16.08,8.34 16.11,8.33 16.14,8.32 16.19,8.32 Z M 16.19,8.32" />
            <path id="medication_Type_Not_Defined-interneuronEmailSignaturebezier" stroke="none" fill="rgb(34, 11, 91)" d="M 11.46,0.55 C 10.87,0.55 10.34,0.8 9.97,1.2 9.65,1.54 9.46,1.99 9.46,2.49 9.46,3.56 10.36,4.43 11.46,4.43 12.57,4.43 13.47,3.56 13.47,2.49 13.47,1.42 12.57,0.55 11.46,0.55 Z M 13.78,2.49 C 13.78,3.73 12.74,4.73 11.46,4.73 10.18,4.73 9.15,3.73 9.15,2.49 9.15,1.94 9.35,1.43 9.69,1.05 10.11,0.56 10.75,0.25 11.46,0.25 12.74,0.25 13.78,1.25 13.78,2.49 Z M 13.78,2.49" />
            <path id="medication_Type_Not_Defined-interneuronEmailSignaturerectangle6" stroke="none" fill="rgb(34, 11, 91)" d="M 11.21,8.21 L 11.72,8.21 11.72,7.22 C 11.72,7.22 11.72,6.72 11.72,6.22 11.72,5.73 11.21,5.73 11.21,6.22 11.21,6.72 11.21,8.21 11.21,8.21 Z M 11.21,8.21" />
            <path id="medication_Type_Not_Defined-interneuronEmailSignaturebezier3" stroke="none" fill="rgb(34, 11, 91)" d="M 14.81,3.24 C 14.67,4.91 13.23,6.22 11.46,6.22 9.7,6.22 8.25,4.91 8.12,3.24 L 8.57,3.24 C 8.7,4.67 9.94,5.79 11.46,5.79 12.98,5.79 14.23,4.67 14.36,3.24 L 14.81,3.24 Z M 14.81,3.24" />
            <path id="medication_Type_Not_Defined-interneuronEmailSignaturerectangle7" stroke="none" fill="rgb(34, 11, 91)" d="M 11.39,23.75 C 11.82,23.75 12.36,9.44 12.36,9.44 12.36,8.08 11.92,6.98 11.39,6.98 L 11.39,6.98 C 10.85,6.98 10.42,8.08 10.42,9.44 10.42,9.44 10.95,23.75 11.39,23.75 Z M 11.39,23.75" />
        </g>
    </g>
</svg>
