<?xml version="1.0" encoding="UTF-8"?>
<!DOCTYPE svg PUBLIC "-//W3C//DTD SVG 1.1//EN" "http://www.w3.org/Graphics/SVG/1.1/DTD/svg11.dtd">
<svg version="1.1" xmlns="http://www.w3.org/2000/svg" xmlns:xlink="http://www.w3.org/1999/xlink" width="24" height="24"  xml:space="preserve" id="saveIcon">
    <!-- Generated by PaintCode - http://www.paintcodeapp.com -->
    <path id="saveIcon-path3005" stroke="none" fill="rgb(0, 0, 0)" d="M 6,22 L 18,22 18,16 6,16 6,22 Z M 20,22 L 22,22 22,8 C 22,7.85 21.95,7.65 21.84,7.4 21.74,7.14 21.64,6.96 21.53,6.86 L 17.14,2.47 C 17.04,2.36 16.86,2.26 16.61,2.16 16.36,2.05 16.16,2 16,2 L 16,8.5 C 16,8.92 15.85,9.27 15.56,9.56 15.27,9.85 14.92,10 14.5,10 L 5.5,10 C 5.08,10 4.73,9.85 4.44,9.56 4.15,9.27 4,8.92 4,8.5 L 4,2 2,2 2,22 4,22 4,15.5 C 4,15.08 4.15,14.73 4.44,14.44 4.73,14.15 5.08,14 5.5,14 L 18.5,14 C 18.92,14 19.27,14.15 19.56,14.44 19.85,14.73 20,15.08 20,15.5 L 20,22 Z M 14,7.5 L 14,2.5 C 14,2.36 13.95,2.25 13.85,2.15 13.75,2.05 13.64,2 13.5,2 L 10.5,2 C 10.36,2 10.25,2.05 10.15,2.15 10.05,2.25 10,2.36 10,2.5 L 10,7.5 C 10,7.64 10.05,7.75 10.15,7.85 10.25,7.95 10.36,8 10.5,8 L 13.5,8 C 13.64,8 13.75,7.95 13.85,7.85 13.95,7.75 14,7.64 14,7.5 Z M 24,8 L 24,22.5 C 24,22.92 23.85,23.27 23.56,23.56 23.27,23.85 22.92,24 22.5,24 L 1.5,24 C 1.08,24 0.73,23.85 0.44,23.56 0.15,23.27 0,22.92 0,22.5 L 0,1.5 C 0,1.08 0.15,0.73 0.44,0.44 0.73,0.15 1.08,-0 1.5,-0 L 16,-0 C 16.42,-0 16.88,0.1 17.38,0.31 17.88,0.52 18.27,0.77 18.56,1.06 L 22.94,5.44 C 23.23,5.73 23.48,6.13 23.69,6.63 23.9,7.13 24,7.58 24,8 Z M 24,8" />
</svg>
