<?xml version="1.0" encoding="UTF-8"?>
<!DOCTYPE svg PUBLIC "-//W3C//DTD SVG 1.1//EN" "http://www.w3.org/Graphics/SVG/1.1/DTD/svg11.dtd">
<svg version="1.1" xmlns="http://www.w3.org/2000/svg" xmlns:xlink="http://www.w3.org/1999/xlink" width="24" height="24"  xml:space="preserve" id="mOA_Has_Notes">
    <!-- Generated by PaintCode - http://www.paintcodeapp.com -->
    <g id="mOA_Has_Notes-group">
        <path id="mOA_Has_Notes-rectangle" stroke="none" fill="rgb(34, 11, 91)" d="M 0.61,20.61 C 0.61,21.76 1.56,22.7 2.74,22.7 L 16.12,22.7 C 17.3,22.7 18.25,21.76 18.25,20.61 L 18.25,2.69 C 18.25,1.53 17.3,0.6 16.12,0.6 L 2.74,0.6 C 1.56,0.6 0.61,1.53 0.61,2.69 L 0.61,20.61 Z M 0,20.61 L 0,2.69 C 0,1.2 1.23,-0 2.74,-0 L 16.12,-0 C 17.64,-0 18.86,1.2 18.86,2.69 L 18.86,20.61 C 18.86,22.09 17.64,23.3 16.12,23.3 L 2.74,23.3 C 1.23,23.3 0,22.09 0,20.61 Z M 0,20.61" transform="translate(5.25, 4.23) scale(0.72, 0.72)"  />
        <path id="mOA_Has_Notes-bezier" stroke="none" fill="rgb(34, 11, 91)" d="M 7.3,1.14 C 7.3,1.79 10.95,1.13 10.95,1.79 L 10.95,4.18 C 10.95,4.84 10.41,5.38 9.73,5.38 L 1.22,5.38 C 0.54,5.38 0,4.84 0,4.18 L 0,1.79 C 0,1.13 3.65,1.79 3.65,1.19 3.65,0.6 3.35,0 5.48,0 7.61,0 7.3,0.6 7.3,1.19 L 7.3,1.14 Z M 5.48,0.6 C 5.15,0.6 4.88,0.85 4.87,1.17 4.87,1.52 5.14,1.79 5.48,1.79 5.81,1.79 6.08,1.52 6.08,1.19 6.08,0.86 5.81,0.6 5.48,0.6 Z M 5.48,0.6" transform="translate(8.1, 2.72) scale(0.72, 0.72)"  />
        <rect id="mOA_Has_Notes-rectangle5" stroke="none" fill="rgb(34, 11, 91)" x="-0" y="0" width="12.5" height="1.5"  transform="translate(7, 12) scale(0.72, 0.72)" />
        <path id="mOA_Has_Notes-bezier2" stroke="none" fill="rgb(34, 11, 91)" d="M 3.7,0 C 3.7,0 3.7,0.83 3.7,1.85 L 5.56,1.85 5.56,3.7 3.7,3.7 C 3.7,4.72 3.7,5.56 3.7,5.56 L 1.85,5.56 C 1.85,5.56 1.85,4.72 1.85,3.7 L -0,3.7 -0,1.85 1.85,1.85 C 1.85,0.83 1.85,0 1.85,0 L 3.7,0 3.7,0 Z M 3.7,0" transform="translate(7, 7) scale(0.72, 0.72)"  />
        <path id="mOA_Has_Notes-bezier3" stroke="none" fill="rgb(34, 11, 91)" d="M -1.62,0.62 L 4.85,0.62 4.85,-0.79 -1.62,-0.79 -1.62,0.62 Z M -1.62,-0.79 L -1.62,0.62 -3.56,-0.08 -1.62,-0.79 Z M -1.62,-0.79" transform="translate(15.15, 17.13) rotate(-43.4) scale(0.72, 0.72)"  />
        <rect id="mOA_Has_Notes-rectangle2" stroke="none" fill="rgb(34, 11, 91)" x="-0" y="0" width="10" height="1.5"  transform="translate(7, 14.5) scale(0.72, 0.72)" />
        <rect id="mOA_Has_Notes-rectangle3" stroke="none" fill="rgb(34, 11, 91)" x="-0" y="0" width="8.33" height="1.5"  transform="translate(7, 17) scale(0.72, 0.72)" />
    </g>
</svg>
