<?xml version="1.0" encoding="UTF-8"?>
<!DOCTYPE svg PUBLIC "-//W3C//DTD SVG 1.1//EN" "http://www.w3.org/Graphics/SVG/1.1/DTD/svg11.dtd">
<svg version="1.1" xmlns="http://www.w3.org/2000/svg" xmlns:xlink="http://www.w3.org/1999/xlink" width="24" height="24"  xml:space="preserve" id="mOA_No_Notes">
    <!-- Generated by PaintCode - http://www.paintcodeapp.com -->
    <path id="mOA_No_Notes-rectangle" stroke="none" fill="rgb(34, 11, 91)" d="M 0.61,20.61 C 0.61,21.76 1.56,22.7 2.74,22.7 L 16.12,22.7 C 17.3,22.7 18.25,21.76 18.25,20.61 L 18.25,2.69 C 18.25,1.53 17.3,0.6 16.12,0.6 L 2.74,0.6 C 1.56,0.6 0.61,1.53 0.61,2.69 L 0.61,20.61 Z M 0,20.61 L 0,2.69 C 0,1.2 1.23,-0 2.74,-0 L 16.12,-0 C 17.64,-0 18.86,1.2 18.86,2.69 L 18.86,20.61 C 18.86,22.09 17.64,23.3 16.12,23.3 L 2.74,23.3 C 1.23,23.3 0,22.09 0,20.61 Z M 0,20.61" transform="translate(5.25, 4.23) scale(0.72, 0.72)"  />
    <path id="mOA_No_Notes-bezier" stroke="none" fill="rgb(34, 11, 91)" d="M 7.3,1.14 C 7.3,1.79 10.95,1.13 10.95,1.79 L 10.95,4.18 C 10.95,4.84 10.41,5.38 9.73,5.38 L 1.22,5.38 C 0.54,5.38 0,4.84 0,4.18 L 0,1.79 C 0,1.13 3.65,1.79 3.65,1.19 3.65,0.6 3.35,0 5.48,0 7.61,0 7.3,0.6 7.3,1.19 L 7.3,1.14 Z M 5.48,0.6 C 5.15,0.6 4.88,0.85 4.87,1.17 4.87,1.52 5.14,1.79 5.48,1.79 5.81,1.79 6.08,1.52 6.08,1.19 6.08,0.86 5.81,0.6 5.48,0.6 Z M 5.48,0.6" transform="translate(8.1, 2.72) scale(0.72, 0.72)"  />
    <path id="mOA_No_Notes-rectangle2" stroke="none" fill="rgb(34, 11, 91)" d="M 6.62,18.75 C 6.62,19.23 7.02,19.62 7.5,19.62 L 16.5,19.62 C 16.98,19.62 17.38,19.23 17.38,18.75 L 17.38,7.75 C 17.38,7.27 16.98,6.88 16.5,6.88 L 7.5,6.88 C 7.02,6.88 6.62,7.27 6.62,7.75 L 6.62,18.75 Z M 6.38,18.75 L 6.38,7.75 C 6.38,7.13 6.88,6.62 7.5,6.62 L 16.5,6.62 C 17.12,6.62 17.62,7.13 17.62,7.75 L 17.62,18.75 C 17.62,19.37 17.12,19.88 16.5,19.88 L 7.5,19.88 C 6.88,19.88 6.38,19.37 6.38,18.75 Z M 6.38,18.75" />
</svg>
