<?xml version="1.0" encoding="UTF-8"?>
<!DOCTYPE svg PUBLIC "-//W3C//DTD SVG 1.1//EN" "http://www.w3.org/Graphics/SVG/1.1/DTD/svg11.dtd">
<svg version="1.1" xmlns="http://www.w3.org/2000/svg" xmlns:xlink="http://www.w3.org/1999/xlink" width="24" height="24"  xml:space="preserve" id="pharmacist_Reviewed_Back_To_Prescriber">
    <!-- Generated by PaintCode - http://www.paintcodeapp.com -->
    <g id="pharmacist_Reviewed_Back_To_Prescriber-group" transform="" >
        <g id="pharmacist_Reviewed_Back_To_Prescriber-group3" transform="scale(2.18, 2.18)" >
            <path id="pharmacist_Reviewed_Back_To_Prescriber-oval" stroke="none" fill="rgb(149, 37, 39)" d="M 10,5.5 C 10,7.99 7.99,10 5.5,10 3.01,10 1,7.99 1,5.5 1,3.01 3.01,1 5.5,1 7.99,1 10,3.01 10,5.5 Z M 10,5.5" />
        </g>
        <g id="pharmacist_Reviewed_Back_To_Prescriber-group4" transform="translate(3, 3) scale(0.75, 0.75)" >
            <g id="pharmacist_Reviewed_Back_To_Prescriber-group5" transform="translate(3, 3) scale(1.8, 1.8)" >
                <path id="pharmacist_Reviewed_Back_To_Prescriber-bezier2" stroke="none" fill="rgb(255, 255, 255)" d="M 1.32,10 L 8.68,10 8.68,8.5 1.32,8.5 1.32,10 Z M 1.32,10" />
                <path id="pharmacist_Reviewed_Back_To_Prescriber-bezier" stroke="none" fill="rgb(248, 247, 245)" d="M 0.5,5.14 L 0.5,6.45 C 0.5,7.17 1.05,7.76 1.73,7.76 L 1.73,7.76 8.27,7.76 C 8.95,7.76 9.5,7.17 9.5,6.45 L 9.5,6.45 9.5,5.14 0.5,5.14 Z M 0.5,5.14" />
                <path id="pharmacist_Reviewed_Back_To_Prescriber-bezier3" stroke="none" fill="rgb(255, 255, 255)" d="M 3.91,4.27 L 6.18,4.27 8.54,1.73 7.38,0.5 3.91,4.27 Z M 3.91,4.27" />
            </g>
        </g>
    </g>
    <g id="pharmacist_Reviewed_Back_To_Prescriber-group2" transform="translate(7, 6) scale(0.4, 0.36)" >
        <path id="pharmacist_Reviewed_Back_To_Prescriber-x2" stroke="rgb(255, 255, 255)" stroke-width="0.5" stroke-linecap="round" stroke-miterlimit="4" fill="none" d="M 6.13,5.46 L 8.94,1 7.24,1 5.53,4.01 C 5.44,4.17 5.34,4.38 5.21,4.64 L 5.19,4.64 C 5.11,4.44 5.01,4.24 4.91,4.04 L 3.26,1 1.41,1 4.16,5.47 1.17,10 2.99,10 4.92,6.7 C 5.01,6.51 5.07,6.36 5.11,6.27 L 5.14,6.27 C 5.2,6.46 5.26,6.6 5.32,6.7 L 7.19,10 9,10 6.13,5.46 Z M 6.13,5.46" />
        <path id="pharmacist_Reviewed_Back_To_Prescriber-x" stroke="none" fill="rgb(255, 255, 255)" d="M 6.13,5.46 L 8.94,1 7.24,1 5.53,4.01 C 5.44,4.17 5.34,4.38 5.21,4.64 L 5.19,4.64 C 5.11,4.44 5.01,4.24 4.91,4.04 L 3.26,1 1.41,1 4.16,5.47 1.17,10 2.99,10 4.92,6.7 C 5.01,6.51 5.07,6.36 5.11,6.27 L 5.14,6.27 C 5.2,6.46 5.26,6.6 5.32,6.7 L 7.19,10 9,10 6.13,5.46 Z M 6.13,5.46" />
    </g>
</svg>
