<?xml version="1.0" encoding="UTF-8"?>
<!DOCTYPE svg PUBLIC "-//W3C//DTD SVG 1.1//EN" "http://www.w3.org/Graphics/SVG/1.1/DTD/svg11.dtd">
<svg version="1.1" xmlns="http://www.w3.org/2000/svg" xmlns:xlink="http://www.w3.org/1999/xlink" width="24" height="24"  xml:space="preserve" id="pharmacy_Technician_Reviewed">
    <!-- Generated by PaintCode - http://www.paintcodeapp.com -->
    <g id="pharmacy_Technician_Reviewed-group" transform="translate(3, 3)" >
        <g id="pharmacy_Technician_Reviewed-group2" transform="scale(1.8, 2.1)" >
            <path id="pharmacy_Technician_Reviewed-bezier2" stroke="none" fill="rgb(255, 255, 254)" fill-opacity="0" d="M 1.32,10 L 8.68,10 8.68,8.5 1.32,8.5 1.32,10 Z M 1.32,10" />
            <path id="pharmacy_Technician_Reviewed-bezier" stroke="none" fill="rgb(255, 255, 254)" d="M 0.5,5.14 L 0.5,6.45 C 0.5,7.17 1.05,7.76 1.73,7.76 L 1.73,7.76 8.27,7.76 C 8.95,7.76 9.5,7.17 9.5,6.45 L 9.5,6.45 9.5,5.14 0.5,5.14 Z M 0.5,5.14" />
            <path id="pharmacy_Technician_Reviewed-bezier3" stroke="none" fill="rgb(90, 70, 128)" d="M 3.91,4.27 L 6.18,4.27 8.54,1.73 7.38,0.5 3.91,4.27 Z M 3.91,4.27" />
        </g>
        <g id="pharmacy_Technician_Reviewed-group3" transform="scale(1.8, 2.1)" >
            <path id="pharmacy_Technician_Reviewed-bezier4" stroke="none" fill="rgb(90, 70, 128)" d="M 0.75,5.14 L 0.75,6.45 C 0.75,7.04 1.19,7.51 1.73,7.51 L 8.27,7.51 C 8.81,7.51 9.25,7.04 9.25,6.45 L 9.25,5.14 9.5,5.39 0.5,5.39 0.75,5.14 Z M 0.25,5.14 L 0.25,4.89 0.5,4.89 9.5,4.89 9.75,4.89 9.75,5.14 9.75,6.45 C 9.75,7.31 9.09,8.01 8.27,8.01 L 1.73,8.01 C 0.91,8.01 0.25,7.31 0.25,6.45 L 0.25,5.14 Z M 0.25,5.14" />
            <path id="pharmacy_Technician_Reviewed-bezier5" stroke="none" fill="rgb(90, 70, 128)" d="M 3.91,4.02 L 6.18,4.02 6,4.1 8.36,1.56 8.36,1.9 7.2,0.67 7.57,0.67 4.1,4.44 3.91,4.02 Z M 3.91,4.52 L 3.34,4.52 3.73,4.1 7.2,0.33 7.38,0.13 7.57,0.33 8.72,1.56 8.88,1.73 8.72,1.9 6.36,4.44 6.18,4.52 3.91,4.52 Z M 3.91,4.52" />
        </g>
        <g id="pharmacy_Technician_Reviewed-group4" transform="translate(7.5, 12) scale(0.5, 0.5)" >
            <path id="pharmacy_Technician_Reviewed-bezier6" stroke="none" fill="rgb(90, 70, 128)" d="M 3.6,0 C 3.6,0 3.6,1.12 3.6,2.4 L 6,2.4 6,3.6 3.6,3.6 C 3.6,4.88 3.6,6 3.6,6 L 2.4,6 C 2.4,6 2.4,4.88 2.4,3.6 L 0,3.6 0,2.4 2.4,2.4 C 2.4,1.12 2.4,-0 2.4,-0 L 3.6,-0 3.6,0 Z M 3.6,0" />
        </g>
    </g>
</svg>
