<?xml version="1.0" encoding="UTF-8"?>
<!DOCTYPE svg PUBLIC "-//W3C//DTD SVG 1.1//EN" "http://www.w3.org/Graphics/SVG/1.1/DTD/svg11.dtd">
<svg version="1.1" xmlns="http://www.w3.org/2000/svg" xmlns:xlink="http://www.w3.org/1999/xlink" width="24" height="24"  xml:space="preserve" id="add_Icon">
    <!-- Generated by PaintCode - http://www.paintcodeapp.com -->
    <g id="add_Icon-group">
        <path id="add_Icon-bezier3" stroke="none" fill="rgb(34, 11, 91)" d="M 13,5.5 C 13,5.5 13,8.67 13,12 L 19.5,12 C 19.78,12 20,12.22 20,12.5 20,12.78 19.78,13 19.5,13 L 13,13 C 13,16.33 13,19.5 13,19.5 13,19.78 12.78,20 12.5,20 12.22,20 12,19.78 12,19.5 12,19.5 12,18.81 12,17.74 12,16.51 12,14.78 12,13 L 5.5,13 C 5.22,13 5,12.78 5,12.5 5,12.22 5.22,12 5.5,12 L 12,12 C 12,8.67 12,5.5 12,5.5 12,5.22 12.22,5 12.5,5 12.78,5 13,5.22 13,5.5 Z M 13,5.5" />
    </g>
</svg>
