<?xml version="1.0" encoding="UTF-8"?>
<!DOCTYPE svg PUBLIC "-//W3C//DTD SVG 1.1//EN" "http://www.w3.org/Graphics/SVG/1.1/DTD/svg11.dtd">
<svg version="1.1" xmlns="http://www.w3.org/2000/svg" xmlns:xlink="http://www.w3.org/1999/xlink" width="24" height="24"  xml:space="preserve" id="add_Icon2">
    <!-- Generated by PaintCode - http://www.paintcodeapp.com -->
    <g id="add_Icon2-group" transform="translate(4.5, 4.5) scale(1.07, 1.07)" >
        <g id="add_Icon2-group2">
            <path id="add_Icon2-bezier" stroke="none" fill="rgb(34, 11, 91)" d="M 7.5,0.5 C 5.96,0.5 4.54,1 3.39,1.84 1.64,3.11 0.5,5.17 0.5,7.5 0.5,11.37 3.63,14.5 7.5,14.5 11.37,14.5 14.5,11.37 14.5,7.5 14.5,3.63 11.37,0.5 7.5,0.5 Z M 15,7.5 C 15,11.64 11.64,15 7.5,15 3.36,15 0,11.64 0,7.5 0,5.07 1.15,2.92 2.94,1.55 4.2,0.58 5.78,-0 7.5,-0 11.64,0 15,3.36 15,7.5 Z M 15,7.5" />
        </g>
        <path id="add_Icon2-bezier3" stroke="none" fill="rgb(34, 11, 91)" d="M 7.89,4.39 C 7.89,4.39 7.89,5.7 7.89,7.11 L 10.61,7.11 C 10.83,7.11 11,7.29 11,7.5 11,7.71 10.83,7.89 10.61,7.89 L 7.89,7.89 C 7.89,9.3 7.89,10.61 7.89,10.61 7.89,10.83 7.71,11 7.5,11 7.29,11 7.11,10.83 7.11,10.61 7.11,10.61 7.11,10.17 7.11,9.53 7.11,9.06 7.11,8.49 7.11,7.89 L 4.39,7.89 C 4.17,7.89 4,7.71 4,7.5 4,7.29 4.17,7.11 4.39,7.11 L 7.11,7.11 C 7.11,5.7 7.11,4.39 7.11,4.39 7.11,4.17 7.29,4 7.5,4 7.71,4 7.89,4.17 7.89,4.39 Z M 7.89,4.39" />
    </g>
</svg>
