<?xml version="1.0" encoding="UTF-8"?>
<!DOCTYPE svg PUBLIC "-//W3C//DTD SVG 1.1//EN" "http://www.w3.org/Graphics/SVG/1.1/DTD/svg11.dtd">
<svg version="1.1" xmlns="http://www.w3.org/2000/svg" xmlns:xlink="http://www.w3.org/1999/xlink" width="24" height="24"  xml:space="preserve" id="edit_Icon">
    <!-- Generated by PaintCode - http://www.paintcodeapp.com -->
    <g id="edit_Icon-group" transform="translate(5, 5) scale(3, 3)" >
        <path id="edit_Icon-bezier" stroke="none" fill="rgb(34, 11, 91)" d="M 4.12,0.26 C 4.11,0.26 4.81,1 4.81,1 4.81,1 4.67,1.14 4.44,1.35 4.23,1.14 3.98,0.89 3.72,0.63 3.93,0.44 4.07,0.3 4.1,0.27 L 4.12,0.26 Z M 3.63,0.72 C 3.89,0.97 4.14,1.22 4.35,1.44 3.53,2.21 1.88,3.78 1.61,4.03 1.38,3.8 1.14,3.55 0.89,3.31 1.08,3.13 2.78,1.52 3.63,0.72 Z M 1.51,4.09 C 1.23,4.2 0.25,4.61 0.25,4.61 0.25,4.61 0.69,3.71 0.83,3.42 1.06,3.64 1.29,3.88 1.51,4.09 Z M 1.51,4.09" />
    </g>
</svg>
