<?xml version="1.0" encoding="UTF-8"?>
<!DOCTYPE svg PUBLIC "-//W3C//DTD SVG 1.1//EN" "http://www.w3.org/Graphics/SVG/1.1/DTD/svg11.dtd">
<svg version="1.1" xmlns="http://www.w3.org/2000/svg" xmlns:xlink="http://www.w3.org/1999/xlink" width="24" height="24"  xml:space="preserve" id="prescription_Icon">
    <!-- Generated by PaintCode - http://www.paintcodeapp.com -->
    <g id="prescription_Icon-group" transform="translate(4.5, 3.5) scale(1.14, 1.13)" >
        <g id="prescription_Icon-group2">
            <g id="prescription_Icon-group3" transform="scale(1.27, 1.25)" >
                <g id="prescription_Icon-group4">
                    <rect id="prescription_Icon-rectangle" stroke="none" fill="rgb(255, 255, 255)" x="0" y="0" width="11" height="12" />
                    <path id="prescription_Icon-bezier8" stroke="none" fill="rgb(34, 11, 91)" d="M 0.64,12 L 0.26,12 0,12 0,11.74 0,11.36 0,0.64 0,0.26 0,-0 0.26,-0 0.64,-0 10.36,-0 10.74,-0 11,-0 11,0.26 11,0.64 11,11.36 11,11.74 11,12 10.74,12 10.36,12 0.64,12 Z M 0.64,11.48 L 10.36,11.48 10.74,11.48 10.48,11.74 10.48,11.36 10.48,0.64 10.48,0.26 10.74,0.52 10.36,0.52 0.64,0.52 0.26,0.52 0.52,0.26 0.52,0.64 0.52,11.36 0.52,11.74 0.26,11.48 0.64,11.48 Z M 0.64,11.48" />
                    <path id="prescription_Icon-bezier" stroke="none" fill="rgb(34, 11, 91)" d="M 1.83,1.53 L 9,1.53 9,2.22 1.83,2.22 1.83,1.53 Z M 1.83,1.53" />
                    <path id="prescription_Icon-bezier3" stroke="none" fill="rgb(34, 11, 91)" d="M 1.83,3.61 L 8,3.59 8,4.28 1.84,4.3 1.83,3.61 Z M 1.83,3.61" />
                    <path id="prescription_Icon-bezier5" stroke="none" fill="rgb(34, 11, 91)" d="M 1.83,5.67 L 7,5.66 7,6.34 1.84,6.36 1.83,5.67 Z M 1.83,5.67" />
                    <path id="prescription_Icon-bezier6" stroke="none" fill="rgb(34, 11, 91)" d="M 1.83,7.74 L 5,7.72 5,8.41 1.83,8.42 1.83,7.74 Z M 1.83,7.74" />
                    <path id="prescription_Icon-bezier2" stroke="none" fill="rgb(34, 11, 91)" d="M 1.83,9.8 L 8.83,9.78 8.83,10.47 1.83,10.49 1.83,9.8 Z M 1.83,9.8" />
                </g>
            </g>
        </g>
        <g id="prescription_Icon-group5" transform="translate(7, 8) scale(1.5, 1.5)" >
            <rect id="prescription_Icon-rectangle2" stroke="none" fill="rgb(255, 255, 255)" x="0" y="0" width="4" height="4" />
            <path id="prescription_Icon-path2997" stroke="none" fill="rgb(34, 11, 91)" d="M 1.59,0.25 C 1.55,0.25 1.49,0.25 1.4,0.25 1.15,0.26 0.96,0.25 0.81,0.25 0.68,0.25 0.5,0.25 0.27,0.25 L 0.25,0.33 0.25,0.41 0.27,0.42 C 0.4,0.43 0.49,0.43 0.52,0.44 0.56,0.45 0.58,0.46 0.59,0.47 0.6,0.48 0.61,0.5 0.62,0.54 0.62,0.57 0.63,0.65 0.63,0.77 L 0.63,1.08 0.63,1.81 0.63,2.14 C 0.63,2.25 0.62,2.33 0.61,2.36 0.61,2.39 0.6,2.41 0.58,2.42 0.57,2.43 0.54,2.44 0.5,2.45 0.46,2.45 0.38,2.46 0.27,2.46 L 0.25,2.47 0.25,2.55 0.27,2.56 C 0.59,2.56 0.77,2.55 0.81,2.55 0.86,2.55 0.94,2.55 1.03,2.55 1.25,2.56 1.36,2.56 1.36,2.56 L 1.38,2.55 1.38,2.47 1.36,2.46 C 1.23,2.46 1.14,2.45 1.11,2.45 1.07,2.44 1.05,2.43 1.04,2.42 1.03,2.4 1.02,2.38 1.01,2.35 1,2.31 1,2.23 1,2.12 L 1,1.81 1,1.08 C 1,0.71 1.01,0.51 1.03,0.49 1.15,0.45 1.27,0.46 1.41,0.46 1.6,0.46 1.75,0.48 1.86,0.55 1.97,0.62 2.03,0.72 2.03,0.86 2.03,1.02 1.97,1.14 1.84,1.22 1.72,1.31 1.15,1.4 1.15,1.4 1.38,1.62 1.6,1.85 1.82,2.1 2,2.31 2.14,2.46 2.23,2.55 L 2.29,2.63 1.76,3.24 C 1.63,3.39 1.54,3.49 1.49,3.54 1.45,3.59 1.41,3.62 1.38,3.63 1.35,3.64 1.29,3.65 1.21,3.65 L 1.19,3.66 1.19,3.74 1.21,3.75 C 1.29,3.75 1.35,3.74 1.4,3.74 1.45,3.74 1.51,3.75 1.6,3.75 1.85,3.41 2.06,3.13 2.25,2.92 L 2.39,2.76 2.97,3.47 C 3.03,3.56 3.11,3.66 3.18,3.75 3.31,3.75 3.41,3.74 3.48,3.74 3.53,3.74 3.61,3.75 3.73,3.75 L 3.75,3.74 3.75,3.66 3.73,3.65 C 3.65,3.65 3.6,3.64 3.58,3.63 3.55,3.63 3.52,3.6 3.49,3.56 3.45,3.52 3.4,3.46 3.34,3.38 L 2.62,2.53 C 2.62,2.52 2.62,2.51 2.61,2.51 L 2.75,2.35 3.11,1.96 C 3.24,1.81 3.32,1.73 3.36,1.69 3.41,1.65 3.44,1.63 3.47,1.62 3.49,1.61 3.54,1.61 3.63,1.6 L 3.64,1.59 3.64,1.52 3.63,1.51 C 3.52,1.51 3.46,1.51 3.45,1.51 3.42,1.51 3.36,1.51 3.25,1.51 L 2.52,2.39 C 2.49,2.36 2.45,2.31 2.39,2.24 2.28,2.14 2.19,2.03 2.1,1.93 L 1.83,1.64 C 1.74,1.54 1.67,1.47 1.64,1.42 1.83,1.39 1.98,1.35 2.09,1.29 2.2,1.23 2.28,1.15 2.34,1.07 2.4,0.98 2.42,0.9 2.42,0.81 2.42,0.68 2.37,0.56 2.25,0.47 2.14,0.37 1.92,0.25 1.59,0.25 Z M 1.59,0.25" />
        </g>
    </g>
</svg>
