<?xml version="1.0" encoding="UTF-8"?>
<!DOCTYPE svg PUBLIC "-//W3C//DTD SVG 1.1//EN" "http://www.w3.org/Graphics/SVG/1.1/DTD/svg11.dtd">
<svg version="1.1" xmlns="http://www.w3.org/2000/svg" xmlns:xlink="http://www.w3.org/1999/xlink" width="24" height="24"  xml:space="preserve" id="administrationWithheldByDoctor">
    <!-- Generated by PaintCode - http://www.paintcodeapp.com -->
    <g id="administrationWithheldByDoctor-group" transform="scale(2.18, 2.18)" >
        <path id="administrationWithheldByDoctor-rectangle" stroke="none" fill="rgb(180, 200, 206)" d="M 1.5,8 C 1.5,8.83 2.17,9.5 3,9.5 L 8,9.5 C 8.83,9.5 9.5,8.83 9.5,8 L 9.5,3 C 9.5,2.17 8.83,1.5 8,1.5 L 3,1.5 C 2.17,1.5 1.5,2.17 1.5,3 L 1.5,8 Z M 0.5,8 L 0.5,3 C 0.5,1.62 1.62,0.5 3,0.5 L 8,0.5 C 9.38,0.5 10.5,1.62 10.5,3 L 10.5,8 C 10.5,9.38 9.38,10.5 8,10.5 L 3,10.5 C 1.62,10.5 0.5,9.38 0.5,8 Z M 0.5,8" />
    </g>
    <g id="administrationWithheldByDoctor-group2" transform="translate(7, 7)" >
        <path id="administrationWithheldByDoctor-x2" stroke="rgb(255, 255, 255)" stroke-width="1.5" stroke-linecap="round" stroke-miterlimit="4" fill="none" d="M 6.13,5.46 L 8.94,1 7.24,1 5.53,4.01 C 5.44,4.17 5.34,4.38 5.21,4.64 L 5.19,4.64 C 5.11,4.44 5.01,4.24 4.91,4.04 L 3.26,1 1.41,1 4.16,5.47 1.17,10 2.99,10 4.92,6.7 C 5.01,6.51 5.07,6.36 5.11,6.27 L 5.14,6.27 C 5.2,6.46 5.26,6.6 5.32,6.7 L 7.19,10 9,10 6.13,5.46 Z M 6.13,5.46" />
        <path id="administrationWithheldByDoctor-x" stroke="none" fill="rgb(90, 70, 128)" d="M 6.13,5.46 L 8.94,1 7.24,1 5.53,4.01 C 5.44,4.17 5.34,4.38 5.21,4.64 L 5.19,4.64 C 5.11,4.44 5.01,4.24 4.91,4.04 L 3.26,1 1.41,1 4.16,5.47 1.17,10 2.99,10 4.92,6.7 C 5.01,6.51 5.07,6.36 5.11,6.27 L 5.14,6.27 C 5.2,6.46 5.26,6.6 5.32,6.7 L 7.19,10 9,10 6.13,5.46 Z M 6.13,5.46" />
    </g>
</svg>
