<?xml version="1.0" encoding="UTF-8"?>
<!DOCTYPE svg PUBLIC "-//W3C//DTD SVG 1.1//EN" "http://www.w3.org/Graphics/SVG/1.1/DTD/svg11.dtd">
<svg version="1.1" xmlns="http://www.w3.org/2000/svg" xmlns:xlink="http://www.w3.org/1999/xlink" width="24" height="24"  xml:space="preserve" id="administrationDefered2">
    <!-- Generated by PaintCode - http://www.paintcodeapp.com -->
    <g id="administrationDefered2-group" transform="scale(2.18, 2.18)" >
        <rect id="administrationDefered2-rectangle" stroke="none" fill="rgb(90, 70, 128)" x="1" y="1" width="9" height="9" rx="2" />
        <path id="administrationDefered2-border" stroke="rgb(180, 200, 206)" stroke-width="0.25" stroke-miterlimit="10" fill="none" d="M 1,8 C 1,9.1 1.9,10 3,10 L 8,10 C 9.1,10 10,9.1 10,8 L 10,3 C 10,1.9 9.1,1 8,1 L 3,1 C 1.9,1 1,1.9 1,3 L 1,8 Z M 1,8" />
    </g>
    <g id="administrationDefered2-group2" transform="translate(5, 5) scale(2.33, 2.33)" >
        <path id="administrationDefered2-bezier96" stroke="none" fill="rgb(34, 11, 91)" d="M 4.61,2.79 C 4.6,2.78 4.58,2.75 4.54,2.71 4.47,2.63 4.38,2.55 4.28,2.45 3.97,2.17 3.58,1.87 3.09,1.54 2.28,1.02 1.34,1.2 0.68,2.18 L 0.53,1.99 C 1.72,1.59 2.44,1.69 3.24,2.36 3.6,2.66 3.83,2.92 3.95,3.14 4.04,3.29 4.07,3.41 4.07,3.49 4.07,3.49 4.07,3.49 4.06,3.49 L 4.06,3.54 4.03,3.57 3.51,4.08 3.54,4.03 3.41,4.41 3.29,4.24 5.62,4.24 5.49,4.37 5.49,2.08 5.66,2.2 5.27,2.32 5.32,2.29 4.81,2.8 4.7,2.91 4.61,2.79 Z M 4.82,2.64 L 4.62,2.62 5.14,2.11 5.16,2.09 5.19,2.08 5.58,1.96 5.75,1.9 5.75,2.08 5.75,4.37 5.75,4.5 5.62,4.5 3.29,4.5 3.11,4.5 3.17,4.33 3.29,3.95 3.3,3.92 3.33,3.9 3.84,3.39 3.81,3.46 C 3.81,3.47 3.81,3.47 3.81,3.47 3.81,3.44 3.79,3.38 3.73,3.27 3.62,3.07 3.41,2.84 3.07,2.56 2.35,1.94 1.73,1.86 0.61,2.23 L 0.25,2.35 0.46,2.04 C 1.2,0.95 2.3,0.72 3.23,1.33 3.73,1.66 4.14,1.98 4.45,2.26 4.56,2.36 4.65,2.46 4.73,2.53 4.77,2.58 4.8,2.62 4.82,2.64 Z M 4.82,2.64" />
    </g>
</svg>
