<?xml version="1.0" encoding="UTF-8"?>
<!DOCTYPE svg PUBLIC "-//W3C//DTD SVG 1.1//EN" "http://www.w3.org/Graphics/SVG/1.1/DTD/svg11.dtd">
<svg version="1.1" xmlns="http://www.w3.org/2000/svg" xmlns:xlink="http://www.w3.org/1999/xlink" width="24" height="24"  xml:space="preserve" id="basicFluids">
    <!-- Generated by PaintCode - http://www.paintcodeapp.com -->
    <g id="basicFluids-group" transform="" >
        <path id="basicFluids-fluidBag2" stroke="rgb(34, 11, 91)" stroke-width="0.66" stroke-miterlimit="10" fill="none" d="M 7.64,2 C 6.18,2 5,3.37 5,4.5 L 5,16.93 C 5,18.29 5.8,19.14 7.64,19.14 L 10.34,19.14 10.34,21 C 10.34,21.68 11.29,22 12.25,22 13.2,22 14.16,21.68 14.16,21 L 14.16,19.14 16.97,19.14 C 18.87,19.14 19.5,18.29 19.5,16.93 L 19.5,4.5 C 19.5,3.37 18.39,2 16.86,2 L 7.64,2 Z M 7.64,2" />
    </g>
    <g id="basicFluids-group2" transform="translate(6.5, 5.5) scale(1.1, 1.1)" >
        <path id="basicFluids-bezier64" stroke="none" fill="rgb(90, 70, 128)" d="M 0.82,9.24 L 1.48,9.24 1.48,0.64 0.82,0.64 0.82,9.24 Z M 0.82,9.24" />
        <path id="basicFluids-bezier65" stroke="none" fill="rgb(90, 70, 128)" d="M 0.82,9.24 L 9.42,9.24 9.42,8.58 0.82,8.58 0.82,9.24 Z M 0.82,9.24" />
        <path id="basicFluids-bezier" stroke="none" fill="rgb(90, 70, 128)" d="M 2.13,3.12 C 2.24,2.93 2.45,2.66 2.73,2.39 3.22,1.92 3.78,1.64 4.4,1.63 5,1.63 5.38,1.84 6,2.38 6.06,2.42 6.06,2.42 6.11,2.47 6.53,2.83 6.76,2.96 7.06,2.96 7.42,2.96 7.76,2.78 8.07,2.47 8.27,2.27 8.4,2.08 8.47,1.96 L 9.05,2.28 C 8.95,2.45 8.78,2.69 8.54,2.94 8.12,3.36 7.62,3.62 7.06,3.62 6.56,3.62 6.22,3.43 5.68,2.98 5.63,2.93 5.63,2.93 5.57,2.88 5.06,2.44 4.8,2.29 4.4,2.29 3.98,2.3 3.57,2.51 3.19,2.87 2.95,3.09 2.78,3.32 2.69,3.46 L 2.13,3.12 Z M 2.13,3.12" />
        <path id="basicFluids-bezier2" stroke="none" fill="rgb(90, 70, 128)" d="M 2.13,5.1 C 2.24,4.91 2.45,4.64 2.73,4.37 3.22,3.91 3.78,3.62 4.4,3.62 5,3.61 5.38,3.83 6,4.36 6.06,4.41 6.06,4.41 6.11,4.46 6.53,4.82 6.76,4.94 7.06,4.94 7.42,4.94 7.76,4.76 8.07,4.46 8.27,4.26 8.4,4.06 8.47,3.94 L 9.05,4.26 C 8.95,4.43 8.78,4.68 8.54,4.92 8.12,5.35 7.62,5.61 7.06,5.61 6.56,5.61 6.22,5.42 5.68,4.96 5.63,4.91 5.63,4.91 5.57,4.86 5.06,4.43 4.8,4.28 4.4,4.28 3.98,4.28 3.57,4.49 3.19,4.85 2.95,5.08 2.78,5.3 2.69,5.45 L 2.13,5.1 Z M 2.13,5.1" />
        <path id="basicFluids-bezier3" stroke="none" fill="rgb(90, 70, 128)" d="M 2.13,7.09 C 2.24,6.9 2.45,6.63 2.73,6.36 3.22,5.89 3.78,5.61 4.4,5.61 5,5.6 5.38,5.81 6,6.35 6.06,6.4 6.06,6.4 6.11,6.44 6.53,6.8 6.76,6.93 7.06,6.93 7.42,6.93 7.76,6.75 8.07,6.44 8.26,6.25 8.4,6.05 8.47,5.93 L 9.05,6.25 C 8.95,6.42 8.78,6.66 8.54,6.91 8.12,7.33 7.62,7.59 7.06,7.59 6.56,7.59 6.22,7.4 5.68,6.95 5.63,6.9 5.63,6.9 5.57,6.85 5.06,6.41 4.8,6.26 4.4,6.27 3.98,6.27 3.57,6.48 3.19,6.84 2.95,7.06 2.78,7.29 2.69,7.43 L 2.13,7.09 Z M 2.13,7.09" />
    </g>
</svg>
