<?xml version="1.0" encoding="UTF-8"?>
<!DOCTYPE svg PUBLIC "-//W3C//DTD SVG 1.1//EN" "http://www.w3.org/Graphics/SVG/1.1/DTD/svg11.dtd">
<svg version="1.1" xmlns="http://www.w3.org/2000/svg" xmlns:xlink="http://www.w3.org/1999/xlink" width="24" height="24"  xml:space="preserve" id="changedDevice">
    <!-- Generated by PaintCode - http://www.paintcodeapp.com -->
    <g id="changedDevice-group">
        <g id="changedDevice-group2" transform="scale(2.18, 2.18)" >
            <rect id="changedDevice-rectangle" stroke="none" fill="rgb(82, 176, 73)" x="1" y="1" width="9" height="9" rx="2" />
            <path id="changedDevice-border" stroke="rgb(34, 11, 91)" stroke-width="0.25" stroke-miterlimit="10" fill="none" d="M 1,8 C 1,9.1 1.9,10 3,10 L 8,10 C 9.1,10 10,9.1 10,8 L 10,3 C 10,1.9 9.1,1 8,1 L 3,1 C 1.9,1 1,1.9 1,3 L 1,8 Z M 1,8" />
        </g>
    </g>
    <g id="changedDevice-group3" transform="translate(1, 1) scale(0.92, 0.92)" >
        <g id="changedDevice-group4">
        </g>
        <path id="changedDevice-bezier" stroke="rgb(255, 255, 255)" stroke-width="0.25" stroke-miterlimit="10" fill="rgb(34, 11, 91)" d="M 17.27,4.32 L 19.75,6.81 C 21.08,8.25 20.56,8.42 21.56,9.53 21.89,9.29 22.37,9.33 22.7,9.66 23.07,10.01 23.1,10.57 22.78,10.9 L 21.35,12.37 C 21.03,12.69 20.47,12.67 20.1,12.31 19.74,11.95 19.7,11.4 20.02,11.06 L 20.24,10.85 C 19.75,10.27 19.29,9.48 18.48,9.71 18.44,9.72 17.77,9.23 17.51,9.48 16.63,10.3 15.02,11.97 13.28,13.78 15.93,16.6 18.84,19.7 18.84,19.7 18.84,21.14 17.66,20.97 17.4,20.66 17.4,20.66 14.57,17.83 11.94,15.2 9.33,17.95 6.83,20.64 6.57,20.9 6.08,21.39 4.64,19.94 5.12,19.46 5.39,19.19 7.91,16.54 10.53,13.78 8.85,12.1 7.53,10.77 7.53,10.77 4.61,12.4 1.74,10.46 2.02,7.74 L 2.63,7.14 4.37,8.78 6.07,8.97 C 6.07,8.97 6.37,8.69 6.7,8.39 7.08,8.04 7.49,7.67 7.49,7.67 L 7.39,6.08 5.48,4.28 6.09,3.72 C 8.92,3.18 10.18,6.31 9.09,9.32 9.09,9.32 10.32,10.63 11.91,12.32 13.59,10.55 15.16,8.9 16.03,8 16.34,7.67 15.43,6.74 15.46,6.7 16.21,4.88 13.98,3.05 12.42,3.51 L 12.34,3.53 12.41,3.51 C 14.58,2.82 15.5,2.62 17.27,4.32 Z M 17.27,4.32" />
    </g>
</svg>
