<?xml version="1.0" encoding="UTF-8"?>
<!DOCTYPE svg PUBLIC "-//W3C//DTD SVG 1.1//EN" "http://www.w3.org/Graphics/SVG/1.1/DTD/svg11.dtd">
<svg version="1.1" xmlns="http://www.w3.org/2000/svg" xmlns:xlink="http://www.w3.org/1999/xlink" width="24" height="24"  xml:space="preserve" id="entered_In_Error">
    <!-- Generated by PaintCode - http://www.paintcodeapp.com -->
    <g id="entered_In_Error-group3" transform="scale(2.18, 2.18)" >
        <rect id="entered_In_Error-rectangle" stroke="none" fill="rgb(180, 200, 206)" x="1" y="1" width="9" height="9" rx="2" />
        <path id="entered_In_Error-border" stroke="rgb(34, 11, 91)" stroke-width="0.25" stroke-miterlimit="10" fill="none" d="M 1,8 C 1,9.1 1.9,10 3,10 L 8,10 C 9.1,10 10,9.1 10,8 L 10,3 C 10,1.9 9.1,1 8,1 L 3,1 C 1.9,1 1,1.9 1,3 L 1,8 Z M 1,8" />
    </g>
    <g id="entered_In_Error-group" transform="translate(3, 3) scale(0.75, 0.75)" >
        <g id="entered_In_Error-group2" transform="translate(2, 2) scale(2, 2)" >
            <path id="entered_In_Error-bezier" stroke="none" fill="rgb(149, 37, 39)" d="M 6,8 C 6,8.55 5.55,9 5,9 4.45,9 4,8.55 4,8 4,7.45 4.45,7 5,7 5.55,7 6,7.45 6,8 Z M 4.25,6 L 5.75,6 6.5,1 3.5,1 4.25,6 Z M 4.25,6" />
        </g>
    </g>
</svg>
