<?xml version="1.0" encoding="UTF-8"?>
<!DOCTYPE svg PUBLIC "-//W3C//DTD SVG 1.1//EN" "http://www.w3.org/Graphics/SVG/1.1/DTD/svg11.dtd">
<svg version="1.1" xmlns="http://www.w3.org/2000/svg" xmlns:xlink="http://www.w3.org/1999/xlink" width="24" height="24"  xml:space="preserve" id="infusionCompletedEarly">
    <!-- Generated by PaintCode - http://www.paintcodeapp.com -->
    <g id="infusionCompletedEarly-group">
        <g id="infusionCompletedEarly-group2">
            <path id="infusionCompletedEarly-fluidBag2" stroke="none" fill="rgb(149, 37, 39)" d="M 7.64,2 C 6.18,2 5,3.37 5,4.5 L 5,16.93 C 5,18.29 5.8,19.14 7.64,19.14 L 10.34,19.14 10.34,21 C 10.34,21.68 11.29,22 12.25,22 13.2,22 14.16,21.68 14.16,21 L 14.16,19.14 16.97,19.14 C 18.87,19.14 19.5,18.29 19.5,16.93 L 19.5,4.5 C 19.5,3.37 18.39,2 16.86,2 L 7.64,2 Z M 7.64,2" />
            <g id="infusionCompletedEarly-group3" transform="" >
                <path id="infusionCompletedEarly-fluidBag" stroke="rgb(82, 176, 73)" stroke-width="0.66" stroke-miterlimit="10" fill="none" d="M 7.64,2 C 6.18,2 5,3.37 5,4.5 L 5,16.93 C 5,18.29 5.8,19.14 7.64,19.14 L 10.34,19.14 10.34,21 C 10.34,21.68 11.29,22 12.25,22 13.2,22 14.16,21.68 14.16,21 L 14.16,19.14 16.97,19.14 C 18.87,19.14 19.5,18.29 19.5,16.93 L 19.5,4.5 C 19.5,3.37 18.39,2 16.86,2 L 7.64,2 Z M 7.64,2" />
            </g>
        </g>
        <path id="infusionCompletedEarly-bezier2" stroke="none" fill="rgb(82, 176, 73)" d="M 16,18 L 13.5,18 C 13.5,19.07 13.5,20.6 13.5,20.6 13.5,20.99 13.19,21.3 12.8,21.3 L 11.7,21.3 C 11.31,21.3 11,20.99 11,20.6 11,20.6 11,19.07 11,18 L 8.46,18 C 6,18 6,15.14 6,15.14 L 6,5.85 C 6,5.31 6.09,4.87 6.24,4.51 6.85,3 8.46,3 8.46,3 L 15.98,3 C 15.95,6.28 15.99,15.02 16,18 Z M 16,18" />
    </g>
</svg>
