<?xml version="1.0" encoding="UTF-8"?>
<!DOCTYPE svg PUBLIC "-//W3C//DTD SVG 1.1//EN" "http://www.w3.org/Graphics/SVG/1.1/DTD/svg11.dtd">
<svg version="1.1" xmlns="http://www.w3.org/2000/svg" xmlns:xlink="http://www.w3.org/1999/xlink" width="24" height="24"  xml:space="preserve" id="lateAdministration2">
    <!-- Generated by PaintCode - http://www.paintcodeapp.com -->
    <g id="lateAdministration2-group" transform="scale(2.18, 2.18)" >
        <rect id="lateAdministration2-rectangle" stroke="none" fill="rgb(90, 70, 128)" x="1" y="1" width="9" height="9" rx="2" />
        <path id="lateAdministration2-border" stroke="rgb(149, 37, 39)" stroke-width="0.25" stroke-miterlimit="10" fill="none" d="M 1,8 C 1,9.1 1.9,10 3,10 L 8,10 C 9.1,10 10,9.1 10,8 L 10,3 C 10,1.9 9.1,1 8,1 L 3,1 C 1.9,1 1,1.9 1,3 L 1,8 Z M 1,8" />
    </g>
    <g id="lateAdministration2-group2" transform="scale(4, 4)" >
        <circle id="lateAdministration2-oval" stroke="none" fill="rgb(196, 12, 12)" cx="3" cy="3" r="2" />
        <path id="lateAdministration2-bezier" stroke="none" fill="rgb(255, 255, 255)" d="M 3.25,2 L 3.25,3 3,2.75 4,2.75 C 4.14,2.75 4.25,2.86 4.25,3 4.25,3.14 4.14,3.25 4,3.25 L 3,3.25 C 2.86,3.25 2.75,3.14 2.75,3 L 2.75,2 C 2.75,1.86 2.86,1.75 3,1.75 3.14,1.75 3.25,1.86 3.25,2 Z M 3.25,2" />
    </g>
</svg>
