<?xml version="1.0" encoding="UTF-8"?>
<!DOCTYPE svg PUBLIC "-//W3C//DTD SVG 1.1//EN" "http://www.w3.org/Graphics/SVG/1.1/DTD/svg11.dtd">
<svg version="1.1" xmlns="http://www.w3.org/2000/svg" xmlns:xlink="http://www.w3.org/1999/xlink" width="24" height="24"  xml:space="preserve" id="plannedAdministrationWithDoctorsComments">
    <!-- Generated by PaintCode - http://www.paintcodeapp.com -->
    <g id="plannedAdministrationWithDoctorsComments-group">
        <g id="plannedAdministrationWithDoctorsComments-group2" transform="scale(2.18, 2.18)" >
            <rect id="plannedAdministrationWithDoctorsComments-rectangle" stroke="none" fill="rgb(60, 152, 199)" x="1" y="1" width="9" height="9" rx="2" />
            <path id="plannedAdministrationWithDoctorsComments-border" stroke="rgb(34, 11, 91)" stroke-width="0.25" stroke-miterlimit="10" fill="none" d="M 1,8 C 1,9.1 1.9,10 3,10 L 8,10 C 9.1,10 10,9.1 10,8 L 10,3 C 10,1.9 9.1,1 8,1 L 3,1 C 1.9,1 1,1.9 1,3 L 1,8 Z M 1,8" />
        </g>
    </g>
    <g id="plannedAdministrationWithDoctorsComments-group3" clip-path="url(#plannedAdministrationWithDoctorsComments-rectangle2)" transform="translate(10, 10) scale(0.58, 0.58)" >
        <clipPath id="plannedAdministrationWithDoctorsComments-rectangle2">
            <rect x="0" y="-24" width="24" height="24"  transform="translate(0, 24)" />
        </clipPath>
        <g id="plannedAdministrationWithDoctorsComments-group4" transform="translate(12, 12.5) rotate(-18.05)" >
            <g id="plannedAdministrationWithDoctorsComments-group5" transform="translate(-9, -9.5)" >
                <rect id="plannedAdministrationWithDoctorsComments-rectangle3" stroke="none" fill="rgb(255, 255, 255)" x="1" y="1" width="14" height="15" />
                <path id="plannedAdministrationWithDoctorsComments-bezier" stroke="none" fill="rgb(90, 70, 128)" d="M 3.01,3.02 L 13.01,3.02 13.01,4.02 3.01,4.02 3.01,3.02 Z M 3.01,5.02 L 11.01,5.02 11.01,6.02 3.01,6.02 3.01,5.02 Z M 3.01,7.02 L 8.5,7 8.5,8 3.01,8.02 3.01,7.02 Z M 3.01,9.02 L 12.5,9 12.5,10 3.01,10.02 3.01,9.02 Z M 3.01,11.02 L 11.5,11 11.5,12 3.01,12.02 3.01,11.02 Z M 3.01,13.02 L 13.5,13 13.5,14 3.01,14.02 3.01,13.02 Z M 1.5,15 L 14.5,15 14,15.5 14,1.5 14.5,2 1.5,2 2,1.5 2,15.5 1.5,15 Z M 1.5,16 L 1,16 1,15.5 1,1.5 1,1 1.5,1 14.5,1 15,1 15,1.5 15,15.5 15,16 14.5,16 1.5,16 Z M 1.5,16" />
            </g>
            <g id="plannedAdministrationWithDoctorsComments-group6" transform="translate(-7, -7.5)" >
                <rect id="plannedAdministrationWithDoctorsComments-rectangle4" stroke="none" fill="rgb(255, 255, 255)" x="1" y="1" width="14" height="15" />
                <path id="plannedAdministrationWithDoctorsComments-bezier2" stroke="none" fill="rgb(90, 70, 128)" d="M 3.01,3.02 L 13.01,3.02 13.01,4.02 3.01,4.02 3.01,3.02 Z M 3.01,5.02 L 11.01,5.02 11.01,6.02 3.01,6.02 3.01,5.02 Z M 3.01,7.02 L 8.5,7 8.5,8 3.01,8.02 3.01,7.02 Z M 3.01,9.02 L 12.5,9 12.5,10 3.01,10.02 3.01,9.02 Z M 3.01,11.02 L 11.5,11 11.5,12 3.01,12.02 3.01,11.02 Z M 3.01,13.02 L 13.5,13 13.5,14 3.01,14.02 3.01,13.02 Z M 1.5,15 L 14.5,15 14,15.5 14,1.5 14.5,2 1.5,2 2,1.5 2,15.5 1.5,15 Z M 1.5,16 L 1,16 1,15.5 1,1.5 1,1 1.5,1 14.5,1 15,1 15,1.5 15,15.5 15,16 14.5,16 1.5,16 Z M 1.5,16" />
            </g>
        </g>
    </g>
</svg>
